<svg width="694" height="411" xmlns="http://www.w3.org/2000/svg" xmlns:xlink="http://www.w3.org/1999/xlink" overflow="hidden"><defs><clipPath id="clip0"><path d="M293 203 987 203 987 614 293 614Z" fill-rule="evenodd" clip-rule="evenodd"/></clipPath><clipPath id="clip1"><path d="M321 532 372 532 372 583 321 583Z" fill-rule="evenodd" clip-rule="evenodd"/></clipPath><clipPath id="clip2"><path d="M321 532 372 532 372 583 321 583Z" fill-rule="evenodd" clip-rule="evenodd"/></clipPath><clipPath id="clip3"><path d="M321 532 372 532 372 583 321 583Z" fill-rule="evenodd" clip-rule="evenodd"/></clipPath><clipPath id="clip4"><path d="M331 357 373 357 373 406 331 406Z" fill-rule="evenodd" clip-rule="evenodd"/></clipPath><clipPath id="clip5"><path d="M331 357 373 357 373 406 331 406Z" fill-rule="evenodd" clip-rule="evenodd"/></clipPath><clipPath id="clip6"><path d="M331 357 373 357 373 406 331 406Z" fill-rule="evenodd" clip-rule="evenodd"/></clipPath><clipPath id="clip7"><path d="M665 357 708 357 708 406 665 406Z" fill-rule="evenodd" clip-rule="evenodd"/></clipPath><clipPath id="clip8"><path d="M665 357 708 357 708 406 665 406Z" fill-rule="evenodd" clip-rule="evenodd"/></clipPath><clipPath id="clip9"><path d="M665 357 708 357 708 406 665 406Z" fill-rule="evenodd" clip-rule="evenodd"/></clipPath><clipPath id="clip10"><path d="M325 451 368 451 368 500 325 500Z" fill-rule="evenodd" clip-rule="evenodd"/></clipPath><clipPath id="clip11"><path d="M325 451 368 451 368 500 325 500Z" fill-rule="evenodd" clip-rule="evenodd"/></clipPath><clipPath id="clip12"><path d="M325 451 368 451 368 500 325 500Z" fill-rule="evenodd" clip-rule="evenodd"/></clipPath></defs><g clip-path="url(#clip0)" transform="translate(-293 -203)"><rect x="294" y="203" width="692" height="411" fill="#B4C7E7"/><rect x="313" y="524" width="652" height="67" fill="#2F5597"/><text fill="#FFFFFF" font-family="Calibri,Calibri_MSFontService,sans-serif" font-weight="400" font-size="24" transform="translate(591.178 565)">Hardware</text><g clip-path="url(#clip1)"><g clip-path="url(#clip2)"><g clip-path="url(#clip3)"><path d="M362.438 536.781 362.438 578.219C362.438 580.859 360.297 583 357.656 583L335.344 583C332.703 583 330.563 580.859 330.563 578.219L330.563 536.781C330.563 534.141 332.703 532 335.344 532L357.656 532C360.297 532 362.438 534.141 362.438 536.781ZM372 542.559 372 543.754C372 544.084 371.732 544.352 371.402 544.352L369.609 544.352 369.609 544.949C369.609 545.279 369.342 545.547 369.012 545.547L364.828 545.547 364.828 540.766 369.012 540.766C369.342 540.766 369.609 541.033 369.609 541.363L369.609 541.961 371.402 541.961C371.732 541.961 372 542.229 372 542.559ZM372 552.121 372 553.316C372 553.646 371.732 553.914 371.402 553.914L369.609 553.914 369.609 554.512C369.609 554.842 369.342 555.109 369.012 555.109L364.828 555.109 364.828 550.328 369.012 550.328C369.342 550.328 369.609 550.596 369.609 550.926L369.609 551.523 371.402 551.523C371.732 551.523 372 551.791 372 552.121ZM372 561.684 372 562.879C372 563.209 371.732 563.477 371.402 563.477L369.609 563.477 369.609 564.074C369.609 564.404 369.342 564.672 369.012 564.672L364.828 564.672 364.828 559.891 369.012 559.891C369.342 559.891 369.609 560.158 369.609 560.488L369.609 561.086 371.402 561.086C371.732 561.086 372 561.354 372 561.684ZM372 571.246 372 572.441C372 572.771 371.732 573.039 371.402 573.039L369.609 573.039 369.609 573.637C369.609 573.967 369.342 574.234 369.012 574.234L364.828 574.234 364.828 569.453 369.012 569.453C369.342 569.453 369.609 569.721 369.609 570.051L369.609 570.648 371.402 570.648C371.732 570.648 372 570.916 372 571.246ZM323.988 569.453 328.172 569.453 328.172 574.234 323.988 574.234C323.658 574.234 323.391 573.967 323.391 573.637L323.391 573.039 321.598 573.039C321.268 573.039 321 572.771 321 572.441L321 571.246C321 570.916 321.268 570.648 321.598 570.648L323.391 570.648 323.391 570.051C323.391 569.721 323.658 569.453 323.988 569.453ZM323.988 559.891 328.172 559.891 328.172 564.672 323.988 564.672C323.658 564.672 323.391 564.404 323.391 564.074L323.391 563.477 321.598 563.477C321.268 563.477 321 563.209 321 562.879L321 561.684C321 561.354 321.268 561.086 321.598 561.086L323.391 561.086 323.391 560.488C323.391 560.158 323.658 559.891 323.988 559.891ZM323.988 550.328 328.172 550.328 328.172 555.109 323.988 555.109C323.658 555.109 323.391 554.842 323.391 554.512L323.391 553.914 321.598 553.914C321.268 553.914 321 553.646 321 553.316L321 552.121C321 551.791 321.268 551.523 321.598 551.523L323.391 551.523 323.391 550.926C323.391 550.596 323.658 550.328 323.988 550.328ZM323.988 540.766 328.172 540.766 328.172 545.547 323.988 545.547C323.658 545.547 323.391 545.279 323.391 544.949L323.391 544.352 321.598 544.352C321.268 544.352 321 544.084 321 543.754L321 542.559C321 542.229 321.268 541.961 321.598 541.961L323.391 541.961 323.391 541.363C323.391 541.033 323.658 540.766 323.988 540.766Z" fill="#FFFFFF"/></g></g></g><rect x="315" y="227" width="316" height="199" fill="#8FAADC"/><text fill="#FFFFFF" font-family="Calibri,Calibri_MSFontService,sans-serif" font-weight="400" font-size="24" transform="translate(455.694 254)">VM</text><rect x="323" y="348" width="298" height="67" fill="#2F5597"/><text fill="#FFFFFF" font-family="Calibri,Calibri_MSFontService,sans-serif" font-weight="400" font-size="24" transform="translate(440.808 389)">Kernel</text><rect x="323" y="272" width="91" height="67" fill="#2F5597"/><text fill="#FFFFFF" font-family="Calibri,Calibri_MSFontService,sans-serif" font-weight="400" font-size="24" transform="translate(348.848 313)">App</text><rect x="426" y="272" width="92" height="67" fill="#2F5597"/><text fill="#FFFFFF" font-family="Calibri,Calibri_MSFontService,sans-serif" font-weight="400" font-size="24" transform="translate(452.508 313)">App</text><rect x="530" y="272" width="91" height="67" fill="#2F5597"/><text fill="#FFFFFF" font-family="Calibri,Calibri_MSFontService,sans-serif" font-weight="400" font-size="24" transform="translate(556.167 313)">App</text><g clip-path="url(#clip4)"><g clip-path="url(#clip5)"><g clip-path="url(#clip6)"><path d="M20.7 11.5594C20.7938 11.6063 20.8688 11.7188 20.9813 11.7188 21.0844 11.7188 21.2438 11.6812 21.2531 11.5781 21.2719 11.4469 21.075 11.3625 20.9531 11.3062 20.7938 11.2406 20.5875 11.2125 20.4375 11.2969 20.4 11.3156 20.3625 11.3625 20.3812 11.4 20.4094 11.5219 20.5969 11.5031 20.7 11.5594ZM18.6469 11.7188C18.7594 11.7188 18.8344 11.6063 18.9281 11.5594 19.0313 11.5031 19.2188 11.5219 19.2562 11.4094 19.275 11.3719 19.2375 11.325 19.2 11.3062 19.05 11.2219 18.8438 11.25 18.6844 11.3156 18.5625 11.3719 18.3656 11.4562 18.3844 11.5875 18.3937 11.6812 18.5531 11.7281 18.6469 11.7188ZM39.375 37.8562C39.0375 37.4812 38.8781 36.7688 38.7 36.0094 38.5313 35.25 38.3344 34.4344 37.7156 33.9094 37.5938 33.8063 37.4719 33.7125 37.3406 33.6375 37.2188 33.5625 37.0875 33.4969 36.9563 33.45 37.8187 30.8906 37.4812 28.3406 36.6094 26.0344 35.5406 23.2125 33.675 20.7469 32.25 19.0594 30.6469 17.0438 29.0906 15.1312 29.1188 12.3094 29.1656 8.00625 29.5969 0.009375 22.0125 0 12.4125-0.01875 14.8125 9.69375 14.7094 12.675 14.55 14.8688 14.1094 16.5938 12.6 18.7406 10.8281 20.85 8.33438 24.2531 7.15313 27.8063 6.59063 29.4844 6.32813 31.1906 6.57187 32.8031 5.9625 33.3469 5.50313 34.1813 5.01563 34.6969 4.62187 35.1 4.05 35.25 3.42188 35.475 2.79375 35.7 2.10938 36.0375 1.6875 36.8344 1.49062 37.2 1.425 37.5938 1.425 37.9969 1.425 38.3625 1.48125 38.7375 1.5375 39.1031 1.65 39.8625 1.77187 40.575 1.6125 41.0531 1.125 42.4031 1.05938 43.3406 1.40625 44.025 1.7625 44.7094 2.475 45.0094 3.29062 45.1781 4.9125 45.5156 7.11563 45.4313 8.85 46.35 10.7062 47.325 12.5906 47.6719 14.0906 47.325 15.1781 47.0813 16.0687 46.425 16.5187 45.4313 17.6906 45.4219 18.9844 44.925 21.0469 44.8125 22.4437 44.7 24.1969 45.3094 26.2125 45.1969 26.2688 45.4125 26.3438 45.6281 26.4469 45.825L26.4469 45.8344C27.225 47.4 28.6781 48.1125 30.225 47.9906 31.7813 47.8688 33.4219 46.9594 34.7531 45.375 36.0281 43.8375 38.1281 43.2 39.525 42.3562 40.2188 41.9344 40.7813 41.4094 40.8281 40.6406 40.8656 39.8719 40.4156 39.0188 39.375 37.8562ZM20.9719 8.18438C21.8906 6.10312 24.1781 6.14063 25.0969 8.14688 25.7063 9.47812 25.4344 11.0438 24.6937 11.9344 24.5437 11.8594 24.1406 11.6906 23.5125 11.475 23.6156 11.3625 23.8031 11.2219 23.8781 11.0438 24.3281 9.9375 23.8594 8.5125 23.025 8.48438 22.3406 8.4375 21.7219 9.49688 21.9188 10.6406 21.5344 10.4531 21.0375 10.3125 20.7 10.2281 20.6063 9.58125 20.6719 8.85938 20.9719 8.18438ZM17.1563 7.10625C18.1031 7.10625 19.1063 8.4375 18.9469 10.2469 18.6188 10.3406 18.2813 10.4813 17.9906 10.6781 18.1031 9.84375 17.6813 8.79375 17.0906 8.84063 16.3031 8.90625 16.1719 10.8281 16.9219 11.475 17.0156 11.55 17.1 11.4562 16.3688 11.9906 14.9063 10.6219 15.3844 7.10625 17.1563 7.10625ZM15.8812 12.7969C16.4625 12.3656 17.1563 11.8594 17.2031 11.8125 17.6437 11.4 18.4688 10.4813 19.8187 10.4813 20.4844 10.4813 21.2813 10.6969 22.2469 11.3156 22.8375 11.7 23.3063 11.7281 24.3656 12.1875 25.1531 12.5156 25.65 13.0969 25.35 13.8937 25.1062 14.5594 24.3187 15.2438 23.2219 15.5906 22.1813 15.9281 21.3656 17.0906 19.6406 16.9875 19.275 16.9688 18.9844 16.8937 18.7406 16.7906 17.9906 16.4625 17.5969 15.8156 16.8656 15.3844 16.0594 14.9344 15.6281 14.4094 15.4875 13.95 15.3563 13.4906 15.4875 13.1063 15.8812 12.7969ZM16.1906 44.1094C15.9375 47.4 12.075 47.3344 9.13125 45.7969 6.32813 44.3156 2.7 45.1875 1.95937 43.7438 1.73438 43.3031 1.73438 42.5531 2.20313 41.2688L2.20313 41.25C2.42812 40.5375 2.25938 39.75 2.14687 39.0094 2.03438 38.2781 1.97813 37.6031 2.23125 37.1344 2.55937 36.5062 3.02812 36.2813 3.61875 36.075 4.58438 35.7281 4.725 35.7562 5.45625 35.1469 5.97188 34.6125 6.34687 33.9375 6.79688 33.4594 7.275 32.9437 7.73438 32.7 8.45625 32.8125 9.21563 32.925 9.87188 33.45 10.5094 34.3125L12.3469 37.65C13.2375 39.5156 16.3875 42.1875 16.1906 44.1094ZM16.0594 41.6813C15.675 41.0625 15.1594 40.4063 14.7094 39.8438 15.375 39.8438 16.0406 39.6375 16.275 39.0094 16.4906 38.4281 16.275 37.6125 15.5812 36.675 14.3156 34.9688 11.9906 33.6281 11.9906 33.6281 10.725 32.8406 10.0125 31.875 9.68438 30.825 9.35625 29.775 9.40313 28.6406 9.65625 27.525 10.1437 25.3781 11.4 23.2875 12.2062 21.975 12.4219 21.8156 12.2813 22.275 11.3906 23.925 10.5938 25.4344 9.10312 28.9219 11.1469 31.65 11.2031 29.7094 11.6625 27.7312 12.4406 25.8844 13.5656 23.3156 15.9375 18.8625 16.125 15.3187 16.2281 15.3937 16.5563 15.6188 16.7062 15.7031 17.1375 15.9562 17.4656 16.3312 17.8875 16.6688 19.05 17.6063 20.5594 17.5313 21.8625 16.7813 22.4437 16.4531 22.9125 16.0781 23.3531 15.9375 24.2813 15.6469 25.0219 15.1312 25.4437 14.5313 26.1656 17.3812 27.8531 21.4969 28.9313 23.5031 29.5031 24.5719 30.6469 26.8313 31.1438 29.5594 31.4531 29.55 31.8 29.5969 32.1656 29.6906 33.4594 26.3438 31.0687 22.7344 29.9812 21.7313 29.5406 21.3 29.5219 21.1125 29.7375 21.1219 30.9187 22.1719 32.475 24.2813 33.0375 26.6531 33.3 27.7406 33.3469 28.875 33.075 30 34.6125 30.6375 36.4406 31.6781 35.9531 33.2625 35.7469 33.2531 35.6531 33.2625 35.5594 33.2625 35.8594 32.3156 35.1937 31.6125 33.4219 30.8156 31.5844 30.0094 30.0469 30.0094 29.8313 31.9875 28.6969 32.3812 28.1156 33.3656 27.825 34.5469 27.5625 35.5969 27.4875 36.8625 27.4125 38.2875 27.3656 39.0094 27.075 39.975 26.775 41.0062 23.7656 43.1531 19.5844 44.0906 16.0594 41.6813ZM40.1906 40.6031C40.1062 42.1781 36.3281 42.4688 34.2656 44.9625 33.0281 46.4344 31.5094 47.25 30.1781 47.3531 28.8469 47.4563 27.6937 46.9031 27.0188 45.5437 26.5781 44.5031 26.7937 43.3781 27.1219 42.1406 27.4688 40.8094 27.9844 39.4406 28.05 38.3344 28.125 36.9094 28.2094 35.6625 28.4437 34.7063 28.6875 33.7406 29.0625 33.0938 29.7281 32.7281 29.7562 32.7094 29.7937 32.7 29.8219 32.6813 29.8969 33.9187 30.5062 35.175 31.5844 35.4469 32.7656 35.7562 34.4625 34.7438 35.1844 33.9187 36.0281 33.8906 36.6563 33.8344 37.3031 34.3969 38.2312 35.1937 37.9688 37.2375 38.9063 38.2969 39.9 39.3844 40.2188 40.125 40.1906 40.6031ZM16.2469 13.9406C16.4344 14.1188 16.6875 14.3625 16.9969 14.6063 17.6156 15.0938 18.4781 15.6 19.5563 15.6 20.6437 15.6 21.6656 15.0469 22.5375 14.5875 22.9969 14.3438 23.5594 13.9313 23.925 13.6125 24.2906 13.2938 24.4781 13.0219 24.2156 12.9938 23.9531 12.9656 23.9719 13.2375 23.6531 13.4719 23.2406 13.7719 22.7438 14.1656 22.35 14.3906 21.6563 14.7844 20.5219 15.3469 19.5469 15.3469 18.5719 15.3469 17.7938 14.8969 17.2125 14.4375 16.9219 14.2031 16.6781 13.9688 16.4906 13.7906 16.35 13.6594 16.3125 13.3594 16.0875 13.3312 15.9562 13.3219 15.9188 13.6781 16.2469 13.9406Z" fill="#FFFFFF" transform="matrix(1 0 -0 1.02083 331 357)"/></g></g></g><rect x="649" y="227" width="316" height="199" fill="#8FAADC"/><text fill="#FFFFFF" font-family="Calibri,Calibri_MSFontService,sans-serif" font-weight="400" font-size="24" transform="translate(790.139 254)">VM</text><rect x="657" y="348" width="299" height="67" fill="#2F5597"/><text fill="#FFFFFF" font-family="Calibri,Calibri_MSFontService,sans-serif" font-weight="400" font-size="24" transform="translate(775.253 389)">Kernel</text><rect x="657" y="272" width="91" height="67" fill="#2F5597"/><text fill="#FFFFFF" font-family="Calibri,Calibri_MSFontService,sans-serif" font-weight="400" font-size="24" transform="translate(683.294 313)">App</text><rect x="761" y="272" width="91" height="67" fill="#2F5597"/><text fill="#FFFFFF" font-family="Calibri,Calibri_MSFontService,sans-serif" font-weight="400" font-size="24" transform="translate(786.953 313)">App</text><rect x="865" y="272" width="91" height="67" fill="#2F5597"/><text fill="#FFFFFF" font-family="Calibri,Calibri_MSFontService,sans-serif" font-weight="400" font-size="24" transform="translate(890.613 313)">App</text><g clip-path="url(#clip7)"><g clip-path="url(#clip8)"><g clip-path="url(#clip9)"><path d="M21.1313 11.8002C21.227 11.848 21.3035 11.9629 21.4184 11.9629 21.5236 11.9629 21.6863 11.9246 21.6959 11.8193 21.715 11.6854 21.5141 11.5992 21.3896 11.5418 21.227 11.4748 21.0164 11.4461 20.8633 11.5322 20.825 11.5514 20.7867 11.5992 20.8059 11.6375 20.8346 11.7619 21.026 11.7428 21.1313 11.8002ZM19.0354 11.9629C19.1502 11.9629 19.2268 11.848 19.3225 11.8002 19.4277 11.7428 19.6191 11.7619 19.6574 11.6471 19.6766 11.6088 19.6383 11.5609 19.6 11.5418 19.4469 11.4557 19.2363 11.4844 19.0736 11.5514 18.9492 11.6088 18.7482 11.6949 18.7674 11.8289 18.777 11.9246 18.9396 11.9725 19.0354 11.9629ZM40.1953 38.6449C39.8508 38.2621 39.6881 37.5348 39.5062 36.7596 39.334 35.9844 39.133 35.1518 38.5014 34.6158 38.377 34.5105 38.2525 34.4148 38.1186 34.3383 37.9941 34.2617 37.8602 34.1947 37.7262 34.1469 38.6066 31.5342 38.2621 28.9311 37.3721 26.5768 36.2811 23.6961 34.3766 21.1791 32.9219 19.4564 31.2854 17.3988 29.6967 15.4465 29.7254 12.5658 29.7732 8.17305 30.2135 0.00957031 22.4711 0 12.6711-0.0191406 15.1211 9.8957 15.0158 12.9391 14.8531 15.1785 14.4033 16.9395 12.8625 19.1311 11.0537 21.2844 8.50801 24.7584 7.30215 28.3855 6.72793 30.0986 6.45996 31.8404 6.70879 33.4865 6.08672 34.0416 5.61777 34.8934 5.12012 35.4197 4.71816 35.8312 4.13438 35.9844 3.49316 36.2141 2.85195 36.4437 2.15332 36.7883 1.72266 37.6018 1.52168 37.975 1.45469 38.377 1.45469 38.7885 1.45469 39.1617 1.51211 39.5445 1.56953 39.9178 1.68438 40.693 1.80879 41.4203 1.64609 41.9084 1.14844 43.2865 1.08145 44.2436 1.43555 44.9422 1.79922 45.6408 2.52656 45.9471 3.35918 46.1193 5.01484 46.4639 7.26387 46.3777 9.03438 47.3156 10.9293 48.3109 12.8529 48.665 14.3842 48.3109 15.4943 48.0621 16.4035 47.3922 16.8629 46.3777 18.0592 46.3682 19.3799 45.8609 21.4854 45.7461 22.9113 45.6312 24.701 46.2533 26.7586 46.1385 26.816 46.3586 26.8926 46.5787 26.9979 46.7797L26.9979 46.7893C27.7922 48.3875 29.2756 49.1148 30.8547 48.9904 32.4434 48.866 34.1182 47.9377 35.4771 46.3203 36.7787 44.7508 38.9225 44.1 40.3484 43.2387 41.0566 42.808 41.6309 42.2721 41.6787 41.4873 41.717 40.7025 41.2576 39.8316 40.1953 38.6449ZM21.4088 8.35488C22.3467 6.23027 24.6818 6.26855 25.6197 8.3166 26.2418 9.67559 25.9643 11.2738 25.2082 12.183 25.0551 12.1064 24.6436 11.9342 24.0023 11.7141 24.1076 11.5992 24.299 11.4557 24.3756 11.2738 24.835 10.1445 24.3564 8.68984 23.5047 8.66113 22.8061 8.61328 22.1744 9.69473 22.3754 10.8623 21.983 10.6709 21.4758 10.5273 21.1313 10.4412 21.0355 9.78086 21.1025 9.04395 21.4088 8.35488ZM17.5137 7.2543C18.4803 7.2543 19.5043 8.61328 19.3416 10.4604 19.0066 10.5561 18.6621 10.6996 18.3654 10.9006 18.4803 10.0488 18.0496 8.97695 17.4467 9.02481 16.6428 9.0918 16.5088 11.0537 17.2744 11.7141 17.3701 11.7906 17.4562 11.6949 16.7098 12.2404 15.2168 10.8432 15.7049 7.2543 17.5137 7.2543ZM16.2121 13.0635C16.8055 12.6232 17.5137 12.1064 17.5615 12.0586 18.0113 11.6375 18.8535 10.6996 20.2316 10.6996 20.9111 10.6996 21.7246 10.9197 22.7104 11.5514 23.3133 11.9438 23.7918 11.9725 24.8732 12.4414 25.6771 12.7764 26.1844 13.3697 25.8781 14.1832 25.6293 14.8627 24.8254 15.5613 23.7057 15.9154 22.6434 16.26 21.8107 17.4467 20.0498 17.3414 19.6766 17.3223 19.3799 17.2457 19.1311 17.1404 18.3654 16.8055 17.9635 16.1451 17.217 15.7049 16.3939 15.2455 15.9537 14.7096 15.8102 14.2406 15.6762 13.7717 15.8102 13.3793 16.2121 13.0635ZM16.5279 45.0283C16.2695 48.3875 12.3266 48.3205 9.32148 46.751 6.45996 45.2389 2.75625 46.1289 2.0002 44.6551 1.77051 44.2053 1.77051 43.4396 2.24902 42.1285L2.24902 42.1094C2.47871 41.382 2.30645 40.5781 2.1916 39.8221 2.07676 39.0756 2.01934 38.3865 2.27773 37.908 2.6127 37.2668 3.09121 37.0371 3.69414 36.8266 4.67988 36.4725 4.82344 36.5012 5.56992 35.8791 6.09629 35.3336 6.4791 34.6445 6.93848 34.1564 7.42656 33.6301 7.89551 33.3812 8.63242 33.4961 9.40762 33.6109 10.0775 34.1469 10.7283 35.0273L12.6041 38.4344C13.5133 40.3389 16.7289 43.0664 16.5279 45.0283ZM16.3939 42.5496C16.0016 41.918 15.4752 41.248 15.0158 40.6738 15.6953 40.6738 16.3748 40.4633 16.6141 39.8221 16.8342 39.2287 16.6141 38.3961 15.9059 37.4391 14.6139 35.6973 12.2404 34.3287 12.2404 34.3287 10.9484 33.5248 10.2211 32.5391 9.88613 31.4672 9.55117 30.3953 9.59902 29.2373 9.85742 28.0984 10.3551 25.9068 11.6375 23.7727 12.4605 22.4328 12.6807 22.2701 12.5371 22.7391 11.6279 24.4234 10.8145 25.9643 9.29277 29.5244 11.3791 32.3094 11.4365 30.3283 11.9055 28.309 12.6998 26.4236 13.8482 23.8014 16.2695 19.2555 16.4609 15.6379 16.5662 15.7145 16.9012 15.9441 17.0543 16.0303 17.4945 16.2887 17.8295 16.6715 18.2602 17.016 19.4469 17.973 20.9877 17.8965 22.318 17.1309 22.9113 16.7959 23.3898 16.4131 23.8396 16.2695 24.7871 15.9729 25.5432 15.4465 25.9738 14.834 26.7107 17.7434 28.4334 21.9447 29.534 23.9928 30.1178 25.0838 31.2854 27.3902 31.7926 30.1752 32.1084 30.1656 32.4625 30.2135 32.8357 30.3092 34.1564 26.8926 31.716 23.208 30.6059 22.184 30.1561 21.7437 30.1369 21.5523 30.357 21.5619 31.5629 22.6338 33.1516 24.7871 33.7258 27.2084 33.9938 28.3186 34.0416 29.4766 33.7641 30.625 35.3336 31.2758 37.1998 32.3381 36.7021 33.9555 36.4916 33.9459 36.3959 33.9555 36.3002 33.9555 36.6064 32.9889 35.927 32.2711 34.1182 31.4576 32.2424 30.6346 30.6729 30.6346 30.4527 32.6539 29.2947 33.0559 28.7014 34.0607 28.4047 35.2666 28.1367 36.3385 28.0602 37.6305 27.9836 39.0852 27.9357 39.8221 27.6391 40.8078 27.3328 41.8605 24.2607 44.0521 19.9924 45.0092 16.3939 42.5496ZM41.0279 41.449C40.9418 43.0568 37.085 43.3535 34.9795 45.8992 33.7162 47.4018 32.1658 48.2344 30.8068 48.3396 29.4479 48.4449 28.2707 47.8803 27.5816 46.4926 27.1318 45.4303 27.352 44.2818 27.6869 43.0186 28.041 41.6596 28.5674 40.2623 28.6344 39.133 28.7109 37.6783 28.7971 36.4055 29.0363 35.4293 29.2852 34.4436 29.668 33.7832 30.3475 33.41 30.3762 33.3908 30.4145 33.3812 30.4432 33.3621 30.5197 34.6254 31.1418 35.9078 32.2424 36.1854 33.4482 36.5012 35.1805 35.4676 35.9174 34.6254 36.7787 34.5967 37.4199 34.5393 38.0803 35.1135 39.0277 35.927 38.7598 38.0133 39.7168 39.0947 40.7313 40.2049 41.0566 40.9609 41.0279 41.449ZM16.5854 14.2311C16.7768 14.4129 17.0352 14.6617 17.351 14.9105 17.9826 15.4082 18.8631 15.925 19.9637 15.925 21.0738 15.925 22.117 15.3604 23.007 14.8914 23.476 14.6426 24.0502 14.2215 24.4234 13.8961 24.7967 13.5707 24.9881 13.2932 24.7201 13.2645 24.4521 13.2357 24.4713 13.5133 24.1459 13.7525 23.7248 14.0588 23.2176 14.4607 22.8156 14.6904 22.1074 15.0924 20.9494 15.6666 19.9541 15.6666 18.9588 15.6666 18.1645 15.2072 17.5711 14.7383 17.2744 14.499 17.0256 14.2598 16.8342 14.0779 16.6906 13.9439 16.6523 13.6377 16.4227 13.609 16.2887 13.5994 16.2504 13.9631 16.5854 14.2311Z" fill="#FFFFFF" transform="matrix(1.00292 0 -0 1 665 357)"/></g></g></g><rect x="313" y="442" width="652" height="66" fill="#2F5597"/><text fill="#FFFFFF" font-family="Calibri,Calibri_MSFontService,sans-serif" font-weight="400" font-size="24" transform="translate(607.692 483)">Kernel</text><g clip-path="url(#clip10)"><g clip-path="url(#clip11)"><g clip-path="url(#clip12)"><path d="M21.1313 11.8002C21.227 11.848 21.3035 11.9629 21.4184 11.9629 21.5236 11.9629 21.6863 11.9246 21.6959 11.8193 21.715 11.6854 21.5141 11.5992 21.3896 11.5418 21.227 11.4748 21.0164 11.4461 20.8633 11.5322 20.825 11.5514 20.7867 11.5992 20.8059 11.6375 20.8346 11.7619 21.026 11.7428 21.1313 11.8002ZM19.0354 11.9629C19.1502 11.9629 19.2268 11.848 19.3225 11.8002 19.4277 11.7428 19.6191 11.7619 19.6574 11.6471 19.6766 11.6088 19.6383 11.5609 19.6 11.5418 19.4469 11.4557 19.2363 11.4844 19.0736 11.5514 18.9492 11.6088 18.7482 11.6949 18.7674 11.8289 18.777 11.9246 18.9396 11.9725 19.0354 11.9629ZM40.1953 38.6449C39.8508 38.2621 39.6881 37.5348 39.5062 36.7596 39.334 35.9844 39.133 35.1518 38.5014 34.6158 38.377 34.5105 38.2525 34.4148 38.1186 34.3383 37.9941 34.2617 37.8602 34.1947 37.7262 34.1469 38.6066 31.5342 38.2621 28.9311 37.3721 26.5768 36.2811 23.6961 34.3766 21.1791 32.9219 19.4564 31.2854 17.3988 29.6967 15.4465 29.7254 12.5658 29.7732 8.17305 30.2135 0.00957031 22.4711 0 12.6711-0.0191406 15.1211 9.8957 15.0158 12.9391 14.8531 15.1785 14.4033 16.9395 12.8625 19.1311 11.0537 21.2844 8.50801 24.7584 7.30215 28.3855 6.72793 30.0986 6.45996 31.8404 6.70879 33.4865 6.08672 34.0416 5.61777 34.8934 5.12012 35.4197 4.71816 35.8312 4.13438 35.9844 3.49316 36.2141 2.85195 36.4437 2.15332 36.7883 1.72266 37.6018 1.52168 37.975 1.45469 38.377 1.45469 38.7885 1.45469 39.1617 1.51211 39.5445 1.56953 39.9178 1.68438 40.693 1.80879 41.4203 1.64609 41.9084 1.14844 43.2865 1.08145 44.2436 1.43555 44.9422 1.79922 45.6408 2.52656 45.9471 3.35918 46.1193 5.01484 46.4639 7.26387 46.3777 9.03438 47.3156 10.9293 48.3109 12.8529 48.665 14.3842 48.3109 15.4943 48.0621 16.4035 47.3922 16.8629 46.3777 18.0592 46.3682 19.3799 45.8609 21.4854 45.7461 22.9113 45.6312 24.701 46.2533 26.7586 46.1385 26.816 46.3586 26.8926 46.5787 26.9979 46.7797L26.9979 46.7893C27.7922 48.3875 29.2756 49.1148 30.8547 48.9904 32.4434 48.866 34.1182 47.9377 35.4771 46.3203 36.7787 44.7508 38.9225 44.1 40.3484 43.2387 41.0566 42.808 41.6309 42.2721 41.6787 41.4873 41.717 40.7025 41.2576 39.8316 40.1953 38.6449ZM21.4088 8.35488C22.3467 6.23027 24.6818 6.26855 25.6197 8.3166 26.2418 9.67559 25.9643 11.2738 25.2082 12.183 25.0551 12.1064 24.6436 11.9342 24.0023 11.7141 24.1076 11.5992 24.299 11.4557 24.3756 11.2738 24.835 10.1445 24.3564 8.68984 23.5047 8.66113 22.8061 8.61328 22.1744 9.69473 22.3754 10.8623 21.983 10.6709 21.4758 10.5273 21.1313 10.4412 21.0355 9.78086 21.1025 9.04395 21.4088 8.35488ZM17.5137 7.2543C18.4803 7.2543 19.5043 8.61328 19.3416 10.4604 19.0066 10.5561 18.6621 10.6996 18.3654 10.9006 18.4803 10.0488 18.0496 8.97695 17.4467 9.02481 16.6428 9.0918 16.5088 11.0537 17.2744 11.7141 17.3701 11.7906 17.4562 11.6949 16.7098 12.2404 15.2168 10.8432 15.7049 7.2543 17.5137 7.2543ZM16.2121 13.0635C16.8055 12.6232 17.5137 12.1064 17.5615 12.0586 18.0113 11.6375 18.8535 10.6996 20.2316 10.6996 20.9111 10.6996 21.7246 10.9197 22.7104 11.5514 23.3133 11.9438 23.7918 11.9725 24.8732 12.4414 25.6771 12.7764 26.1844 13.3697 25.8781 14.1832 25.6293 14.8627 24.8254 15.5613 23.7057 15.9154 22.6434 16.26 21.8107 17.4467 20.0498 17.3414 19.6766 17.3223 19.3799 17.2457 19.1311 17.1404 18.3654 16.8055 17.9635 16.1451 17.217 15.7049 16.3939 15.2455 15.9537 14.7096 15.8102 14.2406 15.6762 13.7717 15.8102 13.3793 16.2121 13.0635ZM16.5279 45.0283C16.2695 48.3875 12.3266 48.3205 9.32148 46.751 6.45996 45.2389 2.75625 46.1289 2.0002 44.6551 1.77051 44.2053 1.77051 43.4396 2.24902 42.1285L2.24902 42.1094C2.47871 41.382 2.30645 40.5781 2.1916 39.8221 2.07676 39.0756 2.01934 38.3865 2.27773 37.908 2.6127 37.2668 3.09121 37.0371 3.69414 36.8266 4.67988 36.4725 4.82344 36.5012 5.56992 35.8791 6.09629 35.3336 6.4791 34.6445 6.93848 34.1564 7.42656 33.6301 7.89551 33.3812 8.63242 33.4961 9.40762 33.6109 10.0775 34.1469 10.7283 35.0273L12.6041 38.4344C13.5133 40.3389 16.7289 43.0664 16.5279 45.0283ZM16.3939 42.5496C16.0016 41.918 15.4752 41.248 15.0158 40.6738 15.6953 40.6738 16.3748 40.4633 16.6141 39.8221 16.8342 39.2287 16.6141 38.3961 15.9059 37.4391 14.6139 35.6973 12.2404 34.3287 12.2404 34.3287 10.9484 33.5248 10.2211 32.5391 9.88613 31.4672 9.55117 30.3953 9.59902 29.2373 9.85742 28.0984 10.3551 25.9068 11.6375 23.7727 12.4605 22.4328 12.6807 22.2701 12.5371 22.7391 11.6279 24.4234 10.8145 25.9643 9.29277 29.5244 11.3791 32.3094 11.4365 30.3283 11.9055 28.309 12.6998 26.4236 13.8482 23.8014 16.2695 19.2555 16.4609 15.6379 16.5662 15.7145 16.9012 15.9441 17.0543 16.0303 17.4945 16.2887 17.8295 16.6715 18.2602 17.016 19.4469 17.973 20.9877 17.8965 22.318 17.1309 22.9113 16.7959 23.3898 16.4131 23.8396 16.2695 24.7871 15.9729 25.5432 15.4465 25.9738 14.834 26.7107 17.7434 28.4334 21.9447 29.534 23.9928 30.1178 25.0838 31.2854 27.3902 31.7926 30.1752 32.1084 30.1656 32.4625 30.2135 32.8357 30.3092 34.1564 26.8926 31.716 23.208 30.6059 22.184 30.1561 21.7437 30.1369 21.5523 30.357 21.5619 31.5629 22.6338 33.1516 24.7871 33.7258 27.2084 33.9938 28.3186 34.0416 29.4766 33.7641 30.625 35.3336 31.2758 37.1998 32.3381 36.7021 33.9555 36.4916 33.9459 36.3959 33.9555 36.3002 33.9555 36.6064 32.9889 35.927 32.2711 34.1182 31.4576 32.2424 30.6346 30.6729 30.6346 30.4527 32.6539 29.2947 33.0559 28.7014 34.0607 28.4047 35.2666 28.1367 36.3385 28.0602 37.6305 27.9836 39.0852 27.9357 39.8221 27.6391 40.8078 27.3328 41.8605 24.2607 44.0521 19.9924 45.0092 16.3939 42.5496ZM41.0279 41.449C40.9418 43.0568 37.085 43.3535 34.9795 45.8992 33.7162 47.4018 32.1658 48.2344 30.8068 48.3396 29.4479 48.4449 28.2707 47.8803 27.5816 46.4926 27.1318 45.4303 27.352 44.2818 27.6869 43.0186 28.041 41.6596 28.5674 40.2623 28.6344 39.133 28.7109 37.6783 28.7971 36.4055 29.0363 35.4293 29.2852 34.4436 29.668 33.7832 30.3475 33.41 30.3762 33.3908 30.4145 33.3812 30.4432 33.3621 30.5197 34.6254 31.1418 35.9078 32.2424 36.1854 33.4482 36.5012 35.1805 35.4676 35.9174 34.6254 36.7787 34.5967 37.4199 34.5393 38.0803 35.1135 39.0277 35.927 38.7598 38.0133 39.7168 39.0947 40.7313 40.2049 41.0566 40.9609 41.0279 41.449ZM16.5854 14.2311C16.7768 14.4129 17.0352 14.6617 17.351 14.9105 17.9826 15.4082 18.8631 15.925 19.9637 15.925 21.0738 15.925 22.117 15.3604 23.007 14.8914 23.476 14.6426 24.0502 14.2215 24.4234 13.8961 24.7967 13.5707 24.9881 13.2932 24.7201 13.2645 24.4521 13.2357 24.4713 13.5133 24.1459 13.7525 23.7248 14.0588 23.2176 14.4607 22.8156 14.6904 22.1074 15.0924 20.9494 15.6666 19.9541 15.6666 18.9588 15.6666 18.1645 15.2072 17.5711 14.7383 17.2744 14.499 17.0256 14.2598 16.8342 14.0779 16.6906 13.9439 16.6523 13.6377 16.4227 13.609 16.2887 13.5994 16.2504 13.9631 16.5854 14.2311Z" fill="#FFFFFF" transform="matrix(1.00292 0 -0 1 325 451)"/></g></g></g></g></svg>