<svg width="694" height="411" overflow="hidden" xmlns="http://www.w3.org/2000/svg"><defs><clipPath id="a"><path d="M293 203h694v411H293z" fill-rule="evenodd" clip-rule="evenodd"/></clipPath><clipPath id="b"><path d="M321 532h51v51h-51z" fill-rule="evenodd" clip-rule="evenodd"/></clipPath><clipPath id="c"><path d="M321 532h51v51h-51z" fill-rule="evenodd" clip-rule="evenodd"/></clipPath><clipPath id="d"><path d="M321 532h51v51h-51z" fill-rule="evenodd" clip-rule="evenodd"/></clipPath><clipPath id="e"><path d="M331 357h42v49h-42z" fill-rule="evenodd" clip-rule="evenodd"/></clipPath><clipPath id="f"><path d="M331 357h42v49h-42z" fill-rule="evenodd" clip-rule="evenodd"/></clipPath><clipPath id="g"><path d="M331 357h42v49h-42z" fill-rule="evenodd" clip-rule="evenodd"/></clipPath><clipPath id="h"><path d="M665 357h43v49h-43z" fill-rule="evenodd" clip-rule="evenodd"/></clipPath><clipPath id="i"><path d="M665 357h43v49h-43z" fill-rule="evenodd" clip-rule="evenodd"/></clipPath><clipPath id="j"><path d="M665 357h43v49h-43z" fill-rule="evenodd" clip-rule="evenodd"/></clipPath><clipPath id="k"><path d="M325 451h43v49h-43z" fill-rule="evenodd" clip-rule="evenodd"/></clipPath><clipPath id="l"><path d="M325 451h43v49h-43z" fill-rule="evenodd" clip-rule="evenodd"/></clipPath><clipPath id="m"><path d="M325 451h43v49h-43z" fill-rule="evenodd" clip-rule="evenodd"/></clipPath></defs><g clip-path="url(#a)" transform="translate(-293 -203)"><path d="M294 203h692v411H294z" fill="#b4c7e7"/><path d="M313 524h652v67H313z" fill="#2f5597"/><path d="M593.533 547.504h2.368v7.172h8.601v-7.172h2.367V565h-2.367v-8.332h-8.601V565h-2.368zm23.918 10.898q-2.613 0-3.62.598-1.008.598-1.008 2.04 0 1.148.75 1.827.761.668 2.062.668 1.793 0 2.871-1.265 1.09-1.278 1.09-3.387v-.48zm4.301-.89V565h-2.156v-1.992q-.738 1.195-1.84 1.77-1.101.562-2.695.562-2.016 0-3.211-1.125-1.184-1.137-1.184-3.035 0-2.215 1.477-3.34 1.488-1.125 4.43-1.125h3.023v-.211q0-1.488-.984-2.297-.973-.82-2.743-.82-1.125 0-2.191.27-1.066.269-2.05.808v-1.992q1.183-.457 2.296-.68 1.113-.234 2.168-.234 2.848 0 4.254 1.476 1.406 1.477 1.406 4.477zm12.047-3.621q-.363-.211-.797-.305-.422-.106-.937-.106-1.828 0-2.813 1.196-.972 1.183-.972 3.41V565h-2.168v-13.125h2.168v2.04q.68-1.196 1.77-1.77 1.089-.586 2.648-.586.222 0 .492.035.27.023.597.082zm10.477-.024v-7.101h2.156V565h-2.156v-1.969q-.68 1.172-1.723 1.746-1.031.563-2.484.563-2.38 0-3.88-1.899-1.488-1.898-1.488-4.992 0-3.094 1.489-4.992 1.5-1.898 3.879-1.898 1.453 0 2.484.574 1.043.562 1.723 1.734zm-7.348 4.582q0 2.38.973 3.738.984 1.348 2.695 1.348 1.71 0 2.695-1.348.985-1.359.985-3.738t-.985-3.726q-.984-1.36-2.695-1.36-1.711 0-2.695 1.36-.973 1.347-.973 3.726zm12.691-6.574h2.157l2.695 10.242 2.684-10.242h2.543l2.695 10.242 2.683-10.242h2.157L663.799 565h-2.543l-2.824-10.758L655.596 565h-2.543zm26.848 6.527q-2.613 0-3.621.598t-1.008 2.04q0 1.147.75 1.827.762.668 2.063.668 1.793 0 2.87-1.265 1.09-1.278 1.09-3.387v-.48zm4.3-.89V565h-2.155v-1.992q-.739 1.195-1.84 1.77-1.102.562-2.696.562-2.015 0-3.21-1.125-1.184-1.137-1.184-3.035 0-2.215 1.476-3.34 1.489-1.125 4.43-1.125h3.024v-.211q0-1.488-.985-2.297-.972-.82-2.742-.82-1.125 0-2.191.27-1.067.269-2.051.808v-1.992q1.183-.457 2.297-.68 1.113-.234 2.168-.234 2.847 0 4.254 1.476 1.406 1.477 1.406 4.477zm12.048-3.621q-.364-.211-.797-.305-.422-.106-.938-.106-1.828 0-2.812 1.196-.973 1.183-.973 3.41V565h-2.168v-13.125h2.168v2.04q.68-1.196 1.77-1.77 1.09-.586 2.648-.586.223 0 .492.035.27.023.598.082zm12.96 4.007v1.055h-9.913q.14 2.227 1.336 3.399 1.207 1.16 3.351 1.16 1.242 0 2.402-.305 1.172-.305 2.32-.914v2.039q-1.16.492-2.378.75-1.219.258-2.473.258-3.14 0-4.98-1.828-1.828-1.828-1.828-4.946 0-3.222 1.734-5.109 1.746-1.898 4.7-1.898 2.648 0 4.183 1.71 1.547 1.7 1.547 4.63zm-2.156-.632q-.023-1.77-.996-2.825-.96-1.054-2.554-1.054-1.805 0-2.895 1.02-1.078 1.019-1.242 2.87z" aria-label="Hardware" font-size="24" font-family="Calibri,Calibri_MSFontService,sans-serif" fill="#fff"/><g clip-path="url(#b)"><g clip-path="url(#c)"><g clip-path="url(#d)"><path d="M362.438 536.781v41.438a4.782 4.782 0 0 1-4.782 4.781h-22.312a4.781 4.781 0 0 1-4.781-4.781v-41.438c0-2.64 2.14-4.781 4.781-4.781h22.312a4.782 4.782 0 0 1 4.782 4.781zm9.562 5.778v1.195c0 .33-.268.598-.598.598h-1.793v.597c0 .33-.267.598-.597.598h-4.184v-4.781h4.184c.33 0 .597.267.597.597v.598h1.793c.33 0 .598.268.598.598zm0 9.562v1.195c0 .33-.268.598-.598.598h-1.793v.598c0 .33-.267.597-.597.597h-4.184v-4.781h4.184c.33 0 .597.268.597.598v.597h1.793c.33 0 .598.268.598.598zm0 9.563v1.195c0 .33-.268.598-.598.598h-1.793v.597c0 .33-.267.598-.597.598h-4.184v-4.781h4.184c.33 0 .597.267.597.597v.598h1.793c.33 0 .598.268.598.598zm0 9.562v1.195c0 .33-.268.598-.598.598h-1.793v.598c0 .33-.267.597-.597.597h-4.184v-4.781h4.184c.33 0 .597.268.597.598v.597h1.793c.33 0 .598.268.598.598zm-48.012-1.793h4.184v4.781h-4.184a.597.597 0 0 1-.597-.597v-.598h-1.793a.598.598 0 0 1-.598-.598v-1.195c0-.33.268-.598.598-.598h1.793v-.597c0-.33.267-.598.597-.598zm0-9.562h4.184v4.781h-4.184a.597.597 0 0 1-.597-.598v-.597h-1.793a.598.598 0 0 1-.598-.598v-1.195c0-.33.268-.598.598-.598h1.793v-.598c0-.33.267-.597.597-.597zm0-9.563h4.184v4.781h-4.184a.597.597 0 0 1-.597-.597v-.598h-1.793a.598.598 0 0 1-.598-.598v-1.195c0-.33.268-.598.598-.598h1.793v-.597c0-.33.267-.598.597-.598zm0-9.562h4.184v4.781h-4.184a.597.597 0 0 1-.597-.598v-.597h-1.793a.598.598 0 0 1-.598-.598v-1.195c0-.33.268-.598.598-.598h1.793v-.598c0-.33.267-.597.597-.597z" fill="#FFF"/></g></g></g><path d="M315 227h316v199H315z" fill="#8faadc"/><path d="M462.561 254l-6.68-17.496h2.473l5.543 14.73 5.555-14.73h2.46L465.246 254zm11.906-17.496h3.528l4.465 11.906 4.488-11.906h3.527V254h-2.308v-15.363l-4.512 12h-2.379l-4.512-12V254h-2.297z" aria-label="VM" font-size="24" font-family="Calibri,Calibri_MSFontService,sans-serif" fill="#fff"/><path d="M323 348h298v67H323z" fill="#2f5597"/><path d="M443.163 371.504h2.368v7.394l7.851-7.394h3.047l-8.684 8.156 9.305 9.34h-3.117l-8.402-8.426V389h-2.368zm25.676 10.394v1.055h-9.914q.14 2.227 1.336 3.399 1.207 1.16 3.352 1.16 1.242 0 2.402-.305 1.172-.305 2.32-.914v2.039q-1.16.492-2.379.75-1.218.258-2.472.258-3.14 0-4.98-1.828-1.829-1.828-1.829-4.946 0-3.222 1.735-5.109 1.746-1.898 4.699-1.898 2.648 0 4.183 1.71 1.547 1.7 1.547 4.63zm-2.156-.632q-.023-1.77-.996-2.825-.961-1.054-2.555-1.054-1.804 0-2.894 1.02-1.078 1.019-1.243 2.87zm13.3-3.375q-.362-.211-.796-.305-.422-.106-.938-.106-1.828 0-2.812 1.196-.973 1.183-.973 3.41V389h-2.168v-13.125h2.168v2.04q.68-1.196 1.77-1.77 1.09-.586 2.648-.586.223 0 .492.035.27.023.598.082zm12.75 3.187V389h-2.155v-7.852q0-1.863-.727-2.789-.727-.925-2.18-.925-1.746 0-2.754 1.113-1.007 1.113-1.007 3.035V389h-2.168v-13.125h2.168v2.04q.773-1.185 1.816-1.77 1.055-.586 2.426-.586 2.261 0 3.422 1.406 1.16 1.394 1.16 4.113zm15.528.82v1.055h-9.914q.14 2.227 1.336 3.399 1.207 1.16 3.352 1.16 1.242 0 2.402-.305 1.172-.305 2.32-.914v2.039q-1.16.492-2.379.75-1.218.258-2.472.258-3.141 0-4.98-1.828-1.829-1.828-1.829-4.946 0-3.222 1.734-5.109 1.747-1.898 4.7-1.898 2.648 0 4.183 1.71 1.547 1.7 1.547 4.63zm-2.156-.632q-.024-1.77-.996-2.825-.961-1.054-2.555-1.054-1.805 0-2.894 1.02-1.079 1.019-1.243 2.87zm5.695-10.5h2.156V389H511.8z" aria-label="Kernel" font-size="24" font-family="Calibri,Calibri_MSFontService,sans-serif" fill="#fff"/><path d="M323 272h91v67h-91z" fill="#2f5597"/><path d="M357.051 297.836l-3.21 8.707h6.433zm-1.336-2.332h2.684L365.067 313h-2.461l-1.594-4.488h-7.887L351.532 313h-2.496zm13.899 15.527v6.961h-2.168v-18.117h2.168v1.992q.68-1.172 1.71-1.734 1.044-.574 2.485-.574 2.39 0 3.879 1.898 1.5 1.898 1.5 4.992 0 3.094-1.5 4.992-1.488 1.899-3.88 1.899-1.44 0-2.483-.563-1.032-.574-1.711-1.746zm7.336-4.582q0-2.379-.985-3.726-.972-1.36-2.683-1.36-1.711 0-2.696 1.36-.972 1.347-.972 3.726 0 2.38.972 3.738.985 1.348 2.696 1.348 1.71 0 2.683-1.348.985-1.359.985-3.738zm7.898 4.582v6.961h-2.168v-18.117h2.168v1.992q.68-1.172 1.71-1.734 1.044-.574 2.485-.574 2.39 0 3.88 1.898 1.5 1.898 1.5 4.992 0 3.094-1.5 4.992-1.49 1.899-3.88 1.899-1.441 0-2.484-.563-1.031-.574-1.711-1.746zm7.336-4.582q0-2.379-.984-3.726-.973-1.36-2.684-1.36-1.711 0-2.695 1.36-.973 1.347-.973 3.726 0 2.38.973 3.738.984 1.348 2.695 1.348 1.71 0 2.684-1.348.984-1.359.984-3.738z" aria-label="App" font-size="24" font-family="Calibri,Calibri_MSFontService,sans-serif" fill="#fff"/><path d="M426 272h92v67h-92z" fill="#2f5597"/><path d="M460.711 297.836l-3.21 8.707h6.433zm-1.336-2.332h2.684L468.727 313h-2.461l-1.594-4.488h-7.887L455.192 313h-2.496zm13.899 15.527v6.961h-2.168v-18.117h2.168v1.992q.68-1.172 1.71-1.734 1.044-.574 2.485-.574 2.39 0 3.879 1.898 1.5 1.898 1.5 4.992 0 3.094-1.5 4.992-1.488 1.899-3.88 1.899-1.44 0-2.483-.563-1.032-.574-1.711-1.746zm7.336-4.582q0-2.379-.985-3.726-.972-1.36-2.683-1.36-1.711 0-2.696 1.36-.972 1.347-.972 3.726 0 2.38.972 3.738.985 1.348 2.696 1.348 1.71 0 2.683-1.348.985-1.359.985-3.738zm7.898 4.582v6.961h-2.168v-18.117h2.168v1.992q.68-1.172 1.71-1.734 1.044-.574 2.485-.574 2.39 0 3.88 1.898 1.5 1.898 1.5 4.992 0 3.094-1.5 4.992-1.49 1.899-3.88 1.899-1.441 0-2.484-.563-1.031-.574-1.711-1.746zm7.336-4.582q0-2.379-.984-3.726-.973-1.36-2.684-1.36-1.711 0-2.695 1.36-.973 1.347-.973 3.726 0 2.38.973 3.738.984 1.348 2.695 1.348 1.71 0 2.684-1.348.984-1.359.984-3.738z" aria-label="App" font-size="24" font-family="Calibri,Calibri_MSFontService,sans-serif" fill="#fff"/><path d="M530 272h91v67h-91z" fill="#2f5597"/><path d="M564.37 297.836l-3.21 8.707h6.433zm-1.336-2.332h2.684L572.386 313h-2.461l-1.594-4.488h-7.887L558.851 313h-2.496zm13.899 15.527v6.961h-2.168v-18.117h2.168v1.992q.68-1.172 1.71-1.734 1.044-.574 2.485-.574 2.39 0 3.879 1.898 1.5 1.898 1.5 4.992 0 3.094-1.5 4.992-1.488 1.899-3.88 1.899-1.44 0-2.483-.563-1.032-.574-1.711-1.746zm7.336-4.582q0-2.379-.985-3.726-.972-1.36-2.683-1.36-1.711 0-2.696 1.36-.972 1.347-.972 3.726 0 2.38.972 3.738.985 1.348 2.696 1.348 1.71 0 2.683-1.348.985-1.359.985-3.738zm7.898 4.582v6.961h-2.168v-18.117h2.168v1.992q.68-1.172 1.71-1.734 1.044-.574 2.485-.574 2.39 0 3.88 1.898 1.5 1.898 1.5 4.992 0 3.094-1.5 4.992-1.49 1.899-3.88 1.899-1.441 0-2.484-.563-1.031-.574-1.711-1.746zm7.336-4.582q0-2.379-.984-3.726-.973-1.36-2.684-1.36-1.711 0-2.695 1.36-.973 1.347-.973 3.726 0 2.38.973 3.738.984 1.348 2.695 1.348 1.71 0 2.684-1.348.984-1.359.984-3.738z" aria-label="App" font-size="24" font-family="Calibri,Calibri_MSFontService,sans-serif" fill="#fff"/><g clip-path="url(#e)"><g clip-path="url(#f)"><g clip-path="url(#g)"><path d="M351.7 368.8c.094.048.169.163.281.163.103 0 .263-.038.272-.144.019-.134-.178-.22-.3-.277-.16-.067-.366-.096-.516-.01-.037.02-.075.067-.056.105.028.125.216.106.319.163zm-2.053.163c.112 0 .187-.115.281-.163.103-.057.29-.038.328-.153.019-.038-.018-.086-.056-.105-.15-.086-.356-.058-.516.01-.122.057-.318.143-.3.277.01.096.17.143.263.134zm20.728 26.682c-.338-.383-.497-1.11-.675-1.886-.169-.775-.366-1.607-.984-2.143a2.532 2.532 0 0 0-.375-.278 2.063 2.063 0 0 0-.385-.191c.863-2.613.525-5.216-.347-7.57-1.068-2.881-2.934-5.398-4.359-7.12-1.603-2.058-3.16-4.01-3.131-6.891.047-4.393.478-12.556-7.107-12.566-9.6-.02-7.2 9.896-7.303 12.939-.159 2.24-.6 4-2.109 6.192-1.772 2.153-4.266 5.627-5.447 9.255-.562 1.713-.825 3.454-.581 5.1-.61.556-1.069 1.407-1.556 1.934-.394.411-.966.564-1.594.794-.628.23-1.313.574-1.734 1.388-.197.373-.263.775-.263 1.186 0 .374.056.756.113 1.13.112.775.234 1.502.075 1.99-.488 1.378-.554 2.335-.207 3.034.357.699 1.069 1.005 1.885 1.177 1.622.345 3.825.259 5.559 1.196 1.856.996 3.74 1.35 5.24.996 1.088-.249 1.979-.919 2.429-1.933 1.172-.01 2.465-.517 4.528-.632 1.397-.115 3.15.507 5.165.392.057.22.132.44.235.642v.01c.778 1.597 2.231 2.325 3.778 2.2 1.556-.124 3.197-1.052 4.528-2.67 1.275-1.57 3.375-2.22 4.772-3.082.694-.43 1.256-.966 1.303-1.75.038-.786-.412-1.656-1.453-2.843zm-18.403-30.29c.919-2.125 3.206-2.086 4.125-.038.61 1.359.337 2.957-.403 3.866-.15-.077-.553-.249-1.182-.469.104-.115.291-.258.366-.44.45-1.13-.019-2.584-.853-2.613-.684-.048-1.303 1.034-1.106 2.201-.385-.191-.882-.335-1.219-.42a3.885 3.885 0 0 1 .272-2.087zm-3.816-1.1c.947 0 1.95 1.358 1.79 3.205-.327.096-.665.24-.955.44.112-.851-.31-1.923-.9-1.875-.788.067-.92 2.029-.17 2.689.095.077.179-.02-.552.526-1.463-1.397-.985-4.986.787-4.986zm-1.275 5.808c.581-.44 1.275-.957 1.322-1.004.44-.422 1.266-1.36 2.616-1.36.665 0 1.462.22 2.428.852.59.393 1.06.421 2.119.89.787.335 1.284.929.984 1.742-.244.68-1.031 1.378-2.128 1.732-1.04.345-1.856 1.532-3.581 1.426a2.566 2.566 0 0 1-.9-.2c-.75-.336-1.144-.996-1.875-1.436-.807-.46-1.238-.995-1.379-1.464-.13-.47 0-.862.394-1.178zm.31 31.965c-.254 3.36-4.116 3.292-7.06 1.723-2.803-1.512-6.431-.622-7.172-2.096-.225-.45-.225-1.216.244-2.527v-.019c.225-.727.056-1.531-.056-2.287-.113-.747-.169-1.436.084-1.914.328-.641.797-.871 1.388-1.082.965-.354 1.106-.325 1.837-.947.516-.546.89-1.235 1.34-1.723.479-.526.938-.775 1.66-.66.76.115 1.416.65 2.053 1.531l1.838 3.407c.89 1.905 4.04 4.632 3.844 6.594zm-.132-2.478c-.384-.632-.9-1.302-1.35-1.876.666 0 1.332-.21 1.566-.852.216-.593 0-1.426-.694-2.383-1.265-1.742-3.59-3.11-3.59-3.11-1.266-.804-1.979-1.79-2.307-2.862-.328-1.072-.28-2.23-.028-3.369.488-2.191 1.744-4.325 2.55-5.665.216-.163.075.306-.815 1.99-.797 1.541-2.288 5.101-.244 7.886.056-1.98.515-4 1.294-5.885 1.125-2.623 3.496-7.169 3.684-10.786.103.076.431.306.581.392.431.259.76.641 1.181.986 1.163.957 2.672.88 3.975.115.582-.335 1.05-.718 1.491-.862.928-.296 1.669-.823 2.09-1.435.723 2.91 2.41 7.11 3.488 9.159.572 1.09 1.716 3.397 2.213 6.182.31-.01.656.038 1.022.134 1.293-3.416-1.097-7.101-2.185-8.125-.44-.44-.46-.632-.243-.622 1.18 1.072 2.737 3.225 3.3 5.646.262 1.11.309 2.268.037 3.417 1.538.65 3.366 1.713 2.878 3.33-.206-.01-.3 0-.394 0 .3-.966-.365-1.684-2.137-2.498-1.838-.823-3.375-.823-3.59 1.197-1.135.402-1.716 1.407-2.007 2.613-.262 1.071-.337 2.363-.412 3.818-.047.737-.338 1.723-.638 2.775-3.01 2.192-7.19 3.149-10.716.69zm24.132-1.101c-.085 1.608-3.863 1.904-5.925 4.45-1.238 1.503-2.757 2.335-4.088 2.44-1.331.106-2.484-.459-3.16-1.847-.44-1.062-.224-2.21.104-3.474.347-1.359.862-2.756.928-3.885.075-1.455.16-2.728.394-3.704.243-.986.618-1.646 1.284-2.02.028-.018.066-.028.094-.047.075 1.263.684 2.546 1.762 2.823 1.182.316 2.878-.717 3.6-1.56.844-.028 1.472-.086 2.12.488.927.814.665 2.9 1.602 3.982.994 1.11 1.313 1.866 1.285 2.354zm-23.944-27.218c.187.182.44.43.75.68.619.497 1.481 1.014 2.56 1.014 1.087 0 2.109-.565 2.98-1.034a8.33 8.33 0 0 0 1.388-.995c.366-.325.553-.603.29-.632-.262-.028-.243.25-.562.489-.412.306-.91.708-1.303.937-.694.402-1.828.977-2.803.977-.975 0-1.753-.46-2.335-.929-.29-.239-.534-.478-.721-.66-.141-.134-.179-.44-.404-.47-.13-.009-.168.355.16.623z" fill="#FFF"/></g></g></g><path d="M649 227h316v199H649z" fill="#8faadc"/><path d="M797.006 254l-6.68-17.496h2.473l5.543 14.73 5.555-14.73h2.46L799.69 254zm11.906-17.496h3.528l4.465 11.906 4.488-11.906h3.527V254h-2.308v-15.363l-4.512 12h-2.379l-4.512-12V254h-2.297z" aria-label="VM" font-size="24" font-family="Calibri,Calibri_MSFontService,sans-serif" fill="#fff"/><path d="M657 348h299v67H657z" fill="#2f5597"/><path d="M777.608 371.504h2.368v7.394l7.851-7.394h3.047l-8.683 8.156 9.304 9.34h-3.117l-8.402-8.426V389h-2.368zm25.676 10.394v1.055h-9.914q.14 2.227 1.336 3.399 1.207 1.16 3.352 1.16 1.242 0 2.402-.305 1.172-.305 2.32-.914v2.039q-1.16.492-2.379.75-1.218.258-2.472.258-3.14 0-4.98-1.828-1.829-1.828-1.829-4.946 0-3.222 1.735-5.109 1.746-1.898 4.699-1.898 2.648 0 4.183 1.71 1.547 1.7 1.547 4.63zm-2.156-.632q-.023-1.77-.996-2.825-.961-1.054-2.555-1.054-1.804 0-2.894 1.02-1.078 1.019-1.242 2.87zm13.3-3.375q-.362-.211-.796-.305-.422-.106-.938-.106-1.828 0-2.812 1.196-.973 1.183-.973 3.41V389h-2.168v-13.125h2.168v2.04q.68-1.196 1.77-1.77 1.09-.586 2.648-.586.223 0 .492.035.27.023.598.082zm12.75 3.187V389h-2.155v-7.852q0-1.863-.727-2.789-.727-.925-2.18-.925-1.746 0-2.754 1.113-1.007 1.113-1.007 3.035V389h-2.168v-13.125h2.168v2.04q.773-1.185 1.816-1.77 1.055-.586 2.426-.586 2.261 0 3.422 1.406 1.16 1.394 1.16 4.113zm15.528.82v1.055h-9.914q.14 2.227 1.336 3.399 1.207 1.16 3.352 1.16 1.242 0 2.402-.305 1.172-.305 2.32-.914v2.039q-1.16.492-2.379.75-1.218.258-2.472.258-3.141 0-4.98-1.828-1.829-1.828-1.829-4.946 0-3.222 1.734-5.109 1.747-1.898 4.7-1.898 2.648 0 4.183 1.71 1.547 1.7 1.547 4.63zm-2.156-.632q-.024-1.77-.996-2.825-.961-1.054-2.555-1.054-1.805 0-2.894 1.02-1.079 1.019-1.243 2.87zm5.695-10.5h2.156V389h-2.156z" aria-label="Kernel" font-size="24" font-family="Calibri,Calibri_MSFontService,sans-serif" fill="#fff"/><path d="M657 272h91v67h-91z" fill="#2f5597"/><path d="M691.497 297.836l-3.21 8.707h6.433zm-1.336-2.332h2.684L699.513 313h-2.461l-1.594-4.488h-7.887L685.978 313h-2.496zm13.899 15.527v6.961h-2.168v-18.117h2.168v1.992q.68-1.172 1.71-1.734 1.044-.574 2.485-.574 2.39 0 3.879 1.898 1.5 1.898 1.5 4.992 0 3.094-1.5 4.992-1.488 1.899-3.88 1.899-1.44 0-2.483-.563-1.032-.574-1.711-1.746zm7.336-4.582q0-2.379-.985-3.726-.972-1.36-2.683-1.36-1.711 0-2.696 1.36-.972 1.347-.972 3.726 0 2.38.972 3.738.985 1.348 2.696 1.348 1.71 0 2.683-1.348.985-1.359.985-3.738zm7.898 4.582v6.961h-2.168v-18.117h2.168v1.992q.68-1.172 1.71-1.734 1.044-.574 2.485-.574 2.39 0 3.88 1.898 1.5 1.898 1.5 4.992 0 3.094-1.5 4.992-1.49 1.899-3.88 1.899-1.441 0-2.484-.563-1.031-.574-1.711-1.746zm7.336-4.582q0-2.379-.984-3.726-.973-1.36-2.684-1.36-1.711 0-2.695 1.36-.973 1.347-.973 3.726 0 2.38.973 3.738.984 1.348 2.695 1.348 1.71 0 2.684-1.348.984-1.359.984-3.738z" aria-label="App" font-size="24" font-family="Calibri,Calibri_MSFontService,sans-serif" fill="#fff"/><path d="M761 272h91v67h-91z" fill="#2f5597"/><path d="M795.156 297.836l-3.21 8.707h6.433zm-1.336-2.332h2.684L803.172 313h-2.461l-1.594-4.488h-7.887L789.637 313h-2.496zm13.899 15.527v6.961h-2.168v-18.117h2.168v1.992q.68-1.172 1.71-1.734 1.044-.574 2.485-.574 2.39 0 3.879 1.898 1.5 1.898 1.5 4.992 0 3.094-1.5 4.992-1.488 1.899-3.88 1.899-1.44 0-2.483-.563-1.032-.574-1.711-1.746zm7.336-4.582q0-2.379-.985-3.726-.972-1.36-2.683-1.36-1.711 0-2.696 1.36-.972 1.347-.972 3.726 0 2.38.972 3.738.985 1.348 2.696 1.348 1.71 0 2.683-1.348.985-1.359.985-3.738zm7.898 4.582v6.961h-2.168v-18.117h2.168v1.992q.68-1.172 1.71-1.734 1.044-.574 2.485-.574 2.39 0 3.88 1.898 1.5 1.898 1.5 4.992 0 3.094-1.5 4.992-1.49 1.899-3.88 1.899-1.441 0-2.484-.563-1.031-.574-1.711-1.746zm7.336-4.582q0-2.379-.984-3.726-.973-1.36-2.684-1.36-1.711 0-2.695 1.36-.973 1.347-.973 3.726 0 2.38.973 3.738.984 1.348 2.695 1.348 1.71 0 2.684-1.348.984-1.359.984-3.738z" aria-label="App" font-size="24" font-family="Calibri,Calibri_MSFontService,sans-serif" fill="#fff"/><path d="M865 272h91v67h-91z" fill="#2f5597"/><path d="M898.816 297.836l-3.21 8.707h6.433zm-1.336-2.332h2.684L906.832 313h-2.461l-1.594-4.488h-7.887L893.297 313H890.8zm13.899 15.527v6.961h-2.168v-18.117h2.168v1.992q.68-1.172 1.71-1.734 1.044-.574 2.485-.574 2.39 0 3.879 1.898 1.5 1.898 1.5 4.992 0 3.094-1.5 4.992-1.488 1.899-3.88 1.899-1.44 0-2.483-.563-1.032-.574-1.711-1.746zm7.336-4.582q0-2.379-.985-3.726-.972-1.36-2.683-1.36-1.711 0-2.696 1.36-.972 1.347-.972 3.726 0 2.38.972 3.738.985 1.348 2.696 1.348 1.71 0 2.683-1.348.985-1.359.985-3.738zm7.898 4.582v6.961h-2.168v-18.117h2.168v1.992q.68-1.172 1.71-1.734 1.044-.574 2.485-.574 2.39 0 3.88 1.898 1.5 1.898 1.5 4.992 0 3.094-1.5 4.992-1.49 1.899-3.88 1.899-1.441 0-2.484-.563-1.031-.574-1.711-1.746zm7.336-4.582q0-2.379-.984-3.726-.973-1.36-2.684-1.36-1.711 0-2.695 1.36-.973 1.347-.973 3.726 0 2.38.973 3.738.984 1.348 2.695 1.348 1.71 0 2.684-1.348.984-1.359.984-3.738z" aria-label="App" font-size="24" font-family="Calibri,Calibri_MSFontService,sans-serif" fill="#fff"/><g clip-path="url(#h)"><g clip-path="url(#i)"><g clip-path="url(#j)"><path d="M686.193 368.8c.096.048.173.163.288.163.105 0 .269-.038.278-.144.02-.134-.182-.22-.307-.277-.163-.067-.374-.096-.528-.01-.038.02-.077.067-.057.106.028.124.22.105.326.162zm-2.102.163c.115 0 .192-.115.288-.163.105-.057.297-.038.336-.153.02-.038-.02-.086-.058-.105-.153-.086-.365-.058-.528.01-.124.057-.326.143-.307.277.01.096.173.143.269.134zm21.222 26.682c-.346-.383-.509-1.11-.691-1.885-.173-.776-.375-1.608-1.008-2.144a2.591 2.591 0 0 0-.384-.278 2.129 2.129 0 0 0-.394-.191c.883-2.613.538-5.216-.355-7.57-1.094-2.88-3.004-5.398-4.463-7.12-1.641-2.058-3.235-4.01-3.206-6.891.048-4.393.49-12.556-7.275-12.566-9.829-.02-7.372 9.896-7.477 12.94-.164 2.238-.615 4-2.16 6.191-1.814 2.153-4.367 5.627-5.577 9.254-.575 1.714-.844 3.455-.595 5.101-.624.556-1.094 1.407-1.593 1.934-.403.411-.989.564-1.632.794-.643.23-1.343.574-1.775 1.388-.202.373-.27.775-.27 1.186 0 .374.059.756.116 1.13.115.775.24 1.502.077 1.99-.5 1.378-.566 2.336-.211 3.034.364.699 1.094 1.005 1.929 1.177 1.66.345 3.916.259 5.692 1.197 1.9.995 3.83 1.349 5.365.995 1.114-.249 2.025-.919 2.486-1.933 1.2-.01 2.524-.517 4.636-.632 1.43-.115 3.225.507 5.289.392.057.22.134.44.24.642v.01c.796 1.597 2.284 2.325 3.868 2.2 1.593-.124 3.273-1.052 4.636-2.67 1.305-1.57 3.455-2.22 4.885-3.081.71-.431 1.286-.967 1.334-1.752.039-.785-.422-1.655-1.487-2.842zm-18.842-30.29c.941-2.125 3.283-2.086 4.224-.038.623 1.359.345 2.957-.413 3.866-.154-.077-.566-.249-1.21-.469.106-.115.298-.258.375-.44.46-1.13-.02-2.584-.874-2.613-.7-.048-1.334 1.034-1.132 2.201-.394-.191-.902-.335-1.248-.42a3.8 3.8 0 0 1 .278-2.087zm-3.906-1.1c.97 0 1.996 1.358 1.833 3.205-.336.096-.681.24-.979.44.115-.851-.317-1.923-.921-1.875-.807.067-.941 2.029-.173 2.69.096.076.182-.02-.566.525-1.498-1.397-1.008-4.986.806-4.986zm-1.306 5.809c.596-.44 1.306-.958 1.354-1.005.45-.422 1.296-1.36 2.678-1.36.681 0 1.497.22 2.486.852.604.393 1.084.422 2.169.89.806.335 1.315.929 1.008 1.742-.25.68-1.056 1.378-2.18 1.732-1.064.345-1.9 1.532-3.666 1.426a2.678 2.678 0 0 1-.921-.2c-.768-.336-1.171-.996-1.92-1.436-.825-.46-1.267-.995-1.41-1.464-.135-.47 0-.862.402-1.178zm.317 31.964c-.259 3.36-4.213 3.292-7.227 1.723-2.87-1.512-6.585-.622-7.343-2.096-.23-.45-.23-1.215.25-2.527v-.019c.23-.727.057-1.53-.058-2.287-.115-.746-.173-1.436.086-1.914.336-.641.816-.87 1.42-1.081.99-.355 1.134-.326 1.882-.948.528-.545.912-1.235 1.373-1.723.49-.526.96-.775 1.699-.66.777.115 1.449.65 2.102 1.531l1.88 3.407c.913 1.905 4.138 4.632 3.936 6.594zm-.134-2.478c-.394-.632-.922-1.302-1.382-1.876.681 0 1.363-.21 1.603-.852.22-.593 0-1.426-.71-2.383-1.296-1.742-3.677-3.11-3.677-3.11-1.296-.804-2.025-1.79-2.361-2.862-.336-1.072-.288-2.23-.029-3.369.5-2.191 1.785-4.325 2.61-5.665.222-.163.078.306-.834 1.99-.816 1.541-2.342 5.101-.25 7.886.058-1.98.528-4 1.325-5.885 1.152-2.623 3.58-7.169 3.772-10.786.106.076.442.306.595.392.442.259.778.641 1.21.986 1.19.957 2.735.88 4.07.115.594-.335 1.074-.718 1.525-.862.95-.296 1.709-.823 2.14-1.435.74 2.91 2.467 7.11 3.571 9.159.586 1.09 1.757 3.397 2.265 6.182.317-.01.672.038 1.047.134 1.324-3.416-1.123-7.101-2.237-8.125-.45-.44-.47-.632-.25-.622 1.21 1.072 2.803 3.225 3.38 5.646.268 1.11.316 2.269.038 3.417 1.574.65 3.445 1.713 2.946 3.33-.21-.01-.307 0-.403 0 .307-.966-.374-1.684-2.188-2.497-1.881-.823-3.456-.823-3.676 1.196-1.162.402-1.757 1.407-2.054 2.613-.27 1.071-.346 2.363-.423 3.818-.048.737-.345 1.723-.652 2.775-3.081 2.192-7.362 3.15-10.971.69zm24.706-1.101c-.087 1.608-3.955 1.904-6.066 4.45-1.267 1.503-2.822 2.335-4.185 2.44-1.363.106-2.544-.459-3.235-1.846-.451-1.063-.23-2.211.106-3.474.355-1.36.883-2.757.95-3.886.077-1.455.163-2.727.403-3.704.25-.985.634-1.646 1.315-2.019.029-.02.067-.029.096-.048.077 1.263.7 2.546 1.805 2.823 1.209.316 2.946-.717 3.685-1.56.864-.028 1.507-.086 2.17.489.95.813.681 2.9 1.64 3.98 1.018 1.11 1.344 1.867 1.316 2.355zm-24.514-27.218c.192.182.45.43.768.68.633.497 1.516 1.014 2.62 1.014 1.113 0 2.16-.565 3.052-1.034a8.529 8.529 0 0 0 1.42-.995c.375-.325.567-.603.298-.631-.268-.03-.25.248-.576.488-.422.306-.93.708-1.334.937-.71.402-1.871.977-2.87.977-.998 0-1.794-.46-2.39-.929-.297-.239-.547-.478-.739-.66-.144-.134-.182-.44-.412-.469-.135-.01-.173.354.163.622z" fill="#FFF"/></g></g></g><path d="M313 442h652v66H313z" fill="#2f5597"/><path d="M610.047 465.504h2.368v7.394l7.851-7.394h3.047l-8.683 8.156 9.304 9.34h-3.117l-8.402-8.426V483h-2.368zm25.676 10.394v1.055h-9.914q.14 2.227 1.336 3.399 1.207 1.16 3.352 1.16 1.242 0 2.402-.305 1.172-.305 2.32-.914v2.039q-1.16.492-2.379.75-1.218.258-2.472.258-3.14 0-4.98-1.828-1.829-1.828-1.829-4.946 0-3.222 1.735-5.109 1.746-1.898 4.699-1.898 2.648 0 4.183 1.71 1.547 1.7 1.547 4.63zm-2.156-.632q-.023-1.77-.996-2.825-.961-1.054-2.555-1.054-1.804 0-2.894 1.02-1.078 1.019-1.242 2.87zm13.3-3.375q-.362-.211-.796-.305-.422-.106-.938-.106-1.828 0-2.812 1.196-.973 1.183-.973 3.41V483h-2.168v-13.125h2.168v2.04q.68-1.196 1.77-1.77 1.09-.586 2.648-.586.223 0 .492.035.27.023.598.082zm12.75 3.187V483h-2.155v-7.852q0-1.863-.727-2.789-.727-.925-2.18-.925-1.746 0-2.754 1.113-1.007 1.113-1.007 3.035V483h-2.168v-13.125h2.168v2.04q.773-1.185 1.816-1.77 1.055-.586 2.426-.586 2.261 0 3.422 1.406 1.16 1.394 1.16 4.113zm15.528.82v1.055h-9.914q.14 2.227 1.336 3.399 1.207 1.16 3.352 1.16 1.242 0 2.402-.305 1.172-.305 2.32-.914v2.039q-1.16.492-2.379.75-1.218.258-2.472.258-3.141 0-4.98-1.828-1.829-1.828-1.829-4.946 0-3.222 1.734-5.109 1.747-1.898 4.7-1.898 2.648 0 4.183 1.71 1.547 1.7 1.547 4.63zm-2.156-.632q-.024-1.77-.996-2.825-.961-1.054-2.555-1.054-1.805 0-2.894 1.02-1.079 1.019-1.243 2.87zm5.695-10.5h2.156V483h-2.156z" aria-label="Kernel" font-size="24" font-family="Calibri,Calibri_MSFontService,sans-serif" fill="#fff"/><g clip-path="url(#k)"><g clip-path="url(#l)"><g clip-path="url(#m)"><path d="M346.193 462.8c.096.048.173.163.288.163.105 0 .269-.038.278-.144.02-.134-.182-.22-.307-.277-.163-.067-.374-.096-.528-.01-.038.02-.077.067-.057.106.028.124.22.105.326.162zm-2.102.163c.115 0 .192-.115.288-.163.105-.057.297-.038.336-.153.02-.038-.02-.086-.058-.105-.153-.086-.365-.058-.528.01-.124.057-.326.143-.307.277.01.096.173.143.269.134zm21.222 26.682c-.346-.383-.509-1.11-.691-1.885-.173-.776-.375-1.608-1.008-2.144a2.591 2.591 0 0 0-.384-.278 2.129 2.129 0 0 0-.394-.191c.883-2.613.538-5.216-.355-7.57-1.094-2.88-3.004-5.398-4.463-7.12-1.641-2.058-3.235-4.01-3.206-6.891.048-4.393.49-12.556-7.275-12.566-9.829-.02-7.372 9.896-7.477 12.94-.164 2.238-.615 4-2.16 6.191-1.814 2.153-4.367 5.627-5.577 9.254-.575 1.714-.844 3.455-.595 5.101-.624.556-1.094 1.407-1.593 1.934-.403.411-.989.564-1.632.794-.643.23-1.343.574-1.775 1.388-.202.373-.27.775-.27 1.186 0 .374.059.756.116 1.13.115.775.24 1.502.077 1.99-.5 1.378-.566 2.336-.211 3.034.364.699 1.094 1.005 1.929 1.177 1.66.345 3.916.259 5.692 1.197 1.9.995 3.83 1.349 5.365.995 1.114-.249 2.025-.919 2.486-1.933 1.2-.01 2.524-.517 4.636-.632 1.43-.115 3.225.507 5.289.392.057.22.134.44.24.642v.01c.796 1.597 2.284 2.325 3.868 2.2 1.593-.124 3.273-1.052 4.636-2.67 1.305-1.57 3.455-2.22 4.885-3.081.71-.431 1.286-.967 1.334-1.752.039-.785-.422-1.655-1.487-2.842zm-18.842-30.29c.941-2.125 3.283-2.086 4.224-.038.623 1.359.345 2.957-.413 3.866-.154-.077-.566-.249-1.21-.469.106-.115.298-.258.375-.44.46-1.13-.02-2.584-.874-2.613-.7-.048-1.334 1.034-1.132 2.201-.394-.191-.902-.335-1.248-.42a3.8 3.8 0 0 1 .278-2.087zm-3.906-1.1c.97 0 1.996 1.358 1.833 3.205-.336.096-.681.24-.979.44.115-.851-.317-1.923-.921-1.875-.807.067-.941 2.029-.173 2.69.096.076.182-.02-.566.525-1.498-1.397-1.008-4.986.806-4.986zm-1.306 5.809c.596-.44 1.306-.958 1.354-1.005.45-.422 1.296-1.36 2.678-1.36.681 0 1.497.22 2.486.852.604.393 1.084.422 2.169.89.806.335 1.315.929 1.008 1.742-.25.68-1.056 1.378-2.18 1.732-1.064.345-1.9 1.532-3.666 1.426a2.678 2.678 0 0 1-.921-.2c-.768-.336-1.171-.996-1.92-1.436-.825-.46-1.267-.995-1.41-1.464-.135-.47 0-.862.402-1.178zm.317 31.964c-.259 3.36-4.213 3.292-7.227 1.723-2.87-1.512-6.585-.622-7.343-2.096-.23-.45-.23-1.215.25-2.527v-.019c.23-.727.057-1.53-.058-2.287-.115-.746-.173-1.436.086-1.914.336-.641.816-.87 1.42-1.081.99-.355 1.134-.326 1.882-.948.528-.545.912-1.235 1.373-1.723.49-.526.96-.775 1.699-.66.777.115 1.449.65 2.102 1.531l1.88 3.407c.913 1.905 4.138 4.632 3.936 6.594zm-.134-2.478c-.394-.632-.922-1.302-1.382-1.876.681 0 1.363-.21 1.603-.852.22-.593 0-1.426-.71-2.383-1.296-1.742-3.677-3.11-3.677-3.11-1.296-.804-2.025-1.79-2.361-2.862-.336-1.072-.288-2.23-.029-3.369.5-2.191 1.785-4.325 2.61-5.665.222-.163.078.306-.834 1.99-.816 1.541-2.342 5.101-.25 7.886.058-1.98.528-4 1.325-5.885 1.152-2.623 3.58-7.169 3.772-10.786.106.076.442.306.595.392.442.259.778.641 1.21.986 1.19.957 2.735.88 4.07.115.594-.335 1.074-.718 1.525-.862.95-.296 1.709-.823 2.14-1.435.74 2.91 2.467 7.11 3.571 9.159.586 1.09 1.757 3.397 2.265 6.182.317-.01.672.038 1.047.134 1.324-3.416-1.123-7.101-2.237-8.125-.45-.44-.47-.632-.25-.622 1.21 1.072 2.803 3.225 3.38 5.646.268 1.11.316 2.269.038 3.417 1.574.65 3.445 1.713 2.946 3.33-.21-.01-.307 0-.403 0 .307-.966-.374-1.684-2.188-2.497-1.881-.823-3.456-.823-3.676 1.196-1.162.402-1.757 1.407-2.054 2.613-.27 1.071-.346 2.363-.423 3.818-.048.737-.345 1.723-.652 2.775-3.081 2.192-7.362 3.15-10.971.69zm24.706-1.101c-.087 1.608-3.955 1.904-6.066 4.45-1.267 1.503-2.822 2.335-4.185 2.44-1.363.106-2.544-.459-3.235-1.846-.451-1.063-.23-2.211.106-3.474.355-1.36.883-2.757.95-3.886.077-1.455.163-2.727.403-3.704.25-.985.634-1.646 1.315-2.019.029-.02.067-.029.096-.048.077 1.263.7 2.546 1.805 2.823 1.209.316 2.946-.717 3.685-1.56.864-.028 1.507-.086 2.17.489.95.813.681 2.9 1.64 3.98 1.018 1.11 1.344 1.867 1.316 2.355zm-24.514-27.218c.192.182.45.43.768.68.633.497 1.516 1.014 2.62 1.014 1.113 0 2.16-.565 3.052-1.034a8.529 8.529 0 0 0 1.42-.995c.375-.325.567-.603.298-.631-.268-.03-.25.248-.576.488-.422.306-.93.708-1.334.937-.71.402-1.871.977-2.87.977-.998 0-1.794-.46-2.39-.929-.297-.239-.547-.478-.739-.66-.144-.134-.182-.44-.412-.469-.135-.01-.173.354.163.622z" fill="#FFF"/></g></g></g></g></svg>