<svg width="694" height="321" overflow="hidden" xmlns="http://www.w3.org/2000/svg"><defs><clipPath id="a"><path d="M293 214h694v321H293z" fill-rule="evenodd" clip-rule="evenodd"/></clipPath><clipPath id="b"><path d="M323 451h51v51h-51z" fill-rule="evenodd" clip-rule="evenodd"/></clipPath><clipPath id="c"><path d="M323 451h51v51h-51z" fill-rule="evenodd" clip-rule="evenodd"/></clipPath><clipPath id="d"><path d="M323 451h51v51h-51z" fill-rule="evenodd" clip-rule="evenodd"/></clipPath><clipPath id="e"><path d="M328 376h42v48h-42z" fill-rule="evenodd" clip-rule="evenodd"/></clipPath><clipPath id="f"><path d="M328 376h42v48h-42z" fill-rule="evenodd" clip-rule="evenodd"/></clipPath><clipPath id="g"><path d="M328 376h42v48h-42z" fill-rule="evenodd" clip-rule="evenodd"/></clipPath></defs><g clip-path="url(#a)" transform="translate(-293 -214)"><path d="M294 214h692v320H294z" fill="#b4c7e7"/><path d="M315 443h652v67H315z" fill="#2f5597"/><path d="M595.583 466.504h2.368v7.172h8.601v-7.172h2.367V484h-2.367v-8.332h-8.601V484h-2.368zm23.918 10.898q-2.613 0-3.62.598-1.008.598-1.008 2.04 0 1.148.75 1.827.761.668 2.062.668 1.793 0 2.871-1.265 1.09-1.278 1.09-3.387v-.48zm4.301-.89V484h-2.156v-1.992q-.738 1.195-1.84 1.77-1.101.562-2.695.562-2.016 0-3.211-1.125-1.184-1.137-1.184-3.035 0-2.215 1.477-3.34 1.488-1.125 4.43-1.125h3.023v-.211q0-1.488-.984-2.297-.973-.82-2.743-.82-1.125 0-2.191.27-1.066.269-2.05.808v-1.992q1.183-.457 2.296-.68 1.113-.234 2.168-.234 2.848 0 4.254 1.476 1.406 1.477 1.406 4.477zm12.047-3.621q-.363-.211-.797-.305-.422-.106-.937-.106-1.828 0-2.813 1.196-.972 1.183-.972 3.41V484h-2.168v-13.125h2.168v2.04q.68-1.196 1.77-1.77 1.089-.586 2.648-.586.222 0 .492.035.27.023.597.082zm10.477-.024v-7.101h2.156V484h-2.156v-1.969q-.68 1.172-1.723 1.746-1.031.563-2.484.563-2.38 0-3.88-1.899-1.488-1.898-1.488-4.992 0-3.094 1.489-4.992 1.5-1.898 3.879-1.898 1.453 0 2.484.574 1.043.562 1.723 1.734zm-7.348 4.582q0 2.38.973 3.739.984 1.347 2.695 1.347 1.71 0 2.695-1.347.985-1.36.985-3.739 0-2.379-.985-3.726-.984-1.36-2.695-1.36-1.711 0-2.695 1.36-.973 1.347-.973 3.726zm12.691-6.574h2.157l2.695 10.242 2.684-10.242h2.543l2.695 10.242 2.683-10.242h2.157L665.849 484h-2.543l-2.824-10.758L657.646 484h-2.543zm26.848 6.527q-2.613 0-3.621.598t-1.008 2.04q0 1.148.75 1.827.762.668 2.063.668 1.793 0 2.87-1.265 1.09-1.278 1.09-3.387v-.48zm4.3-.89V484h-2.155v-1.992q-.739 1.195-1.84 1.77-1.102.562-2.696.562-2.015 0-3.21-1.125-1.184-1.137-1.184-3.035 0-2.215 1.476-3.34 1.489-1.125 4.43-1.125h3.024v-.211q0-1.488-.985-2.297-.972-.82-2.742-.82-1.125 0-2.191.27-1.067.269-2.051.808v-1.992q1.183-.457 2.297-.68 1.113-.234 2.168-.234 2.847 0 4.254 1.476 1.406 1.477 1.406 4.477zm12.048-3.621q-.364-.211-.797-.305-.422-.106-.938-.106-1.828 0-2.812 1.196-.973 1.183-.973 3.41V484h-2.168v-13.125h2.168v2.04q.68-1.196 1.77-1.77 1.09-.586 2.648-.586.223 0 .492.035.27.023.598.082zm12.96 4.007v1.055h-9.913q.14 2.227 1.336 3.399 1.207 1.16 3.351 1.16 1.242 0 2.402-.305 1.172-.305 2.32-.914v2.039q-1.16.492-2.378.75-1.219.258-2.473.258-3.14 0-4.98-1.828-1.828-1.828-1.828-4.946 0-3.222 1.734-5.109 1.746-1.898 4.7-1.898 2.648 0 4.183 1.71 1.547 1.7 1.547 4.63zm-2.156-.632q-.023-1.77-.996-2.825-.96-1.054-2.554-1.054-1.805 0-2.895 1.02-1.078 1.019-1.242 2.87z" aria-label="Hardware" font-size="24" font-family="Calibri,Calibri_MSFontService,sans-serif" fill="#fff"/><path d="M315 368h652v66H315z" fill="#2f5597"/><path d="M612.096 391.504h2.368v7.394l7.851-7.394h3.047l-8.683 8.156 9.304 9.34h-3.117l-8.402-8.426V409h-2.368zm25.676 10.394v1.055h-9.914q.14 2.227 1.336 3.399 1.207 1.16 3.352 1.16 1.242 0 2.402-.305 1.172-.305 2.32-.914v2.039q-1.16.492-2.379.75-1.218.258-2.472.258-3.14 0-4.98-1.828-1.829-1.828-1.829-4.946 0-3.222 1.735-5.109 1.746-1.898 4.699-1.898 2.648 0 4.183 1.71 1.547 1.7 1.547 4.63zm-2.156-.632q-.023-1.77-.996-2.825-.961-1.054-2.555-1.054-1.804 0-2.894 1.02-1.078 1.019-1.243 2.87zm13.3-3.375q-.363-.211-.796-.305-.422-.106-.938-.106-1.828 0-2.812 1.196-.973 1.183-.973 3.41V409h-2.168v-13.125h2.168v2.04q.68-1.196 1.77-1.77 1.09-.586 2.648-.586.223 0 .492.035.27.023.598.082zm12.75 3.187V409h-2.155v-7.852q0-1.863-.727-2.789-.727-.925-2.18-.925-1.746 0-2.754 1.113-1.007 1.113-1.007 3.035V409h-2.168v-13.125h2.168v2.04q.773-1.185 1.816-1.77 1.055-.586 2.426-.586 2.261 0 3.422 1.406 1.16 1.394 1.16 4.113zm15.528.82v1.055h-9.914q.14 2.227 1.336 3.399 1.207 1.16 3.352 1.16 1.242 0 2.402-.305 1.172-.305 2.32-.914v2.039q-1.16.492-2.379.75-1.218.258-2.472.258-3.141 0-4.98-1.828-1.829-1.828-1.829-4.946 0-3.222 1.734-5.109 1.747-1.898 4.7-1.898 2.648 0 4.183 1.71 1.547 1.7 1.547 4.63zm-2.156-.632q-.024-1.77-.996-2.825-.961-1.054-2.555-1.054-1.805 0-2.894 1.02-1.079 1.019-1.243 2.87zm5.695-10.5h2.156V409h-2.156z" aria-label="Kernel" font-size="24" font-family="Calibri,Calibri_MSFontService,sans-serif" fill="#fff"/><path d="M315 239h113v113H315z" fill="#8faadc"/><path d="M344.464 250.234v1.664q-.797-.742-1.703-1.109-.899-.367-1.915-.367-2 0-3.062 1.226-1.063 1.22-1.063 3.532 0 2.304 1.063 3.53 1.063 1.22 3.063 1.22 1.015 0 1.914-.368.906-.367 1.703-1.109v1.649q-.828.562-1.758.843-.922.282-1.953.282-2.649 0-4.172-1.618-1.524-1.625-1.524-4.43 0-2.812 1.524-4.429 1.523-1.625 4.172-1.625 1.047 0 1.969.281.93.274 1.742.828zm5.765 3.024q-1.156 0-1.828.906-.672.899-.672 2.469 0 1.57.664 2.476.672.899 1.836.899 1.149 0 1.82-.906.673-.907.673-2.47 0-1.554-.672-2.46-.672-.914-1.82-.914zm0-1.219q1.875 0 2.946 1.219 1.07 1.219 1.07 3.375 0 2.148-1.07 3.375-1.07 1.219-2.946 1.219-1.882 0-2.953-1.22-1.062-1.226-1.062-3.374 0-2.156 1.062-3.375 1.07-1.219 2.953-1.219zm13.672 3.68V261h-1.437v-5.234q0-1.243-.485-1.86-.484-.617-1.453-.617-1.164 0-1.836.742-.672.742-.672 2.024V261h-1.445v-8.75h1.445v1.36q.516-.79 1.211-1.18.703-.39 1.618-.39 1.507 0 2.28.937.774.93.774 2.742zm4.29-5.953v2.484h2.96v1.117h-2.96v4.75q0 1.07.288 1.375.297.305 1.196.305h1.476V261h-1.476q-1.664 0-2.297-.617-.633-.625-.633-2.266v-4.75h-1.055v-1.117h1.055v-2.484zm8.827 6.836q-1.742 0-2.414.398-.672.398-.672 1.36 0 .765.5 1.218.508.445 1.375.445 1.196 0 1.914-.843.727-.852.727-2.258v-.32zm2.868-.594V261h-1.438v-1.328q-.492.797-1.226 1.18-.735.375-1.797.375-1.344 0-2.141-.75-.79-.758-.79-2.024 0-1.476.985-2.226.993-.75 2.953-.75h2.016v-.141q0-.992-.656-1.531-.649-.547-1.828-.547-.75 0-1.461.18-.711.18-1.367.539v-1.329q.789-.304 1.53-.453.743-.156 1.446-.156 1.899 0 2.836.984.938.985.938 2.985zm2.96-3.758h1.438V261h-1.438zm0-3.406h1.438v1.82h-1.438zm11.72 6.875V261h-1.438v-5.234q0-1.243-.485-1.86-.484-.617-1.453-.617-1.164 0-1.836.742-.672.742-.672 2.024V261h-1.445v-8.75h1.445v1.36q.516-.79 1.211-1.18.704-.39 1.618-.39 1.507 0 2.28.937.774.93.774 2.742zm10.35.547v.703h-6.609q.094 1.484.891 2.265.805.774 2.234.774.829 0 1.602-.203.781-.203 1.547-.61v1.36q-.774.328-1.586.5-.813.172-1.649.172-2.093 0-3.32-1.22-1.219-1.218-1.219-3.296 0-2.149 1.157-3.406 1.164-1.266 3.132-1.266 1.766 0 2.79 1.14 1.03 1.133 1.03 3.087zm-1.437-.422q-.015-1.18-.664-1.883-.64-.703-1.703-.703-1.203 0-1.93.68-.718.68-.828 1.914zm8.868-2.25q-.243-.14-.532-.203-.281-.07-.625-.07-1.219 0-1.875.796-.648.79-.648 2.274V261h-1.445v-8.75h1.445v1.36q.453-.798 1.18-1.18.726-.39 1.765-.39.149 0 .328.022.18.016.399.055z" aria-label="Container" font-size="16" font-family="Calibri,Calibri_MSFontService,sans-serif" fill="#fff"/><path d="M325 274h91v67h-91z" fill="#2f5597"/><path d="M357.094 299.836l-3.21 8.707h6.433zm-1.336-2.332h2.684L365.11 315h-2.461l-1.594-4.488h-7.887L351.575 315h-2.497zm13.899 15.527v6.961h-2.168v-18.117h2.168v1.992q.68-1.172 1.71-1.734 1.044-.574 2.485-.574 2.39 0 3.879 1.898 1.5 1.898 1.5 4.992 0 3.094-1.5 4.992-1.488 1.899-3.88 1.899-1.44 0-2.483-.563-1.032-.574-1.711-1.746zm7.336-4.582q0-2.379-.985-3.726-.972-1.36-2.683-1.36-1.711 0-2.696 1.36-.972 1.347-.972 3.726 0 2.38.972 3.739.985 1.347 2.696 1.347 1.71 0 2.683-1.348.985-1.359.985-3.738zm7.898 4.582v6.961h-2.168v-18.117h2.168v1.992q.68-1.172 1.71-1.734 1.044-.574 2.485-.574 2.39 0 3.88 1.898 1.5 1.898 1.5 4.992 0 3.094-1.5 4.992-1.49 1.899-3.88 1.899-1.441 0-2.484-.563-1.031-.574-1.711-1.746zm7.336-4.582q0-2.379-.984-3.726-.973-1.36-2.684-1.36-1.711 0-2.695 1.36-.973 1.347-.973 3.726 0 2.38.973 3.739.984 1.347 2.695 1.347 1.71 0 2.684-1.348.984-1.359.984-3.738z" aria-label="App" font-size="24" font-family="Calibri,Calibri_MSFontService,sans-serif" fill="#fff"/><path d="M449 239h113v113H449z" fill="#8faadc"/><path d="M478.554 250.234v1.664q-.797-.742-1.703-1.109-.899-.367-1.914-.367-2 0-3.063 1.226-1.063 1.22-1.063 3.532 0 2.304 1.063 3.53 1.063 1.22 3.063 1.22 1.015 0 1.914-.368.906-.367 1.703-1.109v1.649q-.828.562-1.758.843-.922.282-1.953.282-2.649 0-4.172-1.618-1.524-1.625-1.524-4.43 0-2.812 1.524-4.429 1.523-1.625 4.172-1.625 1.047 0 1.969.281.93.274 1.742.828zm5.765 3.024q-1.156 0-1.828.906-.672.899-.672 2.469 0 1.57.664 2.476.672.899 1.836.899 1.149 0 1.82-.906.673-.907.673-2.47 0-1.554-.672-2.46-.672-.914-1.82-.914zm0-1.219q1.875 0 2.946 1.219 1.07 1.219 1.07 3.375 0 2.148-1.07 3.375-1.07 1.219-2.946 1.219-1.882 0-2.953-1.22-1.062-1.226-1.062-3.374 0-2.156 1.062-3.375 1.07-1.219 2.953-1.219zm13.672 3.68V261h-1.437v-5.234q0-1.243-.485-1.86-.484-.617-1.453-.617-1.164 0-1.836.742-.672.742-.672 2.024V261h-1.445v-8.75h1.445v1.36q.516-.79 1.211-1.18.703-.39 1.618-.39 1.507 0 2.28.937.774.93.774 2.742zm4.29-5.953v2.484h2.96v1.117h-2.96v4.75q0 1.07.288 1.375.297.305 1.196.305h1.476V261h-1.476q-1.664 0-2.297-.617-.633-.625-.633-2.266v-4.75h-1.055v-1.117h1.055v-2.484zm8.827 6.836q-1.742 0-2.414.398-.672.398-.672 1.36 0 .765.5 1.218.508.445 1.375.445 1.196 0 1.915-.843.726-.852.726-2.258v-.32zm2.868-.594V261h-1.438v-1.328q-.492.797-1.227 1.18-.734.375-1.796.375-1.344 0-2.141-.75-.79-.758-.79-2.024 0-1.476.985-2.226.992-.75 2.953-.75h2.016v-.141q0-.992-.656-1.531-.649-.547-1.828-.547-.75 0-1.461.18-.711.18-1.367.539v-1.329q.789-.304 1.53-.453.743-.156 1.446-.156 1.899 0 2.836.984.938.985.938 2.985zm2.96-3.758h1.438V261h-1.438zm0-3.406h1.438v1.82h-1.438zm11.72 6.875V261h-1.438v-5.234q0-1.243-.485-1.86-.484-.617-1.453-.617-1.164 0-1.836.742-.672.742-.672 2.024V261h-1.445v-8.75h1.445v1.36q.516-.79 1.211-1.18.704-.39 1.618-.39 1.507 0 2.28.937.774.93.774 2.742zm10.35.547v.703h-6.609q.094 1.484.891 2.265.805.774 2.234.774.829 0 1.602-.203.781-.203 1.547-.61v1.36q-.774.328-1.586.5-.813.172-1.649.172-2.093 0-3.32-1.22-1.219-1.218-1.219-3.296 0-2.149 1.157-3.406 1.164-1.266 3.132-1.266 1.766 0 2.79 1.14 1.03 1.133 1.03 3.087zm-1.437-.422q-.015-1.18-.664-1.883-.64-.703-1.703-.703-1.203 0-1.93.68-.718.68-.828 1.914zm8.868-2.25q-.243-.14-.532-.203-.281-.07-.625-.07-1.218 0-1.875.796-.648.79-.648 2.274V261h-1.445v-8.75h1.445v1.36q.453-.798 1.18-1.18.726-.39 1.765-.39.149 0 .328.022.18.016.399.055z" aria-label="Container" font-size="16" font-family="Calibri,Calibri_MSFontService,sans-serif" fill="#fff"/><path d="M459 274h91v67h-91z" fill="#2f5597"/><path d="M491.184 299.836l-3.21 8.707h6.433zm-1.336-2.332h2.684L499.2 315h-2.461l-1.594-4.488h-7.887L485.665 315h-2.497zm13.899 15.527v6.961h-2.168v-18.117h2.168v1.992q.68-1.172 1.71-1.734 1.044-.574 2.485-.574 2.39 0 3.879 1.898 1.5 1.898 1.5 4.992 0 3.094-1.5 4.992-1.488 1.899-3.88 1.899-1.44 0-2.483-.563-1.032-.574-1.711-1.746zm7.336-4.582q0-2.379-.985-3.726-.972-1.36-2.683-1.36-1.711 0-2.696 1.36-.972 1.347-.972 3.726 0 2.38.972 3.739.985 1.347 2.696 1.347 1.71 0 2.683-1.348.985-1.359.985-3.738zm7.898 4.582v6.961h-2.168v-18.117h2.168v1.992q.68-1.172 1.71-1.734 1.044-.574 2.485-.574 2.39 0 3.88 1.898 1.5 1.898 1.5 4.992 0 3.094-1.5 4.992-1.49 1.899-3.88 1.899-1.441 0-2.484-.563-1.031-.574-1.711-1.746zm7.336-4.582q0-2.379-.984-3.726-.973-1.36-2.684-1.36-1.711 0-2.695 1.36-.973 1.347-.973 3.726 0 2.38.973 3.739.984 1.347 2.695 1.347 1.71 0 2.684-1.348.984-1.359.984-3.738z" aria-label="App" font-size="24" font-family="Calibri,Calibri_MSFontService,sans-serif" fill="#fff"/><path d="M583 239h113v113H583z" fill="#8faadc"/><path d="M612.644 250.234v1.664q-.797-.742-1.703-1.109-.899-.367-1.914-.367-2 0-3.063 1.226-1.063 1.22-1.063 3.532 0 2.304 1.063 3.53 1.063 1.22 3.063 1.22 1.015 0 1.914-.368.906-.367 1.703-1.109v1.649q-.828.562-1.758.843-.922.282-1.953.282-2.649 0-4.172-1.618-1.524-1.625-1.524-4.43 0-2.812 1.524-4.429 1.523-1.625 4.172-1.625 1.047 0 1.969.281.93.274 1.742.828zm5.765 3.024q-1.156 0-1.828.906-.672.899-.672 2.469 0 1.57.664 2.476.672.899 1.836.899 1.149 0 1.82-.906.673-.907.673-2.47 0-1.554-.672-2.46-.672-.914-1.82-.914zm0-1.219q1.875 0 2.946 1.219 1.07 1.219 1.07 3.375 0 2.148-1.07 3.375-1.07 1.219-2.946 1.219-1.882 0-2.953-1.22-1.062-1.226-1.062-3.374 0-2.156 1.062-3.375 1.07-1.219 2.953-1.219zm13.672 3.68V261h-1.437v-5.234q0-1.243-.485-1.86-.484-.617-1.453-.617-1.164 0-1.836.742-.672.742-.672 2.024V261h-1.445v-8.75h1.445v1.36q.516-.79 1.211-1.18.703-.39 1.618-.39 1.507 0 2.28.937.774.93.774 2.742zm4.29-5.953v2.484h2.96v1.117h-2.96v4.75q0 1.07.288 1.375.297.305 1.196.305h1.476V261h-1.476q-1.664 0-2.297-.617-.633-.625-.633-2.266v-4.75h-1.055v-1.117h1.055v-2.484zm8.827 6.836q-1.742 0-2.414.398-.672.398-.672 1.36 0 .765.5 1.218.508.445 1.375.445 1.196 0 1.915-.843.726-.852.726-2.258v-.32zm2.868-.594V261h-1.438v-1.328q-.492.797-1.226 1.18-.735.375-1.797.375-1.344 0-2.141-.75-.79-.758-.79-2.024 0-1.476.985-2.226.993-.75 2.953-.75h2.016v-.141q0-.992-.656-1.531-.649-.547-1.828-.547-.75 0-1.461.18-.711.18-1.367.539v-1.329q.789-.304 1.53-.453.743-.156 1.446-.156 1.899 0 2.836.984.938.985.938 2.985zm2.96-3.758h1.438V261h-1.437zm0-3.406h1.438v1.82h-1.437zm11.72 6.875V261h-1.438v-5.234q0-1.243-.485-1.86-.484-.617-1.453-.617-1.164 0-1.836.742-.672.742-.672 2.024V261h-1.445v-8.75h1.445v1.36q.516-.79 1.211-1.18.704-.39 1.618-.39 1.507 0 2.28.937.774.93.774 2.742zm10.35.547v.703h-6.609q.094 1.484.891 2.265.805.774 2.234.774.829 0 1.602-.203.781-.203 1.547-.61v1.36q-.774.328-1.586.5-.813.172-1.648.172-2.094 0-3.32-1.22-1.22-1.218-1.22-3.296 0-2.149 1.157-3.406 1.164-1.266 3.133-1.266 1.765 0 2.789 1.14 1.03 1.133 1.03 3.087zm-1.437-.422q-.015-1.18-.664-1.883-.64-.703-1.703-.703-1.203 0-1.93.68-.718.68-.828 1.914zm8.868-2.25q-.243-.14-.532-.203-.281-.07-.625-.07-1.218 0-1.875.796-.648.79-.648 2.274V261h-1.445v-8.75h1.445v1.36q.453-.798 1.18-1.18.726-.39 1.765-.39.149 0 .328.022.18.016.399.055z" aria-label="Container" font-size="16" font-family="Calibri,Calibri_MSFontService,sans-serif" fill="#fff"/><path d="M593 274h91v67h-91z" fill="#2f5597"/><path d="M625.273 299.836l-3.21 8.707h6.433zm-1.336-2.332h2.684L633.289 315h-2.461l-1.594-4.488h-7.887L619.754 315h-2.496zm13.899 15.527v6.961h-2.168v-18.117h2.168v1.992q.68-1.172 1.71-1.734 1.044-.574 2.485-.574 2.39 0 3.879 1.898 1.5 1.898 1.5 4.992 0 3.094-1.5 4.992-1.488 1.899-3.88 1.899-1.44 0-2.483-.563-1.032-.574-1.711-1.746zm7.336-4.582q0-2.379-.985-3.726-.972-1.36-2.683-1.36-1.711 0-2.696 1.36-.972 1.347-.972 3.726 0 2.38.972 3.739.985 1.347 2.696 1.347 1.71 0 2.683-1.348.985-1.359.985-3.738zm7.898 4.582v6.961h-2.168v-18.117h2.168v1.992q.68-1.172 1.71-1.734 1.044-.574 2.485-.574 2.39 0 3.88 1.898 1.5 1.898 1.5 4.992 0 3.094-1.5 4.992-1.49 1.899-3.88 1.899-1.441 0-2.484-.563-1.031-.574-1.711-1.746zm7.336-4.582q0-2.379-.984-3.726-.973-1.36-2.684-1.36-1.711 0-2.695 1.36-.973 1.347-.973 3.726 0 2.38.973 3.739.984 1.347 2.695 1.347 1.71 0 2.684-1.348.984-1.359.984-3.738z" aria-label="App" font-size="24" font-family="Calibri,Calibri_MSFontService,sans-serif" fill="#fff"/><path d="M718 239h113v113H718z" fill="#8faadc"/><path d="M747.754 250.234v1.664q-.797-.742-1.703-1.109-.899-.367-1.915-.367-2 0-3.062 1.226-1.063 1.22-1.063 3.532 0 2.304 1.063 3.53 1.063 1.22 3.063 1.22 1.015 0 1.914-.368.906-.367 1.703-1.109v1.649q-.828.562-1.758.843-.922.282-1.953.282-2.649 0-4.172-1.618-1.524-1.625-1.524-4.43 0-2.812 1.524-4.429 1.523-1.625 4.172-1.625 1.047 0 1.968.281.93.274 1.743.828zm5.765 3.024q-1.156 0-1.828.906-.672.899-.672 2.469 0 1.57.664 2.476.672.899 1.836.899 1.149 0 1.82-.906.672-.907.672-2.47 0-1.554-.671-2.46-.672-.914-1.82-.914zm0-1.219q1.875 0 2.946 1.219 1.07 1.219 1.07 3.375 0 2.148-1.07 3.375-1.07 1.219-2.946 1.219-1.882 0-2.953-1.22-1.062-1.226-1.062-3.374 0-2.156 1.062-3.375 1.07-1.219 2.953-1.219zm13.672 3.68V261h-1.437v-5.234q0-1.243-.485-1.86-.484-.617-1.453-.617-1.164 0-1.836.742-.672.742-.672 2.024V261h-1.445v-8.75h1.445v1.36q.516-.79 1.211-1.18.703-.39 1.618-.39 1.507 0 2.28.937.774.93.774 2.742zm4.29-5.953v2.484h2.96v1.117h-2.96v4.75q0 1.07.288 1.375.297.305 1.196.305h1.476V261h-1.476q-1.664 0-2.297-.617-.633-.625-.633-2.266v-4.75h-1.055v-1.117h1.055v-2.484zm8.827 6.836q-1.742 0-2.414.398-.672.398-.672 1.36 0 .765.5 1.218.508.445 1.375.445 1.196 0 1.915-.843.726-.852.726-2.258v-.32zm2.868-.594V261h-1.438v-1.328q-.492.797-1.227 1.18-.734.375-1.796.375-1.344 0-2.141-.75-.79-.758-.79-2.024 0-1.476.985-2.226.993-.75 2.953-.75h2.016v-.141q0-.992-.656-1.531-.649-.547-1.828-.547-.75 0-1.461.18-.711.18-1.367.539v-1.329q.789-.304 1.53-.453.743-.156 1.446-.156 1.899 0 2.836.984.938.985.938 2.985zm2.96-3.758h1.438V261h-1.437zm0-3.406h1.438v1.82h-1.437zm11.72 6.875V261h-1.438v-5.234q0-1.243-.485-1.86-.484-.617-1.453-.617-1.164 0-1.836.742-.672.742-.672 2.024V261h-1.445v-8.75h1.445v1.36q.516-.79 1.211-1.18.704-.39 1.618-.39 1.507 0 2.28.937.774.93.774 2.742zm10.35.547v.703h-6.609q.094 1.484.891 2.265.805.774 2.234.774.829 0 1.602-.203.781-.203 1.547-.61v1.36q-.774.328-1.586.5-.813.172-1.648.172-2.094 0-3.32-1.22-1.22-1.218-1.22-3.296 0-2.149 1.157-3.406 1.164-1.266 3.132-1.266 1.766 0 2.79 1.14 1.03 1.133 1.03 3.087zm-1.437-.422q-.015-1.18-.664-1.883-.64-.703-1.703-.703-1.203 0-1.93.68-.718.68-.828 1.914zm8.868-2.25q-.243-.14-.532-.203-.281-.07-.625-.07-1.218 0-1.875.796-.648.79-.648 2.274V261h-1.445v-8.75h1.445v1.36q.453-.798 1.18-1.18.726-.39 1.765-.39.149 0 .328.022.18.016.399.055z" aria-label="Container" font-size="16" font-family="Calibri,Calibri_MSFontService,sans-serif" fill="#fff"/><path d="M728 274h91v67h-91z" fill="#2f5597"/><path d="M760.384 299.836l-3.21 8.707h6.433zm-1.336-2.332h2.684L768.4 315h-2.461l-1.594-4.488h-7.887L754.865 315h-2.496zm13.899 15.527v6.961h-2.168v-18.117h2.168v1.992q.68-1.172 1.71-1.734 1.044-.574 2.485-.574 2.39 0 3.879 1.898 1.5 1.898 1.5 4.992 0 3.094-1.5 4.992-1.488 1.899-3.879 1.899-1.441 0-2.484-.563-1.032-.574-1.711-1.746zm7.336-4.582q0-2.379-.985-3.726-.972-1.36-2.683-1.36-1.711 0-2.696 1.36-.972 1.347-.972 3.726 0 2.38.972 3.739.985 1.347 2.696 1.347 1.71 0 2.683-1.348.985-1.359.985-3.738zm7.898 4.582v6.961h-2.168v-18.117h2.168v1.992q.68-1.172 1.711-1.734 1.043-.574 2.484-.574 2.391 0 3.88 1.898 1.5 1.898 1.5 4.992 0 3.094-1.5 4.992-1.489 1.899-3.88 1.899-1.441 0-2.484-.563-1.031-.574-1.711-1.746zm7.336-4.582q0-2.379-.984-3.726-.973-1.36-2.684-1.36-1.71 0-2.695 1.36-.973 1.347-.973 3.726 0 2.38.973 3.739.984 1.347 2.695 1.347 1.71 0 2.684-1.348.984-1.359.984-3.738z" aria-label="App" font-size="24" font-family="Calibri,Calibri_MSFontService,sans-serif" fill="#fff"/><path d="M853 239h113v113H853z" fill="#8faadc"/><path d="M882.133 250.234v1.664q-.797-.742-1.703-1.109-.899-.367-1.914-.367-2 0-3.063 1.226-1.063 1.22-1.063 3.532 0 2.304 1.063 3.53 1.063 1.22 3.063 1.22 1.015 0 1.914-.368.906-.367 1.703-1.109v1.649q-.828.562-1.758.843-.922.282-1.953.282-2.649 0-4.172-1.618-1.524-1.625-1.524-4.43 0-2.812 1.524-4.429 1.523-1.625 4.172-1.625 1.047 0 1.968.281.93.274 1.743.828zm5.765 3.024q-1.156 0-1.828.906-.672.899-.672 2.469 0 1.57.664 2.476.672.899 1.836.899 1.149 0 1.82-.906.673-.907.673-2.47 0-1.554-.672-2.46-.672-.914-1.82-.914zm0-1.219q1.875 0 2.946 1.219 1.07 1.219 1.07 3.375 0 2.148-1.07 3.375-1.07 1.219-2.946 1.219-1.882 0-2.953-1.22-1.062-1.226-1.062-3.374 0-2.156 1.062-3.375 1.07-1.219 2.953-1.219zm13.672 3.68V261h-1.437v-5.234q0-1.243-.485-1.86-.484-.617-1.453-.617-1.164 0-1.836.742-.672.742-.672 2.024V261h-1.445v-8.75h1.445v1.36q.516-.79 1.211-1.18.703-.39 1.618-.39 1.507 0 2.28.937.774.93.774 2.742zm4.29-5.953v2.484h2.96v1.117h-2.96v4.75q0 1.07.288 1.375.297.305 1.196.305h1.476V261h-1.476q-1.664 0-2.297-.617-.633-.625-.633-2.266v-4.75h-1.055v-1.117h1.055v-2.484zm8.827 6.836q-1.742 0-2.414.398-.672.398-.672 1.36 0 .765.5 1.218.508.445 1.375.445 1.196 0 1.915-.843.726-.852.726-2.258v-.32zm2.868-.594V261h-1.438v-1.328q-.492.797-1.226 1.18-.735.375-1.797.375-1.344 0-2.141-.75-.79-.758-.79-2.024 0-1.476.985-2.226.993-.75 2.953-.75h2.016v-.141q0-.992-.656-1.531-.649-.547-1.828-.547-.75 0-1.461.18-.711.18-1.367.539v-1.329q.789-.304 1.53-.453.743-.156 1.446-.156 1.899 0 2.836.984.938.985.938 2.985zm2.96-3.758h1.438V261h-1.438zm0-3.406h1.438v1.82h-1.438zm11.72 6.875V261h-1.438v-5.234q0-1.243-.485-1.86-.484-.617-1.453-.617-1.164 0-1.836.742-.672.742-.672 2.024V261h-1.445v-8.75h1.445v1.36q.516-.79 1.211-1.18.703-.39 1.618-.39 1.507 0 2.28.937.774.93.774 2.742zm10.35.547v.703h-6.609q.094 1.484.891 2.265.805.774 2.234.774.829 0 1.602-.203.781-.203 1.547-.61v1.36q-.774.328-1.586.5-.813.172-1.649.172-2.093 0-3.32-1.22-1.219-1.218-1.219-3.296 0-2.149 1.157-3.406 1.164-1.266 3.132-1.266 1.766 0 2.79 1.14 1.03 1.133 1.03 3.087zm-1.437-.422q-.015-1.18-.664-1.883-.64-.703-1.703-.703-1.203 0-1.93.68-.718.68-.828 1.914zm8.867-2.25q-.242-.14-.53-.203-.282-.07-.626-.07-1.219 0-1.875.796-.648.79-.648 2.274V261h-1.446v-8.75h1.446v1.36q.453-.798 1.18-1.18.726-.39 1.765-.39.149 0 .328.022.18.016.399.055z" aria-label="Container" font-size="16" font-family="Calibri,Calibri_MSFontService,sans-serif" fill="#fff"/><path d="M863 274h91v67h-91z" fill="#2f5597"/><path d="M894.762 299.836l-3.21 8.707h6.433zm-1.336-2.332h2.684L902.778 315h-2.461l-1.594-4.488h-7.887L889.243 315h-2.496zm13.899 15.527v6.961h-2.168v-18.117h2.168v1.992q.68-1.172 1.71-1.734 1.044-.574 2.485-.574 2.39 0 3.879 1.898 1.5 1.898 1.5 4.992 0 3.094-1.5 4.992-1.488 1.899-3.879 1.899-1.441 0-2.484-.563-1.032-.574-1.711-1.746zm7.336-4.582q0-2.379-.985-3.726-.972-1.36-2.683-1.36-1.711 0-2.696 1.36-.972 1.347-.972 3.726 0 2.38.972 3.739.985 1.347 2.696 1.347 1.71 0 2.683-1.348.985-1.359.985-3.738zm7.898 4.582v6.961h-2.168v-18.117h2.168v1.992q.68-1.172 1.711-1.734 1.043-.574 2.484-.574 2.391 0 3.88 1.898 1.5 1.898 1.5 4.992 0 3.094-1.5 4.992-1.489 1.899-3.88 1.899-1.441 0-2.484-.563-1.031-.574-1.711-1.746zm7.336-4.582q0-2.379-.984-3.726-.973-1.36-2.684-1.36-1.71 0-2.695 1.36-.973 1.347-.973 3.726 0 2.38.973 3.739.984 1.347 2.695 1.347 1.71 0 2.684-1.348.984-1.359.984-3.738z" aria-label="App" font-size="24" font-family="Calibri,Calibri_MSFontService,sans-serif" fill="#fff"/><g clip-path="url(#b)"><g clip-path="url(#c)"><g clip-path="url(#d)"><path d="M364.438 455.781v41.438a4.782 4.782 0 0 1-4.782 4.781h-22.312a4.781 4.781 0 0 1-4.781-4.781v-41.438c0-2.64 2.14-4.781 4.781-4.781h22.312a4.782 4.782 0 0 1 4.782 4.781zm9.562 5.778v1.195c0 .33-.268.598-.598.598h-1.793v.597c0 .33-.267.598-.597.598h-4.184v-4.781h4.184c.33 0 .597.267.597.597v.598h1.793c.33 0 .598.267.598.598zm0 9.562v1.195a.598.598 0 0 1-.598.598h-1.793v.598c0 .33-.267.597-.597.597h-4.184v-4.781h4.184c.33 0 .597.268.597.598v.597h1.793c.33 0 .598.268.598.598zm0 9.563v1.195c0 .33-.268.598-.598.598h-1.793v.597c0 .33-.267.598-.597.598h-4.184v-4.781h4.184c.33 0 .597.267.597.597v.598h1.793c.33 0 .598.267.598.598zm0 9.562v1.195a.598.598 0 0 1-.598.598h-1.793v.598c0 .33-.267.597-.597.597h-4.184v-4.781h4.184c.33 0 .597.268.597.598v.597h1.793c.33 0 .598.268.598.598zm-48.012-1.793h4.184v4.781h-4.184a.597.597 0 0 1-.597-.597v-.598h-1.793a.598.598 0 0 1-.598-.598v-1.195c0-.33.268-.598.598-.598h1.793v-.597c0-.33.267-.598.597-.598zm0-9.562h4.184v4.781h-4.184a.597.597 0 0 1-.597-.598v-.597h-1.793a.598.598 0 0 1-.598-.598v-1.195c0-.331.268-.598.598-.598h1.793v-.598c0-.33.267-.597.597-.597zm0-9.563h4.184v4.781h-4.184a.597.597 0 0 1-.597-.597v-.598h-1.793a.598.598 0 0 1-.598-.598v-1.195c0-.33.268-.598.598-.598h1.793v-.597c0-.33.267-.598.597-.598zm0-9.562h4.184v4.781h-4.184a.597.597 0 0 1-.597-.598v-.597h-1.793a.598.598 0 0 1-.598-.598v-1.195c0-.331.268-.598.598-.598h1.793v-.598c0-.33.267-.597.597-.597z" fill="#FFF"/></g></g></g><g clip-path="url(#e)"><g clip-path="url(#f)"><g clip-path="url(#g)"><path d="M348.7 387.559c.094.047.169.16.281.16.103 0 .263-.038.272-.141.019-.131-.178-.216-.3-.272-.159-.065-.366-.094-.515-.009-.038.019-.076.065-.057.103.028.122.216.103.319.159zm-2.053.16c.112 0 .187-.113.281-.16.103-.056.291-.037.328-.15.019-.037-.019-.084-.056-.103-.15-.084-.356-.056-.516.01-.121.056-.318.14-.3.271.01.094.169.141.263.132zm20.728 26.137c-.337-.375-.497-1.087-.675-1.847-.169-.759-.366-1.575-.984-2.1a2.484 2.484 0 0 0-.375-.271 2.107 2.107 0 0 0-.385-.188c.863-2.559.525-5.109-.347-7.416-1.068-2.822-2.934-5.287-4.359-6.975-1.603-2.015-3.159-3.928-3.131-6.75.047-4.303.478-12.3-7.106-12.309-9.6-.019-7.2 9.694-7.304 12.675-.159 2.194-.6 3.919-2.109 6.066-1.772 2.109-4.266 5.512-5.447 9.065-.562 1.678-.825 3.385-.581 4.997-.61.544-1.069 1.378-1.556 1.894-.394.403-.966.553-1.594.778-.628.225-1.313.563-1.734 1.359-.197.366-.263.76-.263 1.163 0 .365.056.74.113 1.106.112.759.234 1.472.074 1.95-.487 1.35-.553 2.288-.206 2.972.357.684 1.069.984 1.885 1.153 1.622.338 3.825.253 5.559 1.172 1.856.975 3.741 1.322 5.241.975 1.087-.244 1.978-.9 2.428-1.894 1.172-.009 2.465-.506 4.528-.618 1.397-.113 3.15.496 5.165.384.057.216.132.431.235.628v.009c.778 1.566 2.231 2.278 3.778 2.157 1.556-.122 3.197-1.032 4.528-2.616 1.275-1.538 3.375-2.175 4.772-3.019.694-.422 1.256-.947 1.303-1.715.038-.769-.412-1.622-1.453-2.785zm-18.403-29.672c.919-2.081 3.206-2.043 4.125-.037.609 1.331.337 2.897-.403 3.787-.15-.075-.553-.243-1.181-.459.103-.113.29-.253.365-.431.45-1.106-.019-2.531-.853-2.56-.684-.046-1.303 1.013-1.106 2.157-.385-.188-.881-.328-1.219-.413a3.733 3.733 0 0 1 .272-2.044zm-3.816-1.078c.947 0 1.95 1.332 1.791 3.141a3.368 3.368 0 0 0-.956.431c.112-.834-.31-1.884-.9-1.837-.788.065-.919 1.987-.169 2.634.094.075.178-.019-.553.516-1.463-1.369-.985-4.885.787-4.885zm-1.275 5.691c.581-.431 1.275-.938 1.322-.984.441-.413 1.266-1.332 2.616-1.332.665 0 1.462.216 2.428.835.59.384 1.059.412 2.119.872.787.328 1.284.909.984 1.706-.244.665-1.031 1.35-2.128 1.697-1.041.337-1.856 1.5-3.581 1.396a2.592 2.592 0 0 1-.9-.196c-.75-.329-1.144-.975-1.875-1.407-.807-.45-1.238-.975-1.379-1.434-.131-.459 0-.844.394-1.153zm.31 31.312c-.253 3.291-4.116 3.225-7.06 1.688-2.803-1.481-6.431-.609-7.172-2.053-.225-.441-.225-1.191.244-2.475v-.019c.225-.712.056-1.5-.056-2.241-.113-.731-.169-1.406.084-1.875.328-.628.797-.853 1.388-1.059.965-.347 1.106-.319 1.837-.928.516-.535.891-1.209 1.341-1.688.478-.515.937-.759 1.659-.646.76.112 1.416.637 2.053 1.5l1.838 3.337c.89 1.866 4.041 4.538 3.844 6.459zm-.132-2.428c-.384-.618-.9-1.275-1.35-1.837.666 0 1.332-.206 1.566-.835.216-.581 0-1.397-.694-2.334-1.265-1.706-3.59-3.047-3.59-3.047-1.266-.787-1.978-1.753-2.307-2.803-.328-1.05-.281-2.184-.028-3.3.488-2.147 1.744-4.237 2.55-5.55.216-.159.075.3-.815 1.95-.797 1.509-2.288 4.997-.244 7.725.056-1.941.516-3.919 1.294-5.766 1.125-2.568 3.497-7.022 3.684-10.565.103.075.431.3.581.384.432.253.76.628 1.182.966 1.162.937 2.671.862 3.974.112.582-.328 1.051-.703 1.491-.843.928-.291 1.669-.807 2.091-1.407.722 2.85 2.409 6.966 3.487 8.972.572 1.069 1.716 3.328 2.213 6.056a3.74 3.74 0 0 1 1.022.132c1.293-3.347-1.097-6.957-2.185-7.96-.44-.431-.459-.619-.244-.609 1.182 1.05 2.738 3.159 3.301 5.531.262 1.088.309 2.222.037 3.347 1.537.638 3.366 1.678 2.878 3.263-.206-.01-.3 0-.394 0 .3-.947-.365-1.651-2.137-2.447-1.838-.807-3.375-.807-3.591 1.171-1.134.394-1.715 1.379-2.006 2.56-.262 1.05-.338 2.315-.412 3.741-.047.721-.338 1.687-.638 2.718-3.009 2.147-7.191 3.085-10.716.675zm24.132-1.078c-.085 1.575-3.863 1.866-5.925 4.359-1.238 1.472-2.757 2.288-4.088 2.391-1.331.103-2.484-.45-3.159-1.809-.441-1.041-.225-2.166.103-3.403.347-1.332.862-2.7.928-3.807.075-1.425.159-2.671.394-3.628.244-.965.619-1.612 1.284-1.978.028-.019.066-.028.094-.047.075 1.238.684 2.494 1.762 2.766 1.182.309 2.878-.703 3.6-1.528.844-.028 1.472-.085 2.119.478.928.797.666 2.84 1.603 3.9.994 1.087 1.313 1.828 1.285 2.306zm-23.944-26.662c.187.178.441.421.75.665.619.488 1.481.994 2.559.994 1.088 0 2.11-.553 2.982-1.013.459-.243 1.021-.656 1.387-.975.366-.318.553-.59.291-.618-.263-.028-.244.243-.563.478-.412.3-.909.694-1.303.919-.694.393-1.828.956-2.803.956-.975 0-1.753-.45-2.335-.909-.29-.235-.534-.469-.721-.647-.141-.132-.178-.432-.404-.46-.131-.009-.168.347.16.61z" fill="#FFF"/></g></g></g></g></svg>