<svg width="694" height="321" xmlns="http://www.w3.org/2000/svg" xmlns:xlink="http://www.w3.org/1999/xlink" overflow="hidden"><defs><clipPath id="clip0"><path d="M293 214 987 214 987 535 293 535Z" fill-rule="evenodd" clip-rule="evenodd"/></clipPath><clipPath id="clip1"><path d="M323 451 374 451 374 502 323 502Z" fill-rule="evenodd" clip-rule="evenodd"/></clipPath><clipPath id="clip2"><path d="M323 451 374 451 374 502 323 502Z" fill-rule="evenodd" clip-rule="evenodd"/></clipPath><clipPath id="clip3"><path d="M323 451 374 451 374 502 323 502Z" fill-rule="evenodd" clip-rule="evenodd"/></clipPath><clipPath id="clip4"><path d="M328 376 370 376 370 424 328 424Z" fill-rule="evenodd" clip-rule="evenodd"/></clipPath><clipPath id="clip5"><path d="M328 376 370 376 370 424 328 424Z" fill-rule="evenodd" clip-rule="evenodd"/></clipPath><clipPath id="clip6"><path d="M328 376 370 376 370 424 328 424Z" fill-rule="evenodd" clip-rule="evenodd"/></clipPath></defs><g clip-path="url(#clip0)" transform="translate(-293 -214)"><rect x="294" y="214" width="692" height="320" fill="#B4C7E7"/><rect x="315" y="443" width="652" height="67" fill="#2F5597"/><text fill="#FFFFFF" font-family="Calibri,Calibri_MSFontService,sans-serif" font-weight="400" font-size="24" transform="translate(593.228 484)">Hardware</text><rect x="315" y="368" width="652" height="66" fill="#2F5597"/><text fill="#FFFFFF" font-family="Calibri,Calibri_MSFontService,sans-serif" font-weight="400" font-size="24" transform="translate(609.741 409)">Kernel</text><rect x="315" y="239" width="113" height="113" fill="#8FAADC"/><text fill="#FFFFFF" font-family="Calibri,Calibri_MSFontService,sans-serif" font-weight="400" font-size="19" transform="translate(334.159 261)">Container</text><rect x="325" y="274" width="91" height="67" fill="#2F5597"/><text fill="#FFFFFF" font-family="Calibri,Calibri_MSFontService,sans-serif" font-weight="400" font-size="24" transform="translate(350.891 315)">App</text><rect x="449" y="239" width="113" height="113" fill="#8FAADC"/><text fill="#FFFFFF" font-family="Calibri,Calibri_MSFontService,sans-serif" font-weight="400" font-size="19" transform="translate(468.249 261)">Container</text><rect x="459" y="274" width="91" height="67" fill="#2F5597"/><text fill="#FFFFFF" font-family="Calibri,Calibri_MSFontService,sans-serif" font-weight="400" font-size="24" transform="translate(484.981 315)">App</text><rect x="583" y="239" width="113" height="113" fill="#8FAADC"/><text fill="#FFFFFF" font-family="Calibri,Calibri_MSFontService,sans-serif" font-weight="400" font-size="19" transform="translate(602.339 261)">Container</text><rect x="593" y="274" width="91" height="67" fill="#2F5597"/><text fill="#FFFFFF" font-family="Calibri,Calibri_MSFontService,sans-serif" font-weight="400" font-size="24" transform="translate(619.07 315)">App</text><rect x="718" y="239" width="113" height="113" fill="#8FAADC"/><text fill="#FFFFFF" font-family="Calibri,Calibri_MSFontService,sans-serif" font-weight="400" font-size="19" transform="translate(737.449 261)">Container</text><rect x="728" y="274" width="91" height="67" fill="#2F5597"/><text fill="#FFFFFF" font-family="Calibri,Calibri_MSFontService,sans-serif" font-weight="400" font-size="24" transform="translate(754.181 315)">App</text><rect x="853" y="239" width="113" height="113" fill="#8FAADC"/><text fill="#FFFFFF" font-family="Calibri,Calibri_MSFontService,sans-serif" font-weight="400" font-size="19" transform="translate(871.828 261)">Container</text><rect x="863" y="274" width="91" height="67" fill="#2F5597"/><text fill="#FFFFFF" font-family="Calibri,Calibri_MSFontService,sans-serif" font-weight="400" font-size="24" transform="translate(888.559 315)">App</text><g clip-path="url(#clip1)"><g clip-path="url(#clip2)"><g clip-path="url(#clip3)"><path d="M364.438 455.781 364.438 497.219C364.438 499.859 362.297 502 359.656 502L337.344 502C334.703 502 332.563 499.859 332.563 497.219L332.563 455.781C332.563 453.141 334.703 451 337.344 451L359.656 451C362.297 451 364.438 453.141 364.438 455.781ZM374 461.559 374 462.754C374 463.084 373.732 463.352 373.402 463.352L371.609 463.352 371.609 463.949C371.609 464.279 371.342 464.547 371.012 464.547L366.828 464.547 366.828 459.766 371.012 459.766C371.342 459.766 371.609 460.033 371.609 460.363L371.609 460.961 373.402 460.961C373.732 460.961 374 461.228 374 461.559ZM374 471.121 374 472.316C374 472.647 373.732 472.914 373.402 472.914L371.609 472.914 371.609 473.512C371.609 473.842 371.342 474.109 371.012 474.109L366.828 474.109 366.828 469.328 371.012 469.328C371.342 469.328 371.609 469.596 371.609 469.926L371.609 470.523 373.402 470.523C373.732 470.523 374 470.791 374 471.121ZM374 480.684 374 481.879C374 482.209 373.732 482.477 373.402 482.477L371.609 482.477 371.609 483.074C371.609 483.404 371.342 483.672 371.012 483.672L366.828 483.672 366.828 478.891 371.012 478.891C371.342 478.891 371.609 479.158 371.609 479.488L371.609 480.086 373.402 480.086C373.732 480.086 374 480.353 374 480.684ZM374 490.246 374 491.441C374 491.772 373.732 492.039 373.402 492.039L371.609 492.039 371.609 492.637C371.609 492.967 371.342 493.234 371.012 493.234L366.828 493.234 366.828 488.453 371.012 488.453C371.342 488.453 371.609 488.721 371.609 489.051L371.609 489.648 373.402 489.648C373.732 489.648 374 489.916 374 490.246ZM325.988 488.453 330.172 488.453 330.172 493.234 325.988 493.234C325.658 493.234 325.391 492.967 325.391 492.637L325.391 492.039 323.598 492.039C323.268 492.039 323 491.772 323 491.441L323 490.246C323 489.916 323.268 489.648 323.598 489.648L325.391 489.648 325.391 489.051C325.391 488.721 325.658 488.453 325.988 488.453ZM325.988 478.891 330.172 478.891 330.172 483.672 325.988 483.672C325.658 483.672 325.391 483.404 325.391 483.074L325.391 482.477 323.598 482.477C323.268 482.477 323 482.209 323 481.879L323 480.684C323 480.353 323.268 480.086 323.598 480.086L325.391 480.086 325.391 479.488C325.391 479.158 325.658 478.891 325.988 478.891ZM325.988 469.328 330.172 469.328 330.172 474.109 325.988 474.109C325.658 474.109 325.391 473.842 325.391 473.512L325.391 472.914 323.598 472.914C323.268 472.914 323 472.647 323 472.316L323 471.121C323 470.791 323.268 470.523 323.598 470.523L325.391 470.523 325.391 469.926C325.391 469.596 325.658 469.328 325.988 469.328ZM325.988 459.766 330.172 459.766 330.172 464.547 325.988 464.547C325.658 464.547 325.391 464.279 325.391 463.949L325.391 463.352 323.598 463.352C323.268 463.352 323 463.084 323 462.754L323 461.559C323 461.228 323.268 460.961 323.598 460.961L325.391 460.961 325.391 460.363C325.391 460.033 325.658 459.766 325.988 459.766Z" fill="#FFFFFF"/></g></g></g><g clip-path="url(#clip4)"><g clip-path="url(#clip5)"><g clip-path="url(#clip6)"><path d="M348.7 387.559C348.794 387.606 348.869 387.719 348.981 387.719 349.084 387.719 349.244 387.681 349.253 387.578 349.272 387.447 349.075 387.362 348.953 387.306 348.794 387.241 348.587 387.212 348.438 387.297 348.4 387.316 348.362 387.362 348.381 387.4 348.409 387.522 348.597 387.503 348.7 387.559ZM346.647 387.719C346.759 387.719 346.834 387.606 346.928 387.559 347.031 387.503 347.219 387.522 347.256 387.409 347.275 387.372 347.237 387.325 347.2 387.306 347.05 387.222 346.844 387.25 346.684 387.316 346.563 387.372 346.366 387.456 346.384 387.587 346.394 387.681 346.553 387.728 346.647 387.719ZM367.375 413.856C367.038 413.481 366.878 412.769 366.7 412.009 366.531 411.25 366.334 410.434 365.716 409.909 365.594 409.806 365.472 409.712 365.341 409.638 365.219 409.563 365.087 409.497 364.956 409.45 365.819 406.891 365.481 404.341 364.609 402.034 363.541 399.212 361.675 396.747 360.25 395.059 358.647 393.044 357.091 391.131 357.119 388.309 357.166 384.006 357.597 376.009 350.013 376 340.413 375.981 342.813 385.694 342.709 388.675 342.55 390.869 342.109 392.594 340.6 394.741 338.828 396.85 336.334 400.253 335.153 403.806 334.591 405.484 334.328 407.191 334.572 408.803 333.962 409.347 333.503 410.181 333.016 410.697 332.622 411.1 332.05 411.25 331.422 411.475 330.794 411.7 330.109 412.038 329.688 412.834 329.491 413.2 329.425 413.594 329.425 413.997 329.425 414.362 329.481 414.737 329.538 415.103 329.65 415.862 329.772 416.575 329.612 417.053 329.125 418.403 329.059 419.341 329.406 420.025 329.763 420.709 330.475 421.009 331.291 421.178 332.913 421.516 335.116 421.431 336.85 422.35 338.706 423.325 340.591 423.672 342.091 423.325 343.178 423.081 344.069 422.425 344.519 421.431 345.691 421.422 346.984 420.925 349.047 420.813 350.444 420.7 352.197 421.309 354.212 421.197 354.269 421.413 354.344 421.628 354.447 421.825L354.447 421.834C355.225 423.4 356.678 424.112 358.225 423.991 359.781 423.869 361.422 422.959 362.753 421.375 364.028 419.837 366.128 419.2 367.525 418.356 368.219 417.934 368.781 417.409 368.828 416.641 368.866 415.872 368.416 415.019 367.375 413.856ZM348.972 384.184C349.891 382.103 352.178 382.141 353.097 384.147 353.706 385.478 353.434 387.044 352.694 387.934 352.544 387.859 352.141 387.691 351.513 387.475 351.616 387.362 351.803 387.222 351.878 387.044 352.328 385.938 351.859 384.513 351.025 384.484 350.341 384.438 349.722 385.497 349.919 386.641 349.534 386.453 349.038 386.313 348.7 386.228 348.606 385.581 348.672 384.859 348.972 384.184ZM345.156 383.106C346.103 383.106 347.106 384.438 346.947 386.247 346.619 386.341 346.281 386.481 345.991 386.678 346.103 385.844 345.681 384.794 345.091 384.841 344.303 384.906 344.172 386.828 344.922 387.475 345.016 387.55 345.1 387.456 344.369 387.991 342.906 386.622 343.384 383.106 345.156 383.106ZM343.881 388.797C344.462 388.366 345.156 387.859 345.203 387.813 345.644 387.4 346.469 386.481 347.819 386.481 348.484 386.481 349.281 386.697 350.247 387.316 350.837 387.7 351.306 387.728 352.366 388.188 353.153 388.516 353.65 389.097 353.35 389.894 353.106 390.559 352.319 391.244 351.222 391.591 350.181 391.928 349.366 393.091 347.641 392.987 347.275 392.969 346.984 392.894 346.741 392.791 345.991 392.462 345.597 391.816 344.866 391.384 344.059 390.934 343.628 390.409 343.487 389.95 343.356 389.491 343.487 389.106 343.881 388.797ZM344.191 420.109C343.938 423.4 340.075 423.334 337.131 421.797 334.328 420.316 330.7 421.188 329.959 419.744 329.734 419.303 329.734 418.553 330.203 417.269L330.203 417.25C330.428 416.538 330.259 415.75 330.147 415.009 330.034 414.278 329.978 413.603 330.231 413.134 330.559 412.506 331.028 412.281 331.619 412.075 332.584 411.728 332.725 411.756 333.456 411.147 333.972 410.612 334.347 409.938 334.797 409.459 335.275 408.944 335.734 408.7 336.456 408.813 337.216 408.925 337.872 409.45 338.509 410.313L340.347 413.65C341.237 415.516 344.388 418.188 344.191 420.109ZM344.059 417.681C343.675 417.063 343.159 416.406 342.709 415.844 343.375 415.844 344.041 415.638 344.275 415.009 344.491 414.428 344.275 413.612 343.581 412.675 342.316 410.969 339.991 409.628 339.991 409.628 338.725 408.841 338.013 407.875 337.684 406.825 337.356 405.775 337.403 404.641 337.656 403.525 338.144 401.378 339.4 399.288 340.206 397.975 340.422 397.816 340.281 398.275 339.391 399.925 338.594 401.434 337.103 404.922 339.147 407.65 339.203 405.709 339.663 403.731 340.441 401.884 341.566 399.316 343.938 394.862 344.125 391.319 344.228 391.394 344.556 391.619 344.706 391.703 345.138 391.956 345.466 392.331 345.888 392.669 347.05 393.606 348.559 393.531 349.862 392.781 350.444 392.453 350.913 392.078 351.353 391.938 352.281 391.647 353.022 391.131 353.444 390.531 354.166 393.381 355.853 397.497 356.931 399.503 357.503 400.572 358.647 402.831 359.144 405.559 359.453 405.55 359.8 405.597 360.166 405.691 361.459 402.344 359.069 398.734 357.981 397.731 357.541 397.3 357.522 397.112 357.737 397.122 358.919 398.172 360.475 400.281 361.038 402.653 361.3 403.741 361.347 404.875 361.075 406 362.612 406.638 364.441 407.678 363.953 409.263 363.747 409.253 363.653 409.263 363.559 409.263 363.859 408.316 363.194 407.612 361.422 406.816 359.584 406.009 358.047 406.009 357.831 407.987 356.697 408.381 356.116 409.366 355.825 410.547 355.563 411.597 355.487 412.862 355.413 414.288 355.366 415.009 355.075 415.975 354.775 417.006 351.766 419.153 347.584 420.091 344.059 417.681ZM368.191 416.603C368.106 418.178 364.328 418.469 362.266 420.962 361.028 422.434 359.509 423.25 358.178 423.353 356.847 423.456 355.694 422.903 355.019 421.544 354.578 420.503 354.794 419.378 355.122 418.141 355.469 416.809 355.984 415.441 356.05 414.334 356.125 412.909 356.209 411.663 356.444 410.706 356.688 409.741 357.063 409.094 357.728 408.728 357.756 408.709 357.794 408.7 357.822 408.681 357.897 409.919 358.506 411.175 359.584 411.447 360.766 411.756 362.462 410.744 363.184 409.919 364.028 409.891 364.656 409.834 365.303 410.397 366.231 411.194 365.969 413.237 366.906 414.297 367.9 415.384 368.219 416.125 368.191 416.603ZM344.247 389.941C344.434 390.119 344.688 390.362 344.997 390.606 345.616 391.094 346.478 391.6 347.556 391.6 348.644 391.6 349.666 391.047 350.538 390.587 350.997 390.344 351.559 389.931 351.925 389.612 352.291 389.294 352.478 389.022 352.216 388.994 351.953 388.966 351.972 389.237 351.653 389.472 351.241 389.772 350.744 390.166 350.35 390.391 349.656 390.784 348.522 391.347 347.547 391.347 346.572 391.347 345.794 390.897 345.212 390.438 344.922 390.203 344.678 389.969 344.491 389.791 344.35 389.659 344.313 389.359 344.087 389.331 343.956 389.322 343.919 389.678 344.247 389.941Z" fill="#FFFFFF"/></g></g></g></g></svg>