<?xml version="1.0" encoding="UTF-8" standalone="no"?>
<svg
   width="1121"
   height="335"
   overflow="hidden"
   version="1.1"
   id="svg116"
   sodipodi:docname="architecture-docker.svg"
   inkscape:version="1.3 (0e150ed6c4, 2023-07-21)"
   xmlns:inkscape="http://www.inkscape.org/namespaces/inkscape"
   xmlns:sodipodi="http://sodipodi.sourceforge.net/DTD/sodipodi-0.dtd"
   xmlns="http://www.w3.org/2000/svg"
   xmlns:svg="http://www.w3.org/2000/svg">
  <sodipodi:namedview
     id="namedview116"
     pagecolor="#505050"
     bordercolor="#eeeeee"
     borderopacity="1"
     inkscape:showpageshadow="0"
     inkscape:pageopacity="0"
     inkscape:pagecheckerboard="0"
     inkscape:deskcolor="#d1d1d1"
     showguides="false"
     inkscape:zoom="0.53427247"
     inkscape:cx="530.62812"
     inkscape:cy="458.56751"
     inkscape:window-width="1920"
     inkscape:window-height="1048"
     inkscape:window-x="1920"
     inkscape:window-y="0"
     inkscape:window-maximized="1"
     inkscape:current-layer="g116" />
  <defs
     id="defs52">
    <clipPath
       id="clip0">
      <path
         d="M84 203 1205 203 1205 538 84 538Z"
         fill-rule="evenodd"
         clip-rule="evenodd"
         id="path1" />
    </clipPath>
    <clipPath
       id="clip1">
      <path
         d="M981 341 1033 341 1033 401 981 401Z"
         fill-rule="evenodd"
         clip-rule="evenodd"
         id="path2" />
    </clipPath>
    <clipPath
       id="clip2">
      <path
         d="M981 341 1033 341 1033 401 981 401Z"
         fill-rule="evenodd"
         clip-rule="evenodd"
         id="path3" />
    </clipPath>
    <clipPath
       id="clip3">
      <path
         d="M981 341 1033 341 1033 401 981 401Z"
         fill-rule="evenodd"
         clip-rule="evenodd"
         id="path4" />
    </clipPath>
    <clipPath
       id="clip4">
      <path
         d="M977 258 1037 258 1037 318 977 318Z"
         fill-rule="evenodd"
         clip-rule="evenodd"
         id="path5" />
    </clipPath>
    <clipPath
       id="clip5">
      <path
         d="M977 258 1037 258 1037 318 977 318Z"
         fill-rule="evenodd"
         clip-rule="evenodd"
         id="path6" />
    </clipPath>
    <clipPath
       id="clip6">
      <path
         d="M977 258 1037 258 1037 318 977 318Z"
         fill-rule="evenodd"
         clip-rule="evenodd"
         id="path7" />
    </clipPath>
    <clipPath
       id="clip7">
      <path
         d="M1135 258 1195 258 1195 318 1135 318Z"
         fill-rule="evenodd"
         clip-rule="evenodd"
         id="path8" />
    </clipPath>
    <clipPath
       id="clip8">
      <path
         d="M1135 258 1195 258 1195 318 1135 318Z"
         fill-rule="evenodd"
         clip-rule="evenodd"
         id="path9" />
    </clipPath>
    <clipPath
       id="clip9">
      <path
         d="M1135 258 1195 258 1195 318 1135 318Z"
         fill-rule="evenodd"
         clip-rule="evenodd"
         id="path10" />
    </clipPath>
    <clipPath
       id="clip10">
      <path
         d="M1063 341 1108 341 1108 401 1063 401Z"
         fill-rule="evenodd"
         clip-rule="evenodd"
         id="path11" />
    </clipPath>
    <clipPath
       id="clip11">
      <path
         d="M1063 341 1108 341 1108 401 1063 401Z"
         fill-rule="evenodd"
         clip-rule="evenodd"
         id="path12" />
    </clipPath>
    <clipPath
       id="clip12">
      <path
         d="M1063 341 1108 341 1108 401 1063 401Z"
         fill-rule="evenodd"
         clip-rule="evenodd"
         id="path13" />
    </clipPath>
    <clipPath
       id="clip13">
      <path
         d="M1060 258 1112 258 1112 318 1060 318Z"
         fill-rule="evenodd"
         clip-rule="evenodd"
         id="path14" />
    </clipPath>
    <clipPath
       id="clip14">
      <path
         d="M1060 258 1112 258 1112 318 1060 318Z"
         fill-rule="evenodd"
         clip-rule="evenodd"
         id="path15" />
    </clipPath>
    <clipPath
       id="clip15">
      <path
         d="M1060 258 1112 258 1112 318 1060 318Z"
         fill-rule="evenodd"
         clip-rule="evenodd"
         id="path16" />
    </clipPath>
    <clipPath
       id="clip16">
      <path
         d="M1139 341 1192 341 1192 401 1139 401Z"
         fill-rule="evenodd"
         clip-rule="evenodd"
         id="path17" />
    </clipPath>
    <clipPath
       id="clip17">
      <path
         d="M1139 341 1192 341 1192 401 1139 401Z"
         fill-rule="evenodd"
         clip-rule="evenodd"
         id="path18" />
    </clipPath>
    <clipPath
       id="clip18">
      <path
         d="M1139 341 1192 341 1192 401 1139 401Z"
         fill-rule="evenodd"
         clip-rule="evenodd"
         id="path19" />
    </clipPath>
    <clipPath
       id="clip19">
      <path
         d="M501 365 558 365 558 421 501 421Z"
         fill-rule="evenodd"
         clip-rule="evenodd"
         id="path20" />
    </clipPath>
    <clipPath
       id="clip20">
      <path
         d="M501 365 558 365 558 421 501 421Z"
         fill-rule="evenodd"
         clip-rule="evenodd"
         id="path21" />
    </clipPath>
    <clipPath
       id="clip21">
      <path
         d="M501 365 558 365 558 421 501 421Z"
         fill-rule="evenodd"
         clip-rule="evenodd"
         id="path22" />
    </clipPath>
    <clipPath
       id="clip22">
      <path
         d="M690 364 750 364 750 424 690 424Z"
         fill-rule="evenodd"
         clip-rule="evenodd"
         id="path23" />
    </clipPath>
    <clipPath
       id="clip23">
      <path
         d="M690 364 750 364 750 424 690 424Z"
         fill-rule="evenodd"
         clip-rule="evenodd"
         id="path24" />
    </clipPath>
    <clipPath
       id="clip24">
      <path
         d="M690 364 750 364 750 424 690 424Z"
         fill-rule="evenodd"
         clip-rule="evenodd"
         id="path25" />
    </clipPath>
    <clipPath
       id="clip25">
      <path
         d="M694 445 747 445 747 505 694 505Z"
         fill-rule="evenodd"
         clip-rule="evenodd"
         id="path26" />
    </clipPath>
    <clipPath
       id="clip26">
      <path
         d="M694 445 747 445 747 505 694 505Z"
         fill-rule="evenodd"
         clip-rule="evenodd"
         id="path27" />
    </clipPath>
    <clipPath
       id="clip27">
      <path
         d="M694 445 747 445 747 505 694 505Z"
         fill-rule="evenodd"
         clip-rule="evenodd"
         id="path28" />
    </clipPath>
    <clipPath
       id="clip28">
      <path
         d="M788 358 833 358 833 418 788 418Z"
         fill-rule="evenodd"
         clip-rule="evenodd"
         id="path29" />
    </clipPath>
    <clipPath
       id="clip29">
      <path
         d="M788 358 833 358 833 418 788 418Z"
         fill-rule="evenodd"
         clip-rule="evenodd"
         id="path30" />
    </clipPath>
    <clipPath
       id="clip30">
      <path
         d="M788 358 833 358 833 418 788 418Z"
         fill-rule="evenodd"
         clip-rule="evenodd"
         id="path31" />
    </clipPath>
    <clipPath
       id="clip31">
      <path
         d="M519 393 541 393 541 418 519 418Z"
         fill-rule="evenodd"
         clip-rule="evenodd"
         id="path32" />
    </clipPath>
    <clipPath
       id="clip32">
      <path
         d="M519 393 541 393 541 418 519 418Z"
         fill-rule="evenodd"
         clip-rule="evenodd"
         id="path33" />
    </clipPath>
    <clipPath
       id="clip33">
      <path
         d="M519 393 541 393 541 418 519 418Z"
         fill-rule="evenodd"
         clip-rule="evenodd"
         id="path34" />
    </clipPath>
    <clipPath
       id="clip34">
      <path
         d="M501 450 558 450 558 507 501 507Z"
         fill-rule="evenodd"
         clip-rule="evenodd"
         id="path35" />
    </clipPath>
    <clipPath
       id="clip35">
      <path
         d="M501 450 558 450 558 507 501 507Z"
         fill-rule="evenodd"
         clip-rule="evenodd"
         id="path36" />
    </clipPath>
    <clipPath
       id="clip36">
      <path
         d="M501 450 558 450 558 507 501 507Z"
         fill-rule="evenodd"
         clip-rule="evenodd"
         id="path37" />
    </clipPath>
    <clipPath
       id="clip37">
      <path
         d="M519 478 541 478 541 504 519 504Z"
         fill-rule="evenodd"
         clip-rule="evenodd"
         id="path38" />
    </clipPath>
    <clipPath
       id="clip38">
      <path
         d="M519 478 541 478 541 504 519 504Z"
         fill-rule="evenodd"
         clip-rule="evenodd"
         id="path39" />
    </clipPath>
    <clipPath
       id="clip39">
      <path
         d="M519 478 541 478 541 504 519 504Z"
         fill-rule="evenodd"
         clip-rule="evenodd"
         id="path40" />
    </clipPath>
    <clipPath
       id="clip40">
      <path
         d="M594 365 650 365 650 421 594 421Z"
         fill-rule="evenodd"
         clip-rule="evenodd"
         id="path41" />
    </clipPath>
    <clipPath
       id="clip41">
      <path
         d="M594 365 650 365 650 421 594 421Z"
         fill-rule="evenodd"
         clip-rule="evenodd"
         id="path42" />
    </clipPath>
    <clipPath
       id="clip42">
      <path
         d="M594 365 650 365 650 421 594 421Z"
         fill-rule="evenodd"
         clip-rule="evenodd"
         id="path43" />
    </clipPath>
    <clipPath
       id="clip43">
      <path
         d="M609 390 638 390 638 418 609 418Z"
         fill-rule="evenodd"
         clip-rule="evenodd"
         id="path44" />
    </clipPath>
    <clipPath
       id="clip44">
      <path
         d="M609 390 638 390 638 418 609 418Z"
         fill-rule="evenodd"
         clip-rule="evenodd"
         id="path45" />
    </clipPath>
    <clipPath
       id="clip45">
      <path
         d="M609 390 638 390 638 418 609 418Z"
         fill-rule="evenodd"
         clip-rule="evenodd"
         id="path46" />
    </clipPath>
    <clipPath
       id="clip46">
      <path
         d="M594 448 650 448 650 504 594 504Z"
         fill-rule="evenodd"
         clip-rule="evenodd"
         id="path47" />
    </clipPath>
    <clipPath
       id="clip47">
      <path
         d="M594 448 650 448 650 504 594 504Z"
         fill-rule="evenodd"
         clip-rule="evenodd"
         id="path48" />
    </clipPath>
    <clipPath
       id="clip48">
      <path
         d="M594 448 650 448 650 504 594 504Z"
         fill-rule="evenodd"
         clip-rule="evenodd"
         id="path49" />
    </clipPath>
    <clipPath
       id="clip49">
      <path
         d="M609 473 638 473 638 501 609 501Z"
         fill-rule="evenodd"
         clip-rule="evenodd"
         id="path50" />
    </clipPath>
    <clipPath
       id="clip50">
      <path
         d="M609 473 638 473 638 501 609 501Z"
         fill-rule="evenodd"
         clip-rule="evenodd"
         id="path51" />
    </clipPath>
    <clipPath
       id="clip51">
      <path
         d="M609 473 638 473 638 501 609 501Z"
         fill-rule="evenodd"
         clip-rule="evenodd"
         id="path52" />
    </clipPath>
  </defs>
  <g
     clip-path="url(#clip0)"
     transform="translate(-84 -203)"
     id="g116">
    <rect
       x="967"
       y="209"
       width="238"
       height="216"
       fill="#B4C7E7"
       id="rect52" />
    <text
       font-family="Calibri,Calibri_MSFontService,sans-serif"
       font-weight="700"
       font-size="24"
       transform="translate(1046.04 235)"
       id="text52">Registry</text>
    <g
       clip-path="url(#clip1)"
       id="g55">
      <g
         clip-path="url(#clip2)"
         id="g54">
        <g
           clip-path="url(#clip3)"
           id="g53">
          <path
             d="M52 8.48981 52 13.7959C52 18.472 40.3542 22.2857 26 22.2857 11.6458 22.2857 0 18.472 0 13.7959L0 8.48981C0 3.81376 11.6458 0 26 0 40.3542 0 52 3.81376 52 8.48981ZM52 20.4286 52 32.3673C52 37.0434 40.3542 40.8571 26 40.8571 11.6458 40.8571 0 37.0434 0 32.3673L0 20.4286C5.58594 24.2755 15.8099 26.0664 26 26.0664 36.1901 26.0664 46.4139 24.2755 52 20.4286ZM52 39 52 50.9388C52 55.6148 40.3542 59.4286 26 59.4286 11.6458 59.4286 0 55.6148 0 50.9388L0 39C5.58594 42.847 15.8099 44.6378 26 44.6378 36.1901 44.6378 46.4139 42.847 52 39Z"
             fill="#2F5597"
             transform="matrix(1 0 -0 1.00962 981 341)"
             id="path53" />
        </g>
      </g>
    </g>
    <g
       clip-path="url(#clip4)"
       id="g58">
      <g
         clip-path="url(#clip5)"
         id="g57">
        <g
           clip-path="url(#clip6)"
           id="g56">
          <path
             d="M1007 258.938C990.98 258.938 977.938 271.969 977.938 288 977.938 304.02 990.98 317.063 1007 317.063 1023.02 317.063 1036.06 304.02 1036.06 288 1036.06 271.969 1023.02 258.938 1007 258.938ZM980.867 288C980.867 284.215 981.676 280.617 983.129 277.371L995.598 311.52C986.879 307.277 980.867 298.336 980.867 288ZM1007 314.133C1004.43 314.133 1001.96 313.758 999.617 313.066L1007.46 290.285 1015.48 312.293C1015.54 312.422 1015.6 312.539 1015.67 312.656 1012.96 313.605 1010.05 314.133 1007 314.133ZM1010.6 275.754C1012.17 275.672 1013.59 275.508 1013.59 275.508 1014.99 275.344 1014.83 273.27 1013.42 273.352 1013.42 273.352 1009.19 273.68 1006.46 273.68 1003.89 273.68 999.582 273.352 999.582 273.352 998.176 273.27 998.012 275.426 999.418 275.508 999.418 275.508 1000.75 275.672 1002.16 275.754L1006.23 286.91 1000.51 304.055 990.992 275.754C992.563 275.672 993.98 275.508 993.98 275.508 995.387 275.344 995.223 273.27 993.816 273.352 993.816 273.352 989.586 273.68 986.855 273.68 986.363 273.68 985.789 273.668 985.168 273.645 989.844 266.555 997.871 261.867 1007 261.867 1013.8 261.867 1020 264.469 1024.65 268.723 1024.53 268.711 1024.43 268.699 1024.31 268.699 1021.74 268.699 1019.93 270.938 1019.93 273.34 1019.93 275.496 1021.17 277.313 1022.49 279.469 1023.49 281.203 1024.65 283.441 1024.65 286.676 1024.65 288.914 1023.79 291.504 1022.66 295.125L1020.05 303.832 1010.6 275.754ZM1020.14 310.582 1028.12 287.508C1029.61 283.781 1030.11 280.805 1030.11 278.145 1030.11 277.184 1030.05 276.293 1029.93 275.461 1031.97 279.188 1033.13 283.453 1033.13 288 1033.13 297.645 1027.91 306.059 1020.14 310.582Z"
             fill="#2F5597"
             id="path55" />
        </g>
      </g>
    </g>
    <g
       clip-path="url(#clip7)"
       id="g61">
      <g
         clip-path="url(#clip8)"
         id="g60">
        <g
           clip-path="url(#clip9)"
           id="g59">
          <path
             d="M1194.59 287.268 1192.04 285.684C1192.02 285.45 1192 285.224 1191.97 284.995L1194.16 282.945C1194.51 282.62 1194.53 282.075 1194.21 281.727 1194.11 281.63 1194 281.556 1193.88 281.509L1191.07 280.454C1191 280.234 1190.94 280.011 1190.87 279.793L1192.63 277.352C1192.91 276.966 1192.82 276.428 1192.43 276.15 1192.32 276.073 1192.2 276.021 1192.07 276L1189.09 275.514C1188.98 275.311 1188.88 275.109 1188.77 274.91L1190.02 272.166C1190.22 271.733 1190.03 271.222 1189.59 271.025 1189.47 270.97 1189.34 270.943 1189.21 270.948L1186.18 271.055C1186.04 270.881 1185.9 270.709 1185.76 270.539L1186.45 267.591C1186.55 267.127 1186.27 266.663 1185.8 266.555 1185.67 266.525 1185.54 266.525 1185.41 266.555L1182.46 267.25C1182.29 267.107 1182.12 266.966 1181.95 266.827L1182.05 263.801C1182.07 263.326 1181.7 262.924 1181.23 262.904 1181.09 262.898 1180.96 262.924 1180.83 262.98L1178.09 264.238C1177.89 264.128 1177.69 264.022 1177.49 263.918L1177 260.939C1176.92 260.47 1176.48 260.151 1176.01 260.227 1175.88 260.249 1175.76 260.3 1175.65 260.378L1173.2 262.132C1172.99 262.063 1172.76 262 1172.54 261.936L1171.49 259.124C1171.32 258.678 1170.82 258.453 1170.38 258.62 1170.25 258.666 1170.14 258.741 1170.05 258.838L1168 261.032C1167.77 261.007 1167.54 260.987 1167.31 260.967L1165.73 258.408C1165.48 258.003 1164.95 257.878 1164.55 258.129 1164.43 258.199 1164.34 258.294 1164.27 258.408L1162.68 260.965C1162.45 260.985 1162.22 261.005 1162 261.029L1159.94 258.836C1159.62 258.488 1159.07 258.47 1158.73 258.795 1158.63 258.885 1158.56 258.997 1158.51 259.121L1157.45 261.934C1157.23 261.998 1157.01 262.061 1156.79 262.131L1154.35 260.373C1153.96 260.096 1153.43 260.184 1153.15 260.571 1153.07 260.679 1153.02 260.803 1153 260.934L1152.51 263.912C1152.31 264.018 1152.11 264.122 1151.91 264.232L1149.17 262.986C1148.73 262.789 1148.22 262.98 1148.02 263.413 1147.97 263.536 1147.94 263.671 1147.95 263.807L1148.06 266.831C1147.88 266.971 1147.7 267.111 1147.54 267.254L1144.59 266.555C1144.13 266.446 1143.66 266.735 1143.55 267.199 1143.52 267.328 1143.52 267.462 1143.55 267.591L1144.25 270.539C1144.11 270.709 1143.96 270.882 1143.83 271.056L1140.8 270.949C1140.5 270.94 1140.22 271.084 1140.05 271.331 1139.89 271.579 1139.86 271.896 1139.99 272.167L1141.24 274.91C1141.13 275.109 1141.02 275.312 1140.92 275.515L1137.94 276C1137.47 276.076 1137.15 276.519 1137.23 276.989 1137.25 277.12 1137.3 277.244 1137.38 277.352L1139.14 279.792C1139.07 280.011 1139 280.234 1138.94 280.455L1136.13 281.51C1135.68 281.677 1135.46 282.174 1135.62 282.619 1135.67 282.743 1135.74 282.855 1135.84 282.946L1138.03 284.996C1138.01 285.225 1137.99 285.455 1137.97 285.686L1135.41 287.268C1135 287.518 1134.88 288.049 1135.13 288.453 1135.2 288.567 1135.29 288.662 1135.41 288.732L1137.96 290.316C1137.98 290.55 1138 290.775 1138.03 291.004L1135.84 293.054C1135.49 293.379 1135.47 293.924 1135.79 294.272 1135.89 294.369 1136 294.443 1136.12 294.49L1138.93 295.545C1139 295.766 1139.06 295.987 1139.13 296.207L1137.37 298.648C1137.1 299.034 1137.18 299.572 1137.57 299.85 1137.68 299.927 1137.8 299.979 1137.93 300L1140.91 300.486C1141.02 300.688 1141.12 300.891 1141.23 301.089L1139.99 303.834C1139.86 304.106 1139.89 304.422 1140.05 304.67 1140.22 304.922 1140.5 305.068 1140.8 305.052L1143.83 304.945C1143.97 305.119 1144.11 305.291 1144.25 305.461L1143.55 308.409C1143.45 308.873 1143.73 309.337 1144.2 309.445 1144.33 309.475 1144.46 309.475 1144.59 309.445L1147.54 308.75C1147.71 308.893 1147.88 309.034 1148.06 309.173L1147.95 312.199C1147.93 312.675 1148.3 313.074 1148.78 313.091 1148.91 313.095 1149.04 313.069 1149.17 313.014L1151.91 311.762C1152.11 311.872 1152.31 311.977 1152.51 312.082L1153 315.061C1153.08 315.53 1153.52 315.849 1153.99 315.773 1154.12 315.751 1154.24 315.699 1154.35 315.621L1156.79 313.863C1157.01 313.934 1157.23 313.996 1157.46 314.06L1158.51 316.873C1158.68 317.318 1159.18 317.543 1159.62 317.375 1159.74 317.329 1159.86 317.254 1159.95 317.159L1162 314.965C1162.22 314.989 1162.46 315.009 1162.69 315.029L1164.27 317.586C1164.52 317.991 1165.05 318.116 1165.45 317.865 1165.57 317.795 1165.66 317.7 1165.73 317.586L1167.32 315.029C1167.55 315.009 1167.78 314.989 1168.01 314.964L1170.06 317.159C1170.38 317.506 1170.93 317.523 1171.28 317.197 1171.37 317.107 1171.45 316.996 1171.49 316.873L1172.55 314.06C1172.77 313.996 1172.99 313.934 1173.21 313.863L1175.65 315.621C1176.03 315.899 1176.57 315.812 1176.85 315.427 1176.93 315.318 1176.98 315.193 1177 315.061L1177.49 312.082C1177.69 311.977 1177.89 311.872 1178.09 311.762L1180.84 313.014C1181.27 313.211 1181.78 313.02 1181.98 312.587 1182.03 312.465 1182.06 312.333 1182.05 312.199L1181.95 309.173C1182.12 309.034 1182.29 308.893 1182.46 308.75L1185.41 309.445C1185.87 309.554 1186.34 309.265 1186.45 308.801 1186.48 308.672 1186.48 308.538 1186.45 308.409L1185.75 305.461C1185.89 305.291 1186.03 305.12 1186.17 304.945L1189.2 305.052C1189.5 305.065 1189.78 304.92 1189.95 304.67 1190.11 304.422 1190.14 304.106 1190.01 303.834L1188.76 301.09C1188.87 300.891 1188.98 300.688 1189.08 300.486L1192.06 300C1192.53 299.924 1192.85 299.481 1192.77 299.011 1192.75 298.88 1192.7 298.756 1192.62 298.648L1190.86 296.207C1190.93 295.987 1191 295.766 1191.06 295.545L1193.87 294.49C1194.32 294.323 1194.54 293.826 1194.38 293.381 1194.33 293.257 1194.26 293.145 1194.16 293.054L1191.96 291.004C1191.99 290.775 1192.01 290.545 1192.03 290.316L1194.59 288.732C1194.99 288.482 1195.12 287.951 1194.87 287.547 1194.8 287.433 1194.7 287.338 1194.59 287.268ZM1176.9 302.394C1176.02 302.205 1175.15 302.766 1174.96 303.646L1174.07 307.826C1168.24 310.466 1161.55 310.435 1155.74 307.739L1154.85 303.56C1154.66 302.682 1153.8 302.122 1152.92 302.308 1152.92 302.308 1152.92 302.308 1152.92 302.309L1149.23 303.101C1148.54 302.394 1147.9 301.642 1147.32 300.85L1165.27 300.85C1165.47 300.85 1165.61 300.816 1165.61 300.626L1165.61 294.275C1165.61 294.091 1165.47 294.052 1165.27 294.052L1160.02 294.052 1160.02 290.026 1165.7 290.026C1166.22 290.026 1168.48 290.176 1169.19 293.058 1169.42 293.943 1169.92 296.824 1170.26 297.745 1170.59 298.779 1171.97 300.846 1173.43 300.846L1182.7 300.846C1182.07 301.678 1181.4 302.465 1180.66 303.2ZM1179.92 306.436C1179.92 307.422 1179.12 308.222 1178.13 308.222 1177.14 308.222 1176.34 307.422 1176.34 306.436 1176.34 305.452 1177.14 304.653 1178.13 304.65L1178.18 304.65C1179.14 304.677 1179.91 305.469 1179.91 306.436ZM1153.48 306.356C1153.48 307.343 1152.68 308.142 1151.69 308.141 1150.7 308.14 1149.9 307.34 1149.91 306.354 1149.91 305.368 1150.7 304.57 1151.69 304.569L1151.74 304.569C1152.71 304.601 1153.47 305.392 1153.47 306.356ZM1143.15 285.439 1147 283.729C1147.82 283.365 1148.19 282.404 1147.83 281.582 1147.83 281.582 1147.83 281.581 1147.83 281.58L1147.03 279.797 1150.15 279.797 1150.15 293.828 1143.87 293.828C1143.09 291.104 1142.85 288.255 1143.15 285.439ZM1141.83 281.214C1141.83 280.227 1142.63 279.427 1143.62 279.427L1143.67 279.427C1144.66 279.454 1145.43 280.276 1145.41 281.262 1145.38 282.248 1144.56 283.025 1143.57 282.997 1142.6 282.97 1141.84 282.179 1141.84 281.212ZM1160.02 284.084 1160.02 279.945 1167.44 279.945C1167.82 279.945 1170.14 280.386 1170.14 282.127 1170.14 283.567 1168.36 284.084 1166.89 284.084ZM1181.76 293.943C1180.61 294.075 1179.34 293.46 1179.18 292.76 1178.5 288.953 1177.38 288.143 1175.6 286.737 1177.81 285.336 1180.1 283.263 1180.1 280.495 1180.1 277.505 1178.05 275.621 1176.66 274.697 1174.69 273.408 1172.52 273.146 1171.94 273.146L1148.63 273.146C1151.85 269.546 1156.17 267.108 1160.92 266.21L1163.67 269.093C1164.29 269.741 1165.31 269.768 1165.96 269.151 1165.97 269.149 1165.97 269.147 1165.97 269.145L1169.05 266.215C1175.39 267.403 1180.89 271.322 1184.09 276.929L1181.98 281.684C1181.63 282.506 1181.99 283.463 1182.81 283.832L1186.87 285.628C1186.99 286.895 1187.01 288.171 1186.91 289.441L1184.65 289.441C1184.43 289.441 1184.34 289.59 1184.34 289.808L1184.34 290.842C1184.34 293.273 1182.97 293.81 1181.76 293.943ZM1163.13 265.056C1163.13 264.072 1163.92 263.275 1164.91 263.273L1164.96 263.273C1165.95 263.301 1166.72 264.122 1166.7 265.108 1166.67 266.094 1165.85 266.871 1164.86 266.844 1163.89 266.817 1163.12 266.024 1163.13 265.056ZM1186.19 283.078C1185.21 283.078 1184.41 282.279 1184.41 281.292 1184.41 280.306 1185.21 279.506 1186.19 279.506L1186.24 279.506C1187.23 279.521 1188.02 280.332 1188 281.318 1187.99 282.304 1187.18 283.092 1186.19 283.078Z"
             fill="#2F5597"
             id="path58" />
        </g>
      </g>
    </g>
    <g
       clip-path="url(#clip10)"
       id="g64">
      <g
         clip-path="url(#clip11)"
         id="g63">
        <g
           clip-path="url(#clip12)"
           id="g62">
          <path
             d="M1095.55 377.668C1096.7 376.883 1098.29 376.203 1098.29 376.203 1098.29 376.203 1093.75 377.023 1089.24 377.398 1083.72 377.855 1077.79 377.949 1074.82 377.551 1067.77 376.613 1078.68 374.023 1078.68 374.023 1078.68 374.023 1074.45 373.742 1069.24 376.25 1063.09 379.227 1084.47 380.586 1095.55 377.668ZM1085.54 373.906C1083.31 368.902 1075.8 364.508 1085.54 356.82 1097.69 347.234 1091.46 341 1091.46 341 1093.98 350.902 1082.6 353.902 1078.49 360.055 1075.68 364.262 1079.86 368.773 1085.54 373.906ZM1098.97 353.258C1098.98 353.258 1078.44 358.391 1088.25 369.688 1091.14 373.016 1087.49 376.016 1087.49 376.016 1087.49 376.016 1094.83 372.219 1091.46 367.473 1088.31 363.043 1085.89 360.84 1098.97 353.258ZM1098.25 384.957C1098.19 385.069 1098.11 385.171 1098.02 385.262 1113.06 381.313 1107.52 371.328 1100.34 373.859 1099.95 374.002 1099.62 374.259 1099.38 374.598 1099.8 374.446 1100.23 374.328 1100.67 374.246 1104.3 373.484 1109.52 379.109 1098.25 384.957ZM1103.78 392.258C1103.78 392.258 1105.48 393.652 1101.92 394.742 1095.13 396.793 1073.7 397.414 1067.75 394.824 1065.6 393.898 1069.62 392.598 1070.89 392.328 1072.2 392.047 1072.96 392.094 1072.96 392.094 1070.58 390.418 1057.57 395.387 1066.35 396.805 1090.29 400.695 1109.99 395.059 1103.78 392.258ZM1077.58 387.406C1068.36 389.984 1083.2 395.305 1094.94 390.277 1093.79 389.832 1092.69 389.291 1091.63 388.66 1086.4 389.656 1083.97 389.727 1079.21 389.188 1075.29 388.742 1077.58 387.406 1077.58 387.406ZM1098.65 398.797C1089.43 400.531 1078.05 400.332 1071.31 399.219 1071.31 399.207 1072.7 400.355 1079.8 400.813 1090.6 401.504 1107.2 400.426 1107.58 395.316 1107.58 395.316 1106.83 397.25 1098.65 398.797ZM1093.54 382.367C1086.61 383.703 1082.59 383.668 1077.51 383.141 1073.59 382.73 1076.15 380.832 1076.15 380.832 1065.98 384.207 1081.8 388.027 1096.02 383.867 1095.1 383.543 1094.26 383.032 1093.54 382.367Z"
             fill="#2F5597"
             id="path61" />
        </g>
      </g>
    </g>
    <g
       clip-path="url(#clip13)"
       id="g67">
      <g
         clip-path="url(#clip14)"
         id="g66">
        <g
           clip-path="url(#clip15)"
           id="g65">
          <path
             d="M26 58.9643C25.2223 58.9643 24.433 58.7554 23.7482 58.3607L16.5866 54.1241C15.5187 53.5205 16.0411 53.3116 16.3893 53.1955 17.817 52.6964 18.1071 52.592 19.6277 51.7214 19.7902 51.6286 19.9991 51.6634 20.1616 51.7679L25.6634 55.0295C25.8607 55.1455 26.1393 55.1455 26.325 55.0295L47.7634 42.6563C47.9607 42.5402 48.0884 42.308 48.0884 42.0759L48.0884 17.3295C48.0884 17.0857 47.9607 16.8652 47.7518 16.7375L26.325 4.37589C26.1277 4.25982 25.8607 4.25982 25.6634 4.37589L4.24821 16.7491C4.03929 16.8652 3.91161 17.0973 3.91161 17.3411L3.91161 42.0759C3.91161 42.308 4.03929 42.5402 4.24821 42.6446L10.1214 46.0339C13.3134 47.6241 15.2634 45.7554 15.2634 43.8634L15.2634 19.442C15.2634 19.0938 15.542 18.8268 15.8902 18.8268L18.6063 18.8268C18.9429 18.8268 19.233 19.0938 19.233 19.442L19.233 43.875C19.233 48.1232 16.9116 50.5607 12.8839 50.5607 11.642 50.5607 10.667 50.5607 7.95089 49.2143L2.33304 45.9759C0.940179 45.175 0.08125 43.6777 0.08125 42.0643L0.08125 17.3295C0.08125 15.7277 0.940179 14.2188 2.33304 13.4179L23.7482 1.04464C25.1062 0.278571 26.9054 0.278571 28.2518 1.04464L49.6902 13.4295C51.083 14.2304 51.942 15.7277 51.942 17.3411L51.942 42.0759C51.942 43.6777 51.083 45.175 49.6902 45.9875L28.2518 58.3607C27.567 58.7554 26.7893 58.9643 26 58.9643ZM43.3062 34.5777C43.3062 29.9464 40.1723 28.7161 33.5911 27.8455 26.9286 26.9634 26.2554 26.5107 26.2554 24.9554 26.2554 23.667 26.8241 21.9491 31.7571 21.9491 36.1563 21.9491 37.7813 22.9009 38.4545 25.8723 38.5125 26.1509 38.7679 26.3598 39.058 26.3598L41.8438 26.3598C42.0179 26.3598 42.1804 26.2902 42.2964 26.1625 42.4125 26.0348 42.4705 25.8607 42.4589 25.6866 42.0295 20.5679 38.6286 18.1884 31.7571 18.1884 25.6402 18.1884 21.9955 20.7652 21.9955 25.0946 21.9955 29.7839 25.6286 31.0839 31.4902 31.6643 38.5125 32.3491 39.058 33.3821 39.058 34.7634 39.058 37.1545 37.1312 38.1759 32.6161 38.1759 26.9402 38.1759 25.6982 36.7482 25.2804 33.9277 25.2339 33.6259 24.9786 33.4054 24.6652 33.4054L21.8911 33.4054C21.5429 33.4054 21.2759 33.6839 21.2759 34.0205 21.2759 37.6304 23.2375 41.9366 32.6277 41.9366 39.4063 41.925 43.3062 39.2438 43.3062 34.5777Z"
             fill="#2F5597"
             transform="matrix(1 0 -0 1.00962 1060 258)"
             id="path64" />
        </g>
      </g>
    </g>
    <g
       clip-path="url(#clip16)"
       id="g70">
      <g
         clip-path="url(#clip17)"
         id="g69">
        <g
           clip-path="url(#clip18)"
           id="g68">
          <path
             d="M21.7617 31.418 30.6914 31.418 26.2266 20.6836 21.7617 31.418ZM26.2266 3.75 1.875 12.4688 5.60156 44.7773 26.2266 56.25 46.8516 44.7773 50.5781 12.4688ZM41.4844 43.8047 35.7891 43.8047 32.7188 36.1406 19.7578 36.1406 16.6875 43.8047 10.9805 43.8047 26.2266 9.55078Z"
             fill="#2F5597"
             transform="matrix(1.00952 0 -0 1 1139 341)"
             id="path67" />
        </g>
      </g>
    </g>
    <rect
       x="478"
       y="206"
       width="387"
       height="331"
       fill="#B4C7E7"
       id="rect70" />
    <text
       font-family="Calibri,Calibri_MSFontService,sans-serif"
       font-weight="700"
       font-size="24"
       transform="translate(612.621 233)"
       id="text70">Docker host</text>
    <rect
       x="490"
       y="257"
       width="363"
       height="51"
       fill="#2F5597"
       id="rect71" />
    <text
       fill="#FFFFFF"
       font-family="Calibri,Calibri_MSFontService,sans-serif"
       font-weight="400"
       font-size="24"
       transform="translate(594.374 290)"
       id="text71">Docker daemon</text>
    <rect
       x="490"
       y="320"
       width="175"
       height="206"
       fill="#8FAADC"
       id="rect72" />
    <text
       fill="#FFFFFF"
       font-family="Calibri,Calibri_MSFontService,sans-serif"
       font-weight="400"
       font-size="24"
       transform="translate(525.243 346)"
       id="text72">Containers</text>
    <rect
       x="678"
       y="320"
       width="174"
       height="206"
       fill="#8FAADC"
       id="rect73" />
    <text
       fill="#FFFFFF"
       font-family="Calibri,Calibri_MSFontService,sans-serif"
       font-weight="400"
       font-size="24"
       transform="translate(730.542 346)"
       id="text73">Images</text>
    <g
       clip-path="url(#clip19)"
       id="g75">
      <g
         clip-path="url(#clip20)"
         id="g74">
        <g
           clip-path="url(#clip21)"
           id="g73">
          <path
             d="M55.7266 20.1906 50.1922 3.5875C49.4813 1.44375 47.4797 0 45.2156 0L29.75 0 29.75 21 55.8578 21C55.8141 20.7266 55.8141 20.4531 55.7266 20.1906ZM26.25 0 10.7844 0C8.52031 0 6.51875 1.44375 5.80781 3.5875L0.273438 20.1906C0.185938 20.4531 0.185938 20.7266 0.142187 21L26.25 21 26.25 0ZM0 24.5 0 50.75C0 53.6484 2.35156 56 5.25 56L50.75 56C53.6484 56 56 53.6484 56 50.75L56 24.5 0 24.5Z"
             fill="#2F5597"
             transform="matrix(1.01786 0 -0 1 501 365)"
             id="path73" />
        </g>
      </g>
    </g>
    <g
       clip-path="url(#clip22)"
       id="g78">
      <g
         clip-path="url(#clip23)"
         id="g77">
        <g
           clip-path="url(#clip24)"
           id="g76">
          <path
             d="M720 364.938C703.98 364.938 690.938 377.969 690.938 394 690.938 410.02 703.98 423.063 720 423.063 736.02 423.063 749.063 410.02 749.063 394 749.063 377.969 736.02 364.938 720 364.938ZM693.867 394C693.867 390.215 694.676 386.617 696.129 383.371L708.598 417.52C699.879 413.277 693.867 404.336 693.867 394ZM720 420.133C717.434 420.133 714.961 419.758 712.617 419.066L720.457 396.285 728.484 418.293C728.543 418.422 728.602 418.539 728.672 418.656 725.965 419.605 723.047 420.133 720 420.133ZM723.598 381.754C725.168 381.672 726.586 381.508 726.586 381.508 727.992 381.344 727.828 379.27 726.422 379.352 726.422 379.352 722.191 379.68 719.461 379.68 716.895 379.68 712.582 379.352 712.582 379.352 711.176 379.27 711.012 381.426 712.418 381.508 712.418 381.508 713.754 381.672 715.16 381.754L719.227 392.91 713.508 410.055 703.992 381.754C705.563 381.672 706.98 381.508 706.98 381.508 708.387 381.344 708.223 379.27 706.816 379.352 706.816 379.352 702.586 379.68 699.855 379.68 699.363 379.68 698.789 379.668 698.168 379.645 702.844 372.555 710.871 367.867 720 367.867 726.797 367.867 732.996 370.469 737.648 374.723 737.531 374.711 737.426 374.699 737.309 374.699 734.742 374.699 732.926 376.938 732.926 379.34 732.926 381.496 734.168 383.313 735.492 385.469 736.488 387.203 737.648 389.441 737.648 392.676 737.648 394.914 736.793 397.504 735.656 401.125L733.055 409.832 723.598 381.754ZM733.137 416.582 741.117 393.508C742.605 389.781 743.109 386.805 743.109 384.145 743.109 383.184 743.051 382.293 742.934 381.461 744.973 385.188 746.133 389.453 746.133 394 746.133 403.645 740.906 412.059 733.137 416.582Z"
             fill="#2F5597"
             id="path75" />
        </g>
      </g>
    </g>
    <g
       clip-path="url(#clip25)"
       id="g81">
      <g
         clip-path="url(#clip26)"
         id="g80">
        <g
           clip-path="url(#clip27)"
           id="g79">
          <path
             d="M52.5 8.57145 52.5 13.9286C52.5 18.6496 40.7422 22.5 26.25 22.5 11.7578 22.5 0 18.6496 0 13.9286L0 8.57145C0 3.85043 11.7578 0 26.25 0 40.7422 0 52.5 3.85043 52.5 8.57145ZM52.5 20.625 52.5 32.6786C52.5 37.3996 40.7422 41.25 26.25 41.25 11.7578 41.25 0 37.3996 0 32.6786L0 20.625C5.63965 24.5089 15.9619 26.317 26.25 26.317 36.5381 26.317 46.8602 24.5089 52.5 20.625ZM52.5 39.375 52.5 51.4286C52.5 56.1496 40.7422 60 26.25 60 11.7578 60 0 56.1496 0 51.4286L0 39.375C5.63965 43.2589 15.9619 45.067 26.25 45.067 36.5381 45.067 46.8602 43.2589 52.5 39.375Z"
             fill="#2F5597"
             transform="matrix(1.00952 0 -0 1 694 445)"
             id="path78" />
        </g>
      </g>
    </g>
    <g
       clip-path="url(#clip28)"
       id="g84">
      <g
         clip-path="url(#clip29)"
         id="g83">
        <g
           clip-path="url(#clip30)"
           id="g82">
          <path
             d="M820.548 394.668C821.696 393.883 823.29 393.203 823.29 393.203 823.29 393.203 818.755 394.023 814.243 394.398 808.723 394.855 802.794 394.949 799.817 394.551 792.774 393.613 803.684 391.023 803.684 391.023 803.684 391.023 799.454 390.742 794.239 393.25 788.087 396.227 809.473 397.586 820.548 394.668ZM810.54 390.906C808.313 385.902 800.802 381.508 810.54 373.82 822.688 364.234 816.458 358 816.458 358 818.977 367.902 807.598 370.902 803.485 377.055 800.684 381.262 804.856 385.773 810.54 390.906ZM823.97 370.258C823.981 370.258 803.438 375.391 813.247 386.688 816.141 390.016 812.485 393.016 812.485 393.016 812.485 393.016 819.833 389.219 816.458 384.473 813.305 380.043 810.891 377.84 823.97 370.258ZM823.255 401.957C823.191 402.069 823.112 402.171 823.02 402.262 838.055 398.313 832.524 388.328 825.341 390.859 824.953 391.002 824.617 391.259 824.38 391.598 824.799 391.446 825.23 391.328 825.669 391.246 829.302 390.484 834.516 396.109 823.255 401.957ZM828.781 409.258C828.781 409.258 830.48 410.652 826.918 411.742 820.133 413.793 798.699 414.414 792.746 411.824 790.602 410.898 794.621 409.598 795.887 409.328 797.199 409.047 797.961 409.094 797.961 409.094 795.582 407.418 782.574 412.387 791.352 413.805 815.286 417.695 834.992 412.059 828.781 409.258ZM802.583 404.406C793.36 406.984 808.196 412.305 819.938 407.277 818.793 406.832 817.688 406.291 816.634 405.66 811.395 406.656 808.97 406.727 804.212 406.188 800.286 405.742 802.583 404.406 802.583 404.406ZM823.653 415.797C814.43 417.531 803.052 417.332 796.313 416.219 796.313 416.207 797.696 417.355 804.798 417.813 815.602 418.504 832.196 417.426 832.583 412.316 832.583 412.316 831.833 414.25 823.653 415.797ZM818.544 399.367C811.606 400.703 807.587 400.668 802.513 400.141 798.587 399.73 801.153 397.832 801.153 397.832 790.981 401.207 806.802 405.027 821.016 400.867 820.098 400.543 819.256 400.032 818.544 399.367Z"
             fill="#2F5597"
             id="path81" />
        </g>
      </g>
    </g>
    <g
       clip-path="url(#clip31)"
       id="g87">
      <g
         clip-path="url(#clip32)"
         id="g86">
        <g
           clip-path="url(#clip33)"
           id="g85">
          <path
             d="M21.875 3.57144 21.875 5.80356C21.875 7.77065 16.9759 9.375 10.9375 9.375 4.89907 9.375 0 7.77065 0 5.80356L0 3.57144C0 1.60435 4.89907 0 10.9375 0 16.9759 0 21.875 1.60435 21.875 3.57144ZM21.875 8.59375 21.875 13.6161C21.875 15.5832 16.9759 17.1875 10.9375 17.1875 4.89907 17.1875 0 15.5832 0 13.6161L0 8.59375C2.34985 10.2121 6.65078 10.9654 10.9375 10.9654 15.2242 10.9654 19.5251 10.2121 21.875 8.59375ZM21.875 16.4063 21.875 21.4286C21.875 23.3957 16.9759 25 10.9375 25 4.89907 25 0 23.3957 0 21.4286L0 16.4063C2.34985 18.0246 6.65078 18.7779 10.9375 18.7779 15.2242 18.7779 19.5251 18.0246 21.875 16.4063Z"
             fill="#FFFFFF"
             transform="matrix(1.00571 0 -0 1 519 393)"
             id="path84" />
        </g>
      </g>
    </g>
    <g
       clip-path="url(#clip34)"
       id="g90">
      <g
         clip-path="url(#clip35)"
         id="g89">
        <g
           clip-path="url(#clip36)"
           id="g88">
          <path
             d="M557.722 470.551 552.089 453.652C551.365 451.47 549.328 450 547.023 450L531.281 450 531.281 471.375 557.855 471.375C557.811 471.097 557.811 470.818 557.722 470.551ZM527.719 450 511.977 450C509.672 450 507.635 451.47 506.912 453.652L501.278 470.551C501.189 470.818 501.189 471.097 501.145 471.375L527.719 471.375 527.719 450ZM501 474.938 501 501.656C501 504.606 503.394 507 506.344 507L552.656 507C555.606 507 558 504.606 558 501.656L558 474.938 501 474.938Z"
             fill="#2F5597"
             id="path87" />
        </g>
      </g>
    </g>
    <g
       clip-path="url(#clip37)"
       id="g93">
      <g
         clip-path="url(#clip38)"
         id="g92">
        <g
           clip-path="url(#clip39)"
           id="g91">
          <path
             d="M22 3.59184 22 5.83673C22 7.81506 17.0729 9.42857 11 9.42857 4.92707 9.42857 0 7.81506 0 5.83673L0 3.59184C0 1.61351 4.92707 0 11 0 17.0729 0 22 1.61351 22 3.59184ZM22 8.64286 22 13.6939C22 15.6722 17.0729 17.2857 11 17.2857 4.92707 17.2857 0 15.6722 0 13.6939L0 8.64286C2.36328 10.2704 6.68879 11.0281 11 11.0281 15.3112 11.0281 19.6367 10.2704 22 8.64286ZM22 16.5 22 21.551C22 23.5293 17.0729 25.1429 11 25.1429 4.92707 25.1429 0 23.5293 0 21.551L0 16.5C2.36328 18.1276 6.68879 18.8852 11 18.8852 15.3112 18.8852 19.6367 18.1276 22 16.5Z"
             fill="#FFFFFF"
             transform="matrix(1 0 -0 1.03409 519 478)"
             id="path90" />
        </g>
      </g>
    </g>
    <g
       clip-path="url(#clip40)"
       id="g96">
      <g
         clip-path="url(#clip41)"
         id="g95">
        <g
           clip-path="url(#clip42)"
           id="g94">
          <path
             d="M649.727 385.191 644.192 368.587C643.481 366.444 641.48 365 639.216 365L623.75 365 623.75 386 649.858 386C649.814 385.727 649.814 385.453 649.727 385.191ZM620.25 365 604.784 365C602.52 365 600.519 366.444 599.808 368.587L594.273 385.191C594.186 385.453 594.186 385.727 594.142 386L620.25 386 620.25 365ZM594 389.5 594 415.75C594 418.648 596.352 421 599.25 421L644.75 421C647.648 421 650 418.648 650 415.75L650 389.5 594 389.5Z"
             fill="#2F5597"
             id="path93" />
        </g>
      </g>
    </g>
    <g
       clip-path="url(#clip43)"
       id="g99">
      <g
         clip-path="url(#clip44)"
         id="g98">
        <g
           clip-path="url(#clip45)"
           id="g97">
          <path
             d="M14 0.4375C6.52422 0.4375 0.4375 6.51875 0.4375 14 0.4375 21.4758 6.52422 27.5625 14 27.5625 21.4758 27.5625 27.5625 21.4758 27.5625 14 27.5625 6.51875 21.4758 0.4375 14 0.4375ZM1.80469 14C1.80469 12.2336 2.18203 10.5547 2.86016 9.03984L8.67891 24.9758C4.61016 22.9961 1.80469 18.8234 1.80469 14ZM14 26.1953C12.8023 26.1953 11.6484 26.0203 10.5547 25.6977L14.2133 15.0664 17.9594 25.3367C17.9867 25.3969 18.0141 25.4516 18.0469 25.5063 16.7836 25.9492 15.4219 26.1953 14 26.1953ZM15.6789 8.28516C16.4117 8.24687 17.0734 8.17031 17.0734 8.17031 17.7297 8.09375 17.6531 7.12578 16.9969 7.16406 16.9969 7.16406 15.0227 7.31719 13.7484 7.31719 12.5508 7.31719 10.5383 7.16406 10.5383 7.16406 9.88203 7.12578 9.80547 8.13203 10.4617 8.17031 10.4617 8.17031 11.0852 8.24687 11.7414 8.28516L13.6391 13.4914 10.9703 21.4922 6.52969 8.28516C7.2625 8.24687 7.92422 8.17031 7.92422 8.17031 8.58047 8.09375 8.50391 7.12578 7.84766 7.16406 7.84766 7.16406 5.87344 7.31719 4.59922 7.31719 4.36953 7.31719 4.10156 7.31172 3.81172 7.30078 5.99375 3.99219 9.73984 1.80469 14 1.80469 17.1719 1.80469 20.0648 3.01875 22.2359 5.00391 22.1812 4.99844 22.132 4.99297 22.0773 4.99297 20.8797 4.99297 20.032 6.0375 20.032 7.15859 20.032 8.16484 20.6117 9.0125 21.2297 10.0188 21.6945 10.8281 22.2359 11.8727 22.2359 13.382 22.2359 14.4266 21.8367 15.6352 21.3062 17.325L20.0922 21.3883 15.6789 8.28516ZM20.1305 24.5383 23.8547 13.7703C24.5492 12.0313 24.7844 10.6422 24.7844 9.40078 24.7844 8.95234 24.757 8.53672 24.7023 8.14844 25.6539 9.8875 26.1953 11.8781 26.1953 14 26.1953 18.5008 23.7563 22.4273 20.1305 24.5383Z"
             fill="#FFFFFF"
             transform="matrix(1.03571 0 -0 1 609 390)"
             id="path96" />
        </g>
      </g>
    </g>
    <g
       clip-path="url(#clip46)"
       id="g102">
      <g
         clip-path="url(#clip47)"
         id="g101">
        <g
           clip-path="url(#clip48)"
           id="g100">
          <path
             d="M649.727 468.191 644.192 451.587C643.481 449.444 641.48 448 639.216 448L623.75 448 623.75 469 649.858 469C649.814 468.727 649.814 468.453 649.727 468.191ZM620.25 448 604.784 448C602.52 448 600.519 449.444 599.808 451.587L594.273 468.191C594.186 468.453 594.186 468.727 594.142 469L620.25 469 620.25 448ZM594 472.5 594 498.75C594 501.648 596.352 504 599.25 504L644.75 504C647.648 504 650 501.648 650 498.75L650 472.5 594 472.5Z"
             fill="#2F5597"
             id="path99" />
        </g>
      </g>
    </g>
    <g
       clip-path="url(#clip49)"
       id="g105">
      <g
         clip-path="url(#clip50)"
         id="g104">
        <g
           clip-path="url(#clip51)"
           id="g103">
          <path
             d="M14 0.4375C6.52422 0.4375 0.4375 6.51875 0.4375 14 0.4375 21.4758 6.52422 27.5625 14 27.5625 21.4758 27.5625 27.5625 21.4758 27.5625 14 27.5625 6.51875 21.4758 0.4375 14 0.4375ZM1.80469 14C1.80469 12.2336 2.18203 10.5547 2.86016 9.03984L8.67891 24.9758C4.61016 22.9961 1.80469 18.8234 1.80469 14ZM14 26.1953C12.8023 26.1953 11.6484 26.0203 10.5547 25.6977L14.2133 15.0664 17.9594 25.3367C17.9867 25.3969 18.0141 25.4516 18.0469 25.5063 16.7836 25.9492 15.4219 26.1953 14 26.1953ZM15.6789 8.28516C16.4117 8.24687 17.0734 8.17031 17.0734 8.17031 17.7297 8.09375 17.6531 7.12578 16.9969 7.16406 16.9969 7.16406 15.0227 7.31719 13.7484 7.31719 12.5508 7.31719 10.5383 7.16406 10.5383 7.16406 9.88203 7.12578 9.80547 8.13203 10.4617 8.17031 10.4617 8.17031 11.0852 8.24687 11.7414 8.28516L13.6391 13.4914 10.9703 21.4922 6.52969 8.28516C7.2625 8.24687 7.92422 8.17031 7.92422 8.17031 8.58047 8.09375 8.50391 7.12578 7.84766 7.16406 7.84766 7.16406 5.87344 7.31719 4.59922 7.31719 4.36953 7.31719 4.10156 7.31172 3.81172 7.30078 5.99375 3.99219 9.73984 1.80469 14 1.80469 17.1719 1.80469 20.0648 3.01875 22.2359 5.00391 22.1812 4.99844 22.132 4.99297 22.0773 4.99297 20.8797 4.99297 20.032 6.0375 20.032 7.15859 20.032 8.16484 20.6117 9.0125 21.2297 10.0188 21.6945 10.8281 22.2359 11.8727 22.2359 13.382 22.2359 14.4266 21.8367 15.6352 21.3062 17.325L20.0922 21.3883 15.6789 8.28516ZM20.1305 24.5383 23.8547 13.7703C24.5492 12.0313 24.7844 10.6422 24.7844 9.40078 24.7844 8.95234 24.757 8.53672 24.7023 8.14844 25.6539 9.8875 26.1953 11.8781 26.1953 14 26.1953 18.5008 23.7563 22.4273 20.1305 24.5383Z"
             fill="#FFFFFF"
             transform="matrix(1.03571 0 -0 1 609 473)"
             id="path102" />
        </g>
      </g>
    </g>
    <rect
       x="84"
       y="209"
       width="300"
       height="202"
       fill="#B4C7E7"
       id="rect105" />
    <text
       font-family="Calibri,Calibri_MSFontService,sans-serif"
       font-weight="700"
       font-size="24"
       transform="translate(205.422 235)"
       id="text105">Client</text>
    <rect
       x="94"
       y="250"
       width="283"
       height="34"
       fill="#2F5597"
       id="rect106" />
    <text
       fill="#ffffff"
       font-family="Calibri, Calibri_MSFontService, sans-serif"
       font-weight="400"
       font-size="24"
       id="text106"
       style="font-size:18.6667px"
       x="133.83267"
       y="273.9736">Docker pull wordpress</text>
    <rect
       x="94"
       y="289"
       width="283"
       height="34"
       fill="#2F5597"
       id="rect107" />
    <text
       fill="#ffffff"
       font-family="Calibri, Calibri_MSFontService, sans-serif"
       font-weight="400"
       font-size="24"
       id="text107"
       style="font-size:18.6667px"
       x="157.33911"
       y="311.79935">Docker pull <tspan
   x="272.73212"
   y="311.79935"
   id="tspan107"
   style="font-size:18.6667px">mysql</tspan></text>
    <rect
       x="94"
       y="328"
       width="283"
       height="34"
       fill="#2F5597"
       id="rect108" />
    <text
       fill="#ffffff"
       font-family="Calibri, Calibri_MSFontService, sans-serif"
       font-weight="400"
       font-size="24"
       id="text108"
       style="font-size:18.6667px"
       x="157.38174"
       y="349.52194">Docker run mysql</text>
    <rect
       x="94"
       y="367"
       width="282"
       height="34"
       fill="#2F5597"
       id="rect109" />
    <text
       fill="#ffffff"
       font-family="Calibri, Calibri_MSFontService, sans-serif"
       font-weight="400"
       font-size="24"
       id="text109"
       style="font-size:18.6667px"
       x="136.26765"
       y="391.40579">Docker run wordpress</text>
    <path
       d="M0.174278-2.66097 101.437 3.97117 101.089 9.2931-0.174278 2.66097ZM99.1246-1.52505 114.568 7.50352 98.0789 14.4407Z"
       fill="#FF0000"
       transform="matrix(1 0 0 -1 377.5 268.004)"
       id="path109" />
    <path
       d="M850.856 280.835 881.606 273.96 896.612 270.646 911.254 267.455 925.211 264.513 938.547 261.821 950.947 259.441 962.309 257.37 972.559 255.798 981.507 254.6 985.466 254.217 989.102 253.962 992.289 253.832 995.142 253.898 997.632 254.106 999.812 254.557 1001.75 255.295 1003.48 256.76 1004.24 259.048 1003.84 261.311 1002.62 263.199 1001.03 264.938 998.673 266.878 995.463 269.106 991.437 271.598 986.572 274.441 981.018 277.534 974.677 280.861 967.722 284.495 960.193 288.322 952.053 292.33 943.484 296.521 934.532 300.903 925.141 305.348 905.507 314.602 885.119 324.108 864.36 333.612 843.73 343.052 823.721 352.119 814.09 356.434 804.781 360.62 804.791 360.615 795.844 364.682 787.272 368.499 779.272 372.061 779.289 372.053 771.844 375.432 764.96 378.498 764.978 378.49 760.743 380.414 758.537 375.559 762.781 373.631 769.665 370.564 769.648 370.572 777.094 367.193 785.103 363.626 793.665 359.814 793.647 359.822 802.589 355.758 811.91 351.566 821.535 347.254 821.524 347.259 841.524 338.196 841.516 338.2 862.14 328.763 882.89 319.263 882.873 319.271 903.248 309.771 903.238 309.775 922.859 300.527 932.234 296.09 932.203 296.105 941.141 291.73 949.697 287.545 957.822 283.545 957.792 283.56 965.292 279.748 965.265 279.762 972.198 276.139 978.511 272.826 978.453 272.858 983.953 269.795 983.905 269.823 988.717 267.01 988.659 267.045 992.596 264.608 992.48 264.684 995.542 262.559 995.367 262.692 997.492 260.942 997.218 261.202 998.531 259.764 998.264 260.109 999.077 258.859 998.686 259.849 998.874 258.787 998.97 260.093 998.658 259.156 999.465 260.348 998.653 259.661 999.426 260.117 998.113 259.617 998.522 259.736 996.71 259.361 997.029 259.408 994.779 259.22 994.938 259.229 992.251 259.166 992.421 259.165 989.359 259.29 989.437 259.285 985.874 259.535 985.944 259.529 982.069 259.904 982.166 259.893 973.291 261.081 973.342 261.073 963.154 262.636 963.228 262.623 951.916 264.686 951.94 264.681 939.565 267.056 939.59 267.051 926.278 269.739 926.3 269.734 912.362 272.672 912.38 272.668 897.763 275.854 882.769 279.165 852.019 286.04ZM765.376 384.168 747.5 383.5 758.76 369.6Z"
       fill="#FF0000"
       id="path110" />
    <path
       d="M855.482 280.046 875.112 288.4 873.023 293.307 853.393 284.954ZM889.849 294.693 903.58 300.687 909.399 303.299 907.215 308.165 901.408 305.558 901.433 305.569 887.715 299.581ZM923.997 309.919 933.707 314.404 943.316 319.101 940.974 323.892 931.391 319.208 931.444 319.233 921.76 314.761ZM957.627 326.398 960.771 328.03 972.799 334.831 976.348 337.039 973.531 341.568 970.029 339.389 970.125 339.446 958.188 332.696 958.271 332.742 955.169 331.131ZM989.908 345.908 993.179 348.316 997.406 351.646 1001.2 355.055 1004.63 358.423 1006.32 360.37 1002.29 363.86 1000.67 361.995 1000.82 362.154 997.507 358.904 997.593 358.984 993.906 355.671 994.037 355.782 989.912 352.532 989.982 352.585 986.746 350.203ZM1014.64 375.145 1014.81 375.711 1015.24 379.295 1015.02 382.894 1014.16 386.49 1012.57 390.022 1010.09 393.501 1006.77 396.69 1003.08 392.845 1006.21 389.828 1005.89 390.2 1008.08 387.138 1007.82 387.595 1009.19 384.533 1009.03 385.003 1009.78 381.878 1009.71 382.34 1009.9 379.215 1009.91 379.693 1009.54 376.568 1009.63 377.002 1009.53 376.65ZM992.732 405.695 990.889 406.695 984.094 409.87 976.644 413.09 972.978 414.539 971.018 409.579 974.645 408.145 974.567 408.177 981.942 404.99 981.871 405.022 988.559 401.897 988.416 401.969 990.189 401.007ZM957.882 420.153 950.727 422.652 941.062 425.79 937.555 426.893 935.955 421.805 939.45 420.706 939.427 420.714 949.052 417.589 948.996 417.608 956.123 415.118ZM922.21 431.566 910.237 435.126 901.669 437.503 900.243 432.364 908.787 429.993 908.74 430.006 920.69 426.454ZM886.236 441.772 866.752 447.076 865.627 447.372 864.27 442.214 865.384 441.921 865.362 441.927 884.835 436.626ZM850.153 451.442 845.116 452.767 829.524 456.875 828.165 451.717 843.759 447.609 848.796 446.284ZM814.061 460.94 804.69 463.451 804.7 463.448 795.513 465.948 795.533 465.943 793.501 466.513 792.06 461.378 794.102 460.805 803.305 458.301 812.68 455.788ZM778.165 470.88 771.397 472.927 771.447 472.912 764.697 475.099 764.825 475.054 761.883 476.176 759.983 471.192 762.989 470.047 769.828 467.83 776.62 465.775ZM766.31 480.181 748.5 478.5 760.53 465.261Z"
       fill="#FF0000"
       id="path111" />
    <path
       d="M0.769303-2.55329 21.1956 3.60113 19.657 8.70771-0.769303 2.55329ZM36.5153 8.21695 56.9417 14.3714 55.403 19.4779 34.9767 13.3235ZM72.2614 18.9872 92.6877 25.1416 91.1491 30.2482 70.7228 24.0938ZM100.673 21.9774 113.685 34.2531 96.0573 37.2972Z"
       fill="#FF0000"
       transform="matrix(1 0 0 -1 377.5 306.753)"
       id="path112" />
    <path
       d="M1.07325-2.44116 5.95556-0.294665 3.80907 4.58765-1.07325 2.44116ZM10.8379 1.85183 15.7202 3.99832 13.5737 8.88064 8.69139 6.73414ZM20.6025 6.14481 25.4848 8.29131 23.3383 13.1736 18.456 11.0271ZM30.3671 10.4378 35.2495 12.5843 33.103 17.4666 28.2206 15.3201ZM40.1318 14.7308 45.0141 16.8773 42.8676 21.7596 37.9853 19.6131ZM49.8964 19.0238 54.7787 21.1703 52.6322 26.0526 47.7499 23.9061ZM59.661 23.3168 64.5434 25.4632 62.3969 30.3456 57.5145 28.1991ZM69.4257 27.6097 74.308 29.7562 72.1615 34.6385 67.2792 32.4921ZM79.1903 31.9027 84.0726 34.0492 81.9261 38.9315 77.0438 36.785ZM88.9549 36.1957 93.8373 38.3422 91.6908 43.2245 86.8084 41.078ZM98.7196 40.4887 102.9 42.3265 100.753 47.2088 96.5731 45.371ZM102.605 36.3709 114.032 50.1339 96.1655 51.0179Z"
       fill="#FF0000"
       transform="matrix(1 0 0 -1 377.5 345.634)"
       id="path113" />
    <path
       d="M580.844 303.574 584.697 307.262 581.009 311.114 577.156 307.426ZM588.549 310.95 592.402 314.638 588.714 318.491 584.861 314.802ZM596.255 318.326 600.107 322.014 596.419 325.867 592.567 322.179ZM603.96 325.702 605.726 327.393 607.812 329.419 604.095 333.245 602.017 331.225 602.031 331.239 600.272 329.555ZM611.637 333.135 615.462 336.852 611.746 340.677 607.921 336.961ZM619.288 340.568 623.113 344.285 619.397 348.11 615.571 344.394ZM626.938 348.001 629.872 350.851 630.778 351.757 627.007 355.528 626.114 354.636 626.142 354.663 623.222 351.826ZM634.55 355.528 638.321 359.3 634.55 363.071 630.778 359.3ZM642.102 363.092 645.842 366.895 642.039 370.634 638.3 366.832ZM649.582 370.697 652.605 373.772 653.341 374.546 649.473 378.219 648.754 377.461 648.786 377.495 645.779 374.437ZM657.013 378.414 660.685 382.282 656.817 385.954 653.145 382.086ZM664.37 386.219 667.955 390.167 664.007 393.753 660.421 389.804ZM671.54 394.116 673.118 395.853 675.115 398.149 671.091 401.65 669.113 399.375 669.151 399.418 667.592 397.701ZM678.616 402.173 682.116 406.198 678.092 409.698 674.592 405.674ZM685.557 410.368 688.944 414.488 684.824 417.875 681.438 413.755ZM692.319 418.752 695.541 423.002 691.29 426.224 688.069 421.973ZM698.806 427.385 701.811 431.791 697.405 434.797 694.4 430.391ZM704.901 436.34 707.626 440.925 703.042 443.65 700.317 439.065ZM710.426 445.707 712.783 450.491 707.999 452.848 705.642 448.064ZM715.094 455.634 716.875 460.661 711.848 462.442 710.067 457.415ZM718.245 466.189 719.032 470.06 719.097 471.883 713.767 472.073 713.71 470.47 713.762 470.907 713.019 467.252ZM718.613 477.972 717.712 481.317 716.82 483.387 711.922 481.274 712.739 479.381 712.613 479.744 713.463 476.585ZM713.889 488.553 711.863 491.274 710.336 492.909 706.438 489.27 707.863 487.743 707.674 487.97 709.611 485.368ZM706.35 496.756 705.95 497.122 701.886 500.142 698.705 495.861 702.659 492.922 702.45 493.095 702.75 492.821ZM697.278 503.323 692.695 506.051 689.967 501.468 694.55 498.741ZM687.815 508.657 683.037 511.029 680.666 506.252 685.443 503.88ZM678.016 513.24 673.108 515.329 671.019 510.422 675.927 508.333ZM667.9 517.164 662.857 518.899 661.122 513.856 666.165 512.121ZM657.814 520.634 652.991 522.294 652.638 522.396 651.159 517.271 651.448 517.188 651.32 517.228 656.079 515.591ZM647.513 523.874 643.143 525.135 642.315 525.35 640.973 520.188 641.767 519.982 641.698 520 646.035 518.749ZM637.153 526.692 633.719 527.585 631.958 528.022 630.673 522.846 632.42 522.412 632.392 522.419 635.811 521.53ZM626.782 529.307 624.866 529.782 621.536 530.537 620.358 525.335 623.661 524.587 623.608 524.599 625.497 524.13ZM616.298 531.716 611.081 532.824 609.973 527.607 615.19 526.499ZM605.881 533.948 603.905 534.377 600.425 534.862 599.69 529.579 603.07 529.109 602.871 529.144 604.748 528.736ZM594.704 535.054 593.605 535.039 589.073 534.392 589.828 529.112 594.19 529.735 593.848 529.709 594.775 529.721ZM583.294 532.515 580.227 531.129 578.301 530.034 580.938 525.398 582.756 526.432 582.535 526.32 585.49 527.654ZM573.61 526.888 569.527 523.855 569.11 523.456 572.794 519.6 573.092 519.885 572.84 519.672 576.79 522.606ZM565.254 519.771 563.783 518.366 561.432 516.133 565.106 512.266 567.467 514.51 568.938 515.915ZM559.778 521.876 553.5 505.125 570.668 510.153Z"
       fill="#FF0000"
       id="path114" />
    <path
       d="M1.50448-2.20174 19.1184 9.83411 16.1094 14.2376-1.50448 2.20174ZM32.3288 18.861 36.7323 21.87 33.7233 26.2734 29.3198 23.2645ZM49.9427 30.8968 67.5566 42.9327 64.5476 47.3362 46.9337 35.3003ZM80.767 51.9596 85.1705 54.9685 82.1615 59.372 77.7581 56.363ZM98.3809 63.9954 105.736 69.0216 102.727 73.425 95.372 68.3989ZM106.544 63.1135 115.241 78.7456 97.5166 76.3239Z"
       fill="#FF0000"
       transform="matrix(1 0 0 -1 376.5 384.246)"
       id="path115" />
    <path
       d="M676.905 305.929 686.851 319.566 689.452 323.22 685.106 326.313 682.515 322.671 682.533 322.696 672.596 309.071ZM698.699 336.333 701.716 340.731 697.318 343.748 694.301 339.35ZM710.507 354.222 713.157 358.432 716.58 364.328 719.634 370.054 721.072 373.109 716.246 375.38 714.837 372.386 714.897 372.505 711.897 366.88 711.944 366.964 708.569 361.152 708.618 361.233 705.993 357.063ZM726.544 388.766 726.833 390.191 727.178 394.537 727.142 394.875 721.839 394.306 721.849 394.216 721.842 394.711 721.529 390.774 721.574 391.093 721.317 389.826ZM716.234 408.771 712.031 410.409 706.177 412.035 699.933 413.258 694.955 413.921 694.25 408.635 699.148 407.982 698.987 408.008 705.05 406.821 704.849 406.868 710.474 405.306 710.219 405.39 714.298 403.801ZM678.827 415.594 673.622 415.851 673.481 415.857 673.257 410.529 673.388 410.523 673.368 410.524 678.564 410.267ZM667.5 421.438 651.5 413.438 667.5 405.438Z"
       fill="#FF0000"
       id="path116" />
  </g>
</svg>
