<svg width="1121" height="335" overflow="hidden" xmlns="http://www.w3.org/2000/svg"><defs><clipPath id="a"><path d="M84 203h1121v335H84z" fill-rule="evenodd" clip-rule="evenodd"/></clipPath><clipPath id="b"><path d="M981 341h52v60h-52z" fill-rule="evenodd" clip-rule="evenodd"/></clipPath><clipPath id="c"><path d="M981 341h52v60h-52z" fill-rule="evenodd" clip-rule="evenodd"/></clipPath><clipPath id="d"><path d="M981 341h52v60h-52z" fill-rule="evenodd" clip-rule="evenodd"/></clipPath><clipPath id="e"><path d="M977 258h60v60h-60z" fill-rule="evenodd" clip-rule="evenodd"/></clipPath><clipPath id="f"><path d="M977 258h60v60h-60z" fill-rule="evenodd" clip-rule="evenodd"/></clipPath><clipPath id="g"><path d="M977 258h60v60h-60z" fill-rule="evenodd" clip-rule="evenodd"/></clipPath><clipPath id="h"><path d="M1135 258h60v60h-60z" fill-rule="evenodd" clip-rule="evenodd"/></clipPath><clipPath id="i"><path d="M1135 258h60v60h-60z" fill-rule="evenodd" clip-rule="evenodd"/></clipPath><clipPath id="j"><path d="M1135 258h60v60h-60z" fill-rule="evenodd" clip-rule="evenodd"/></clipPath><clipPath id="k"><path d="M1063 341h45v60h-45z" fill-rule="evenodd" clip-rule="evenodd"/></clipPath><clipPath id="l"><path d="M1063 341h45v60h-45z" fill-rule="evenodd" clip-rule="evenodd"/></clipPath><clipPath id="m"><path d="M1063 341h45v60h-45z" fill-rule="evenodd" clip-rule="evenodd"/></clipPath><clipPath id="n"><path d="M1060 258h52v60h-52z" fill-rule="evenodd" clip-rule="evenodd"/></clipPath><clipPath id="o"><path d="M1060 258h52v60h-52z" fill-rule="evenodd" clip-rule="evenodd"/></clipPath><clipPath id="p"><path d="M1060 258h52v60h-52z" fill-rule="evenodd" clip-rule="evenodd"/></clipPath><clipPath id="q"><path d="M1139 341h53v60h-53z" fill-rule="evenodd" clip-rule="evenodd"/></clipPath><clipPath id="r"><path d="M1139 341h53v60h-53z" fill-rule="evenodd" clip-rule="evenodd"/></clipPath><clipPath id="s"><path d="M1139 341h53v60h-53z" fill-rule="evenodd" clip-rule="evenodd"/></clipPath><clipPath id="t"><path d="M501 365h57v56h-57z" fill-rule="evenodd" clip-rule="evenodd"/></clipPath><clipPath id="u"><path d="M501 365h57v56h-57z" fill-rule="evenodd" clip-rule="evenodd"/></clipPath><clipPath id="v"><path d="M501 365h57v56h-57z" fill-rule="evenodd" clip-rule="evenodd"/></clipPath><clipPath id="w"><path d="M690 364h60v60h-60z" fill-rule="evenodd" clip-rule="evenodd"/></clipPath><clipPath id="x"><path d="M690 364h60v60h-60z" fill-rule="evenodd" clip-rule="evenodd"/></clipPath><clipPath id="y"><path d="M690 364h60v60h-60z" fill-rule="evenodd" clip-rule="evenodd"/></clipPath><clipPath id="z"><path d="M694 445h53v60h-53z" fill-rule="evenodd" clip-rule="evenodd"/></clipPath><clipPath id="A"><path d="M694 445h53v60h-53z" fill-rule="evenodd" clip-rule="evenodd"/></clipPath><clipPath id="B"><path d="M694 445h53v60h-53z" fill-rule="evenodd" clip-rule="evenodd"/></clipPath><clipPath id="C"><path d="M788 358h45v60h-45z" fill-rule="evenodd" clip-rule="evenodd"/></clipPath><clipPath id="D"><path d="M788 358h45v60h-45z" fill-rule="evenodd" clip-rule="evenodd"/></clipPath><clipPath id="E"><path d="M788 358h45v60h-45z" fill-rule="evenodd" clip-rule="evenodd"/></clipPath><clipPath id="F"><path d="M519 393h22v25h-22z" fill-rule="evenodd" clip-rule="evenodd"/></clipPath><clipPath id="G"><path d="M519 393h22v25h-22z" fill-rule="evenodd" clip-rule="evenodd"/></clipPath><clipPath id="H"><path d="M519 393h22v25h-22z" fill-rule="evenodd" clip-rule="evenodd"/></clipPath><clipPath id="I"><path d="M501 450h57v57h-57z" fill-rule="evenodd" clip-rule="evenodd"/></clipPath><clipPath id="J"><path d="M501 450h57v57h-57z" fill-rule="evenodd" clip-rule="evenodd"/></clipPath><clipPath id="K"><path d="M501 450h57v57h-57z" fill-rule="evenodd" clip-rule="evenodd"/></clipPath><clipPath id="L"><path d="M519 478h22v26h-22z" fill-rule="evenodd" clip-rule="evenodd"/></clipPath><clipPath id="M"><path d="M519 478h22v26h-22z" fill-rule="evenodd" clip-rule="evenodd"/></clipPath><clipPath id="N"><path d="M519 478h22v26h-22z" fill-rule="evenodd" clip-rule="evenodd"/></clipPath><clipPath id="O"><path d="M594 365h56v56h-56z" fill-rule="evenodd" clip-rule="evenodd"/></clipPath><clipPath id="P"><path d="M594 365h56v56h-56z" fill-rule="evenodd" clip-rule="evenodd"/></clipPath><clipPath id="Q"><path d="M594 365h56v56h-56z" fill-rule="evenodd" clip-rule="evenodd"/></clipPath><clipPath id="R"><path d="M609 390h29v28h-29z" fill-rule="evenodd" clip-rule="evenodd"/></clipPath><clipPath id="S"><path d="M609 390h29v28h-29z" fill-rule="evenodd" clip-rule="evenodd"/></clipPath><clipPath id="T"><path d="M609 390h29v28h-29z" fill-rule="evenodd" clip-rule="evenodd"/></clipPath><clipPath id="U"><path d="M594 448h56v56h-56z" fill-rule="evenodd" clip-rule="evenodd"/></clipPath><clipPath id="V"><path d="M594 448h56v56h-56z" fill-rule="evenodd" clip-rule="evenodd"/></clipPath><clipPath id="W"><path d="M594 448h56v56h-56z" fill-rule="evenodd" clip-rule="evenodd"/></clipPath><clipPath id="X"><path d="M609 473h29v28h-29z" fill-rule="evenodd" clip-rule="evenodd"/></clipPath><clipPath id="Y"><path d="M609 473h29v28h-29z" fill-rule="evenodd" clip-rule="evenodd"/></clipPath><clipPath id="Z"><path d="M609 473h29v28h-29z" fill-rule="evenodd" clip-rule="evenodd"/></clipPath></defs><g clip-path="url(#a)" transform="translate(-84 -203)"><path d="M967 209h238v216H967z" fill="#b4c7e7"/><path d="M1042.653 229.262q1.418 0 2.028-.528.62-.527.62-1.734 0-1.195-.62-1.71-.61-.517-2.028-.517h-1.898v4.489zm-1.898 3.117V239h-4.512v-17.496h6.89q3.458 0 5.063 1.16 1.617 1.16 1.617 3.668 0 1.734-.843 2.848-.832 1.113-2.52 1.64.926.211 1.652.961.739.739 1.489 2.25l2.449 4.969h-4.805l-2.132-4.348q-.645-1.312-1.313-1.793-.656-.48-1.758-.48zm26.883.023v1.196h-9.809q.152 1.476 1.066 2.214.915.739 2.555.739 1.324 0 2.707-.387 1.395-.398 2.86-1.195v3.234q-1.489.563-2.977.844-1.488.293-2.977.293-3.562 0-5.543-1.805-1.968-1.816-1.968-5.086 0-3.21 1.933-5.05 1.946-1.84 5.344-1.84 3.094 0 4.945 1.863 1.864 1.863 1.864 4.98zm-4.313-1.394q0-1.196-.703-1.922-.691-.738-1.816-.738-1.22 0-1.98.691-.762.68-.95 1.969zm16.418 5.765q-.867 1.149-1.91 1.688-1.043.539-2.414.539-2.402 0-3.973-1.887-1.57-1.898-1.57-4.828 0-2.941 1.57-4.816 1.57-1.887 3.973-1.887 1.371 0 2.414.54 1.043.538 1.91 1.698v-1.945h4.219v11.8q0 3.165-2.004 4.829-1.992 1.676-5.79 1.676-1.23 0-2.378-.188-1.148-.187-2.309-.574v-3.27q1.102.633 2.157.938 1.054.316 2.12.316 2.063 0 3.024-.902.961-.902.961-2.824zm-2.766-8.168q-1.3 0-2.027.961-.726.961-.726 2.72 0 1.804.703 2.741.703.926 2.05.926 1.313 0 2.04-.96.726-.962.726-2.708 0-1.758-.726-2.719-.727-.96-2.04-.96zm11.016-2.73h4.195V239h-4.195zm0-5.11h4.195v3.422h-4.195zm18.48 5.52v3.188q-1.347-.563-2.6-.844-1.255-.281-2.368-.281-1.195 0-1.781.304-.575.293-.575.914 0 .504.434.774.445.27 1.582.398l.738.106q3.223.41 4.336 1.347 1.113.938 1.113 2.942 0 2.097-1.546 3.152-1.547 1.055-4.618 1.055-1.3 0-2.695-.211-1.383-.2-2.848-.61v-3.187q1.254.61 2.567.914 1.324.305 2.683.305 1.231 0 1.852-.34t.621-1.008q0-.562-.433-.832-.422-.281-1.7-.434l-.738-.093q-2.8-.352-3.926-1.301-1.125-.95-1.125-2.883 0-2.086 1.43-3.094 1.43-1.007 4.383-1.007 1.16 0 2.437.175 1.278.176 2.778.551zm8.614-4.137v3.727h4.324v3h-4.324v5.566q0 .914.363 1.243.363.316 1.442.316h2.156v3h-3.598q-2.484 0-3.527-1.031-1.031-1.043-1.031-3.528v-5.566h-2.086v-3h2.086v-3.727zm16.64 7.301q-.55-.258-1.101-.375-.54-.129-1.09-.129-1.617 0-2.496 1.043-.867 1.032-.867 2.965V239h-4.196v-13.125h4.196v2.156q.808-1.289 1.851-1.875 1.055-.597 2.52-.597.21 0 .457.023.246.012.715.07zm.364-3.574h4.195l3.527 8.906 3-8.906h4.196l-5.52 14.367q-.832 2.192-1.945 3.059-1.102.879-2.918.879h-2.426v-2.754h1.313q1.066 0 1.547-.34.492-.34.761-1.219l.117-.363z" aria-label="Registry" font-weight="700" font-size="24" font-family="Calibri,Calibri_MSFontService,sans-serif"/><g clip-path="url(#b)"><g clip-path="url(#c)"><g clip-path="url(#d)"><path d="M1033 349.571v5.358c0 4.72-11.646 8.571-26 8.571s-26-3.85-26-8.571v-5.358c0-4.72 11.646-8.571 26-8.571s26 3.85 26 8.571zm0 12.054v12.054c0 4.72-11.646 8.571-26 8.571s-26-3.85-26-8.571v-12.054c5.586 3.884 15.81 5.692 26 5.692s20.414-1.808 26-5.692zm0 18.75v12.054c0 4.72-11.646 8.571-26 8.571s-26-3.85-26-8.571v-12.054c5.586 3.884 15.81 5.692 26 5.692s20.414-1.808 26-5.692z" fill="#2F5597"/></g></g></g><g clip-path="url(#e)"><g clip-path="url(#f)"><g clip-path="url(#g)"><path d="M1007 258.938c-16.02 0-29.062 13.031-29.062 29.062 0 16.02 13.042 29.063 29.062 29.063 16.02 0 29.06-13.043 29.06-29.063 0-16.031-13.04-29.062-29.06-29.062zM980.867 288c0-3.785.809-7.383 2.262-10.629l12.469 34.149c-8.719-4.243-14.731-13.184-14.731-23.52zM1007 314.133c-2.57 0-5.04-.375-7.383-1.067l7.843-22.781 8.02 22.008c.06.129.12.246.19.363a26.156 26.156 0 0 1-8.67 1.477zm3.6-38.379c1.57-.082 2.99-.246 2.99-.246 1.4-.164 1.24-2.238-.17-2.156 0 0-4.23.328-6.96.328-2.57 0-6.878-.328-6.878-.328-1.406-.082-1.57 2.074-.164 2.156 0 0 1.332.164 2.742.246l4.07 11.156-5.72 17.145-9.518-28.301a53.692 53.692 0 0 0 2.988-.246c1.407-.164 1.243-2.238-.164-2.156 0 0-4.23.328-6.961.328-.492 0-1.066-.012-1.687-.035 4.676-7.09 12.703-11.778 21.832-11.778 6.8 0 13 2.602 17.65 6.856-.12-.012-.22-.024-.34-.024-2.57 0-4.38 2.239-4.38 4.641 0 2.156 1.24 3.973 2.56 6.129 1 1.734 2.16 3.972 2.16 7.207 0 2.238-.86 4.828-1.99 8.449l-2.61 8.707-9.45-28.078zm9.54 34.828l7.98-23.074c1.49-3.727 1.99-6.703 1.99-9.363 0-.961-.06-1.852-.18-2.684a26.015 26.015 0 0 1 3.2 12.539c0 9.645-5.22 18.059-12.99 22.582z" fill="#2F5597"/></g></g></g><g clip-path="url(#h)"><g clip-path="url(#i)"><g clip-path="url(#j)"><path d="M1194.59 287.268l-2.55-1.584c-.02-.234-.04-.46-.07-.689l2.19-2.05c.35-.325.37-.87.05-1.218a.998.998 0 0 0-.33-.218l-2.81-1.055c-.07-.22-.13-.443-.2-.661l1.76-2.441a.865.865 0 0 0-.56-1.352l-2.98-.486c-.11-.203-.21-.405-.32-.604l1.25-2.744a.854.854 0 0 0-.43-1.141.836.836 0 0 0-.38-.077l-3.03.107c-.14-.174-.28-.346-.42-.516l.69-2.948a.868.868 0 0 0-1.04-1.036l-2.95.695c-.17-.143-.34-.284-.51-.423l.1-3.026a.862.862 0 0 0-1.22-.821l-2.74 1.258c-.2-.11-.4-.216-.6-.32l-.49-2.979a.865.865 0 0 0-.99-.712.867.867 0 0 0-.36.151l-2.45 1.754c-.21-.069-.44-.132-.66-.196l-1.05-2.812a.865.865 0 0 0-1.44-.286l-2.05 2.194c-.23-.025-.46-.045-.69-.065l-1.58-2.559a.854.854 0 0 0-1.18-.279.796.796 0 0 0-.28.279l-1.59 2.557c-.23.02-.46.04-.68.064l-2.06-2.193a.852.852 0 0 0-1.21-.041c-.1.09-.17.202-.22.326l-1.06 2.813c-.22.064-.44.127-.66.197l-2.44-1.758a.859.859 0 0 0-1.35.561l-.49 2.978c-.2.106-.4.21-.6.32l-2.74-1.246a.87.87 0 0 0-1.15.427.882.882 0 0 0-.07.394l.11 3.024c-.18.14-.36.28-.52.423l-2.95-.699a.869.869 0 0 0-1.04.644.865.865 0 0 0 0 .392l.7 2.948c-.14.17-.29.343-.42.517l-3.03-.107a.876.876 0 0 0-.75.382.86.86 0 0 0-.06.836l1.25 2.743c-.11.199-.22.402-.32.605l-2.98.485a.857.857 0 0 0-.71.989c.02.131.07.255.15.363l1.76 2.44c-.07.219-.14.442-.2.663l-2.81 1.055a.867.867 0 0 0-.51 1.109c.05.124.12.236.22.327l2.19 2.05-.06.69-2.56 1.582a.856.856 0 0 0-.28 1.185c.07.114.16.209.28.279l2.55 1.584c.02.234.04.459.07.688l-2.19 2.05a.865.865 0 0 0-.05 1.218c.1.097.21.171.33.218l2.81 1.055c.07.221.13.442.2.662l-1.76 2.441a.865.865 0 0 0 .56 1.352l2.98.486c.11.202.21.405.32.603l-1.24 2.745a.86.86 0 0 0 .06.836c.17.252.45.398.75.382l3.03-.107c.14.174.28.346.42.516l-.7 2.948a.868.868 0 0 0 1.04 1.036l2.95-.695c.17.143.34.284.52.423l-.11 3.026c-.02.476.35.875.83.892a.92.92 0 0 0 .39-.077l2.74-1.252c.2.11.4.215.6.32l.49 2.979c.08.469.52.788.99.712a.868.868 0 0 0 .36-.152l2.44-1.758c.22.071.44.133.67.197l1.05 2.813c.17.445.67.67 1.11.502a.914.914 0 0 0 .33-.216l2.05-2.194c.22.024.46.044.69.064l1.58 2.557c.25.405.78.53 1.18.279.12-.07.21-.165.28-.279l1.59-2.557c.23-.02.46-.04.69-.065l2.05 2.195c.32.347.87.364 1.22.038a.84.84 0 0 0 .21-.324l1.06-2.813c.22-.064.44-.126.66-.197l2.44 1.758a.86.86 0 0 0 1.35-.56l.49-2.979c.2-.105.4-.21.6-.32l2.75 1.252c.43.197.94.006 1.14-.427a.858.858 0 0 0 .07-.388l-.1-3.026c.17-.139.34-.28.51-.423l2.95.695c.46.109.93-.18 1.04-.644a.865.865 0 0 0 0-.392l-.7-2.948c.14-.17.28-.341.42-.516l3.03.107a.86.86 0 0 0 .75-.382.86.86 0 0 0 .06-.836l-1.25-2.744c.11-.199.22-.402.32-.604l2.98-.486a.857.857 0 0 0 .71-.989.813.813 0 0 0-.15-.363l-1.76-2.441c.07-.22.14-.441.2-.662l2.81-1.055a.867.867 0 0 0 .51-1.109.876.876 0 0 0-.22-.327l-2.2-2.05c.03-.229.05-.459.07-.688l2.56-1.584c.4-.25.53-.781.28-1.185a.888.888 0 0 0-.28-.279zm-17.69 15.126a1.635 1.635 0 0 0-1.94 1.252l-.89 4.18a21.99 21.99 0 0 1-18.33-.087l-.89-4.179a1.629 1.629 0 0 0-1.93-1.252v.001l-3.69.792a20.945 20.945 0 0 1-1.91-2.251h17.95c.2 0 .34-.034.34-.224v-6.351c0-.184-.14-.223-.34-.223h-5.25v-4.026h5.68c.52 0 2.78.15 3.49 3.032.23.885.73 3.766 1.07 4.687.33 1.034 1.71 3.101 3.17 3.101h9.27c-.63.832-1.3 1.619-2.04 2.354zm3.02 4.042c0 .986-.8 1.786-1.79 1.786s-1.79-.8-1.79-1.786c0-.984.8-1.783 1.79-1.786h.05c.96.027 1.73.819 1.73 1.786zm-26.44-.08c0 .987-.8 1.786-1.79 1.785a1.774 1.774 0 0 1-1.78-1.787c0-.986.79-1.784 1.78-1.785h.05c.97.032 1.73.823 1.73 1.787zm-10.33-20.917l3.85-1.71a1.633 1.633 0 0 0 .83-2.147v-.002l-.8-1.783h3.12v14.031h-6.28a22.005 22.005 0 0 1-.72-8.389zm-1.32-4.225c0-.987.8-1.787 1.79-1.787h.05c.99.027 1.76.849 1.74 1.835a1.789 1.789 0 0 1-1.84 1.735 1.778 1.778 0 0 1-1.73-1.785zm18.19 2.87v-4.139h7.42c.38 0 2.7.441 2.7 2.182 0 1.44-1.78 1.957-3.25 1.957zm21.74 9.859c-1.15.132-2.42-.483-2.58-1.183-.68-3.807-1.8-4.617-3.58-6.023 2.21-1.401 4.5-3.474 4.5-6.242 0-2.99-2.05-4.874-3.44-5.798-1.97-1.289-4.14-1.551-4.72-1.551h-23.31c3.22-3.6 7.54-6.038 12.29-6.936l2.75 2.883a1.62 1.62 0 0 0 2.29.058c.01-.002.01-.004.01-.006l3.08-2.93a21.984 21.984 0 0 1 15.04 10.714l-2.11 4.755c-.35.822.01 1.779.83 2.148l4.06 1.796c.12 1.267.14 2.543.04 3.813h-2.26c-.22 0-.31.149-.31.367v1.034c0 2.431-1.37 2.968-2.58 3.101zm-18.63-28.887c0-.984.79-1.781 1.78-1.783h.05c.99.028 1.76.849 1.74 1.835a1.79 1.79 0 0 1-1.84 1.736 1.773 1.773 0 0 1-1.73-1.788zm23.06 18.022c-.98 0-1.78-.799-1.78-1.786 0-.986.8-1.786 1.78-1.786h.05a1.78 1.78 0 0 1 1.76 1.812 1.78 1.78 0 0 1-1.81 1.76z" fill="#2F5597"/></g></g></g><g clip-path="url(#k)"><g clip-path="url(#l)"><g clip-path="url(#m)"><path d="M1095.55 377.668c1.15-.785 2.74-1.465 2.74-1.465s-4.54.82-9.05 1.195c-5.52.457-11.45.551-14.42.153-7.05-.938 3.86-3.528 3.86-3.528s-4.23-.281-9.44 2.227c-6.15 2.977 15.23 4.336 26.31 1.418zm-10.01-3.762c-2.23-5.004-9.74-9.398 0-17.086 12.15-9.586 5.92-15.82 5.92-15.82 2.52 9.902-8.86 12.902-12.97 19.055-2.81 4.207 1.37 8.718 7.05 13.851zm13.43-20.648c.01 0-20.53 5.133-10.72 16.43 2.89 3.328-.76 6.328-.76 6.328s7.34-3.797 3.97-8.543c-3.15-4.43-5.57-6.633 7.51-14.215zm-.72 31.699c-.06.112-.14.214-.23.305 15.04-3.949 9.5-13.934 2.32-11.403-.39.143-.72.4-.96.739a8.2 8.2 0 0 1 1.29-.352c3.63-.762 8.85 4.863-2.42 10.711zm5.53 7.301s1.7 1.394-1.86 2.484c-6.79 2.051-28.22 2.672-34.17.082-2.15-.926 1.87-2.226 3.14-2.496 1.31-.281 2.07-.234 2.07-.234-2.38-1.676-15.39 3.293-6.61 4.711 23.94 3.89 43.64-1.746 37.43-4.547zm-26.2-4.852c-9.22 2.578 5.62 7.899 17.36 2.871a21.931 21.931 0 0 1-3.31-1.617c-5.23.996-7.66 1.067-12.42.528-3.92-.446-1.63-1.782-1.63-1.782zm21.07 11.391c-9.22 1.734-20.6 1.535-27.34.422 0-.012 1.39 1.136 8.49 1.594 10.8.691 27.4-.387 27.78-5.497 0 0-.75 1.934-8.93 3.481zm-5.11-16.43c-6.93 1.336-10.95 1.301-16.03.774-3.92-.411-1.36-2.309-1.36-2.309-10.17 3.375 5.65 7.195 19.87 3.035a7.158 7.158 0 0 1-2.48-1.5z" fill="#2F5597"/></g></g></g><g clip-path="url(#n)"><g clip-path="url(#o)"><g clip-path="url(#p)"><path d="M1086 317.532c-.778 0-1.567-.211-2.252-.61l-7.161-4.277c-1.068-.61-.546-.82-.198-.938 1.428-.504 1.718-.61 3.239-1.488.162-.094.371-.059.534.047l5.501 3.293a.667.667 0 0 0 .662 0l21.438-12.492a.696.696 0 0 0 .325-.586v-24.985a.7.7 0 0 0-.336-.597l-21.427-12.481a.666.666 0 0 0-.662 0l-21.415 12.492a.685.685 0 0 0-.336.598v24.973c0 .234.127.468.336.574l5.873 3.422c3.192 1.605 5.142-.281 5.142-2.192V277.63c0-.352.279-.621.627-.621h2.716c.337 0 .627.27.627.621v24.668c0 4.29-2.321 6.75-6.35 6.75-1.241 0-2.216 0-4.932-1.36l-5.618-3.269a4.565 4.565 0 0 1-2.252-3.949v-24.973c0-1.617.86-3.14 2.252-3.949l21.415-12.492c1.358-.774 3.157-.774 4.504 0l21.438 12.504a4.565 4.565 0 0 1 2.252 3.949v24.973a4.594 4.594 0 0 1-2.252 3.949l-21.438 12.492a4.48 4.48 0 0 1-2.252.61zm17.306-24.622c0-4.676-3.134-5.918-9.715-6.797-6.662-.89-7.336-1.347-7.336-2.918 0-1.3.57-3.035 5.502-3.035 4.4 0 6.024.961 6.697 3.961a.623.623 0 0 0 .604.492h2.786c.174 0 .336-.07.452-.199a.656.656 0 0 0 .163-.48c-.43-5.168-3.83-7.57-10.702-7.57-6.117 0-9.762 2.601-9.762 6.972 0 4.734 3.634 6.047 9.495 6.633 7.022.691 7.568 1.734 7.568 3.129 0 2.414-1.927 3.445-6.442 3.445-5.676 0-6.918-1.441-7.336-4.289a.616.616 0 0 0-.615-.527h-2.774a.615.615 0 0 0-.615.62c0 3.645 1.961 7.993 11.352 7.993 6.778-.012 10.678-2.719 10.678-7.43z" fill="#2F5597"/></g></g></g><g clip-path="url(#q)"><g clip-path="url(#r)"><g clip-path="url(#s)"><path d="M1160.969 372.418h9.015l-4.508-10.734-4.507 10.734zm4.507-27.668l-24.583 8.719 3.762 32.308 20.821 11.473 20.822-11.473 3.762-32.308zm15.403 40.055h-5.75l-3.099-7.664h-13.084l-3.1 7.664h-5.761l15.391-34.254z" fill="#2F5597"/></g></g></g><path d="M478 206h387v331H478z" fill="#b4c7e7"/><path d="M601.336 224.914v10.676h1.617q2.766 0 4.219-1.371 1.465-1.371 1.465-3.985 0-2.601-1.454-3.96-1.453-1.36-4.23-1.36zm-4.512-3.41h4.758q3.984 0 5.93.574 1.957.563 3.351 1.922 1.23 1.184 1.828 2.73.598 1.547.598 3.504 0 1.98-.598 3.54-.597 1.546-1.828 2.73-1.406 1.36-3.375 1.933-1.969.563-5.906.563h-4.758zm25.98 7.055q-1.394 0-2.132 1.007-.727.997-.727 2.883 0 1.887.727 2.895.738.996 2.133.996 1.37 0 2.097-.996.727-1.008.727-2.895 0-1.886-.727-2.883-.726-1.007-2.097-1.007zm0-3q3.387 0 5.286 1.828 1.91 1.828 1.91 5.062 0 3.235-1.91 5.063-1.899 1.828-5.285 1.828-3.399 0-5.32-1.828-1.91-1.828-1.91-5.063 0-3.234 1.91-5.062 1.921-1.828 5.32-1.828zm20.848.726v3.422q-.855-.586-1.722-.867-.856-.281-1.782-.281-1.758 0-2.742 1.03-.973 1.02-.973 2.86 0 1.84.973 2.871.985 1.02 2.742 1.02.985 0 1.864-.293.89-.293 1.64-.867v3.433q-.984.364-2.004.54-1.008.187-2.027.187-3.55 0-5.555-1.817-2.004-1.828-2.004-5.074 0-3.246 2.004-5.062 2.004-1.828 5.555-1.828 1.031 0 2.027.187 1.008.176 2.004.54zm3.621-5.52h4.196v9.926l4.828-4.816h4.875l-6.41 6.023 6.914 7.102h-5.086l-5.121-5.473V239h-4.196zm28.418 11.637v1.196h-9.808q.152 1.476 1.066 2.215.914.738 2.555.738 1.324 0 2.707-.387 1.394-.398 2.86-1.195v3.234q-1.49.563-2.977.844-1.489.293-2.977.293-3.562 0-5.543-1.805-1.969-1.816-1.969-5.086 0-3.21 1.934-5.05 1.945-1.84 5.344-1.84 3.093 0 4.945 1.863 1.863 1.863 1.863 4.98zm-4.312-1.394q0-1.196-.703-1.922-.692-.738-1.817-.738-1.219 0-1.98.691-.762.68-.95 1.969zm17.238-1.559q-.55-.258-1.101-.375-.54-.129-1.09-.129-1.618 0-2.496 1.043-.868 1.032-.868 2.965V239h-4.195v-13.125h4.195v2.156q.809-1.289 1.852-1.875 1.055-.597 2.52-.597.21 0 .456.023.247.012.715.07zm23.637 1.559V239h-4.219V232.906q0-1.722-.082-2.367-.07-.644-.258-.95-.246-.41-.668-.632-.422-.234-.96-.234-1.313 0-2.063 1.02-.75 1.007-.75 2.8V239h-4.195v-18.234h4.195v7.03q.949-1.148 2.015-1.687 1.067-.55 2.356-.55 2.273 0 3.445 1.394 1.184 1.395 1.184 4.055zm10.136-2.45q-1.394 0-2.132 1.008-.727.997-.727 2.883 0 1.887.727 2.895.738.996 2.132.996 1.372 0 2.098-.996.727-1.008.727-2.895 0-1.886-.727-2.883-.726-1.007-2.098-1.007zm0-3q3.387 0 5.286 1.829 1.91 1.828 1.91 5.062 0 3.235-1.91 5.063-1.899 1.828-5.286 1.828-3.398 0-5.32-1.828-1.91-1.828-1.91-5.063 0-3.234 1.91-5.062 1.922-1.828 5.32-1.828zm20.497.727v3.188q-1.348-.563-2.602-.844-1.254-.281-2.367-.281-1.195 0-1.781.304-.575.293-.575.914 0 .504.434.774.445.27 1.582.398l.738.106q3.223.41 4.336 1.347 1.114.938 1.114 2.942 0 2.097-1.547 3.152-1.547 1.055-4.618 1.055-1.3 0-2.695-.211-1.383-.2-2.848-.61v-3.187q1.254.61 2.567.914 1.324.305 2.683.305 1.23 0 1.852-.34.621-.34.621-1.008 0-.562-.433-.832-.422-.281-1.7-.434l-.738-.093q-2.8-.352-3.926-1.301-1.125-.95-1.125-2.883 0-2.086 1.43-3.094 1.43-1.007 4.383-1.007 1.16 0 2.437.175 1.278.176 2.778.551zm8.613-4.137v3.727h4.324v3H751.5v5.566q0 .914.363 1.243.363.316 1.442.316h2.156v3h-3.598q-2.484 0-3.527-1.031-1.031-1.043-1.031-3.528v-5.566h-2.086v-3h2.086v-3.727z" aria-label="Docker host" font-weight="700" font-size="24" font-family="Calibri,Calibri_MSFontService,sans-serif"/><path d="M490 257h363v51H490z" fill="#2f5597"/><path d="M585.097 274.45v13.605h2.86q3.62 0 5.296-1.64 1.687-1.642 1.687-5.18 0-3.516-1.687-5.145-1.676-1.64-5.297-1.64zm-2.368-1.946h4.864q5.086 0 7.465 2.121 2.379 2.11 2.379 6.61 0 4.523-2.391 6.644-2.39 2.121-7.453 2.121h-4.864zm23.473 5.883q-1.734 0-2.742 1.36-1.008 1.347-1.008 3.702 0 2.356.996 3.715 1.008 1.348 2.754 1.348 1.723 0 2.73-1.36 1.008-1.359 1.008-3.703 0-2.332-1.007-3.691-1.008-1.371-2.73-1.371zm0-1.828q2.813 0 4.418 1.828 1.606 1.828 1.606 5.062 0 3.223-1.606 5.063-1.605 1.828-4.418 1.828-2.824 0-4.43-1.828-1.593-1.84-1.593-5.063 0-3.234 1.593-5.062 1.606-1.828 4.43-1.828zm19.043.82v2.016q-.914-.504-1.84-.75-.914-.258-1.851-.258-2.098 0-3.258 1.336-1.16 1.324-1.16 3.726 0 2.403 1.16 3.739 1.16 1.324 3.258 1.324.937 0 1.851-.246.926-.258 1.84-.762v1.992q-.902.422-1.875.633-.96.21-2.05.21-2.966 0-4.712-1.862-1.746-1.864-1.746-5.028 0-3.21 1.758-5.05 1.77-1.84 4.84-1.84.996 0 1.945.21.95.2 1.84.61zm3.668-5.613h2.168v10.77l6.434-5.661h2.754l-6.961 6.14 7.254 6.985h-2.813l-6.668-6.41V290h-2.168zm24.352 11.132v1.055h-9.914q.14 2.227 1.336 3.399 1.207 1.16 3.351 1.16 1.242 0 2.402-.305 1.172-.305 2.32-.914v2.039q-1.16.492-2.378.75-1.219.258-2.473.258-3.14 0-4.98-1.828-1.828-1.828-1.828-4.946 0-3.222 1.734-5.109 1.746-1.898 4.7-1.898 2.648 0 4.183 1.71 1.547 1.7 1.547 4.63zm-2.157-.632q-.023-1.77-.996-2.825-.96-1.054-2.554-1.054-1.805 0-2.895 1.02-1.078 1.019-1.242 2.87zm13.301-3.375q-.363-.211-.797-.305-.422-.106-.937-.106-1.828 0-2.813 1.196-.972 1.183-.972 3.41V290h-2.168v-13.125h2.168v2.04q.68-1.196 1.77-1.77 1.089-.586 2.648-.586.222 0 .492.035.27.023.597.082zm18.528-.024v-7.101h2.156V290h-2.156v-1.969q-.68 1.172-1.723 1.746-1.031.563-2.485.563-2.378 0-3.878-1.899-1.489-1.898-1.489-4.992 0-3.094 1.489-4.992 1.5-1.898 3.878-1.898 1.454 0 2.485.574 1.043.562 1.723 1.734zm-7.348 4.582q0 2.38.973 3.739.984 1.347 2.695 1.347 1.71 0 2.695-1.347.985-1.36.985-3.739 0-2.379-.985-3.726-.984-1.36-2.695-1.36-1.711 0-2.695 1.36-.973 1.347-.973 3.726zm19.91-.047q-2.613 0-3.621.598t-1.008 2.04q0 1.148.75 1.827.762.668 2.063.668 1.793 0 2.87-1.265 1.09-1.278 1.09-3.387v-.48zm4.3-.89V290h-2.155v-1.992q-.739 1.195-1.84 1.77-1.102.562-2.696.562-2.015 0-3.21-1.125-1.184-1.137-1.184-3.035 0-2.215 1.476-3.34 1.489-1.125 4.43-1.125h3.024v-.211q0-1.488-.985-2.297-.972-.82-2.742-.82-1.125 0-2.191.27-1.067.269-2.051.808v-1.992q1.183-.457 2.297-.68 1.113-.234 2.168-.234 2.847 0 4.254 1.476 1.406 1.477 1.406 4.477zm15.669.386v1.055h-9.914q.14 2.227 1.336 3.399 1.207 1.16 3.351 1.16 1.242 0 2.403-.305 1.171-.305 2.32-.914v2.039q-1.16.492-2.379.75t-2.473.258q-3.14 0-4.98-1.828-1.828-1.828-1.828-4.946 0-3.222 1.734-5.109 1.746-1.898 4.7-1.898 2.648 0 4.183 1.71 1.547 1.7 1.547 4.63zm-2.156-.632q-.024-1.77-.997-2.825-.96-1.054-2.554-1.054-1.805 0-2.895 1.02-1.078 1.019-1.242 2.87zm15.914-2.871q.808-1.454 1.933-2.145 1.125-.691 2.649-.691 2.05 0 3.164 1.441 1.113 1.43 1.113 4.078V290h-2.168v-7.852q0-1.886-.668-2.8-.668-.914-2.039-.914-1.676 0-2.648 1.113-.973 1.113-.973 3.035V290h-2.168v-7.852q0-1.898-.668-2.8-.668-.914-2.063-.914-1.652 0-2.625 1.125-.972 1.113-.972 3.023V290h-2.168v-13.125h2.168v2.04q.738-1.208 1.77-1.782 1.03-.574 2.449-.574 1.43 0 2.425.726 1.008.727 1.489 2.11zm18.246-1.008q-1.735 0-2.743 1.36-1.007 1.347-1.007 3.702 0 2.356.996 3.715 1.008 1.348 2.754 1.348 1.722 0 2.73-1.36 1.008-1.359 1.008-3.703 0-2.332-1.008-3.691-1.008-1.371-2.73-1.371zm0-1.828q2.812 0 4.418 1.828 1.605 1.828 1.605 5.062 0 3.223-1.605 5.063-1.606 1.828-4.418 1.828-2.825 0-4.43-1.828-1.594-1.84-1.594-5.063 0-3.234 1.594-5.062 1.605-1.828 4.43-1.828zm20.507 5.52V290h-2.156v-7.852q0-1.863-.726-2.789-.727-.925-2.18-.925-1.746 0-2.754 1.113t-1.008 3.035V290h-2.168v-13.125h2.168v2.04q.774-1.185 1.817-1.77 1.054-.586 2.425-.586 2.262 0 3.422 1.406 1.16 1.394 1.16 4.113z" aria-label="Docker daemon" font-size="24" font-family="Calibri,Calibri_MSFontService,sans-serif" fill="#fff"/><path d="M490 320h175v206H490zM678 320h174v206H678z" fill="#8faadc"/><path d="M724.727 328.644h2.367v17.496h-2.367zm17.203 6.89q.809-1.453 1.934-2.144 1.125-.692 2.648-.692 2.05 0 3.164 1.442 1.113 1.43 1.113 4.078v7.922h-2.168v-7.852q0-1.887-.668-2.8-.667-.915-2.039-.915-1.675 0-2.648 1.114-.973 1.113-.973 3.035v7.418h-2.168v-7.852q0-1.898-.668-2.8-.668-.915-2.062-.915-1.652 0-2.625 1.125-.973 1.114-.973 3.024v7.418h-2.168v-13.125h2.168v2.039q.739-1.207 1.77-1.782 1.031-.574 2.449-.574 1.43 0 2.426.727 1.008.726 1.488 2.11zm19.125 4.008q-2.613 0-3.621.598-1.008.597-1.008 2.039 0 1.148.75 1.828.762.668 2.063.668 1.793 0 2.87-1.266 1.09-1.277 1.09-3.387v-.48zm4.3-.89v7.488H763.2v-1.993q-.739 1.196-1.84 1.77-1.102.563-2.696.563-2.015 0-3.21-1.125-1.184-1.137-1.184-3.036 0-2.214 1.476-3.34 1.489-1.124 4.43-1.124h3.024v-.211q0-1.489-.985-2.297-.972-.82-2.742-.82-1.125 0-2.191.269-1.067.27-2.051.809v-1.993q1.183-.457 2.297-.68 1.113-.234 2.168-.234 2.847 0 4.254 1.477 1.406 1.476 1.406 4.476zm13.079.773q0-2.344-.973-3.633-.96-1.289-2.707-1.289-1.734 0-2.707 1.289-.96 1.29-.96 3.633 0 2.332.96 3.62.973 1.29 2.707 1.29 1.746 0 2.707-1.29.973-1.288.973-3.62zm2.156 5.086q0 3.351-1.488 4.98-1.488 1.64-4.559 1.64-1.136 0-2.144-.175-1.008-.164-1.957-.516v-2.097q.949.515 1.875.762.926.246 1.886.246 2.122 0 3.176-1.114 1.055-1.101 1.055-3.34v-1.066q-.668 1.16-1.711 1.734-1.043.575-2.496.575-2.414 0-3.89-1.84-1.477-1.84-1.477-4.875 0-3.047 1.476-4.887 1.477-1.84 3.89-1.84 1.454 0 2.497.574 1.043.575 1.711 1.735v-1.992h2.156zm15.668-5.473v1.055h-9.914q.14 2.226 1.336 3.398 1.207 1.16 3.352 1.16 1.242 0 2.402-.304 1.172-.305 2.32-.914v2.039q-1.16.492-2.379.75-1.218.258-2.472.258-3.14 0-4.98-1.829-1.829-1.828-1.829-4.945 0-3.223 1.734-5.11 1.747-1.898 4.7-1.898 2.648 0 4.183 1.711 1.547 1.7 1.547 4.63zm-2.156-.633q-.023-1.77-.996-2.824-.961-1.055-2.555-1.055-1.805 0-2.894 1.02-1.079 1.02-1.243 2.871zm14.062-5.004v2.04q-.914-.47-1.898-.704-.984-.234-2.04-.234-1.605 0-2.413.492-.797.492-.797 1.477 0 .75.574 1.183.574.422 2.309.809l.738.164q2.297.492 3.258 1.394.973.891.973 2.497 0 1.828-1.454 2.894-1.441 1.067-3.972 1.067-1.055 0-2.203-.211-1.137-.2-2.403-.61v-2.226q1.196.62 2.356.937 1.16.305 2.297.305 1.523 0 2.343-.516.82-.527.82-1.476 0-.88-.597-1.348-.586-.469-2.59-.902l-.75-.176q-2.004-.422-2.894-1.29-.89-.878-.89-2.402 0-1.851 1.312-2.859t3.726-1.008q1.195 0 2.25.176t1.945.527z" aria-label="Images" font-size="24" font-family="Calibri,Calibri_MSFontService,sans-serif" fill="#fff"/><g clip-path="url(#t)"><g clip-path="url(#u)"><g clip-path="url(#v)"><path d="M557.722 385.19l-5.633-16.602c-.724-2.144-2.761-3.588-5.066-3.588h-15.742v21h26.574c-.044-.273-.044-.547-.133-.81zM527.719 365h-15.742c-2.305 0-4.342 1.444-5.065 3.587l-5.634 16.604c-.089.262-.089.536-.133.809h26.574v-21zM501 389.5v26.25c0 2.898 2.394 5.25 5.344 5.25h46.312c2.95 0 5.344-2.352 5.344-5.25V389.5h-57z" fill="#2F5597"/></g></g></g><g clip-path="url(#w)"><g clip-path="url(#x)"><g clip-path="url(#y)"><path d="M720 364.938c-16.02 0-29.062 13.031-29.062 29.062 0 16.02 13.042 29.063 29.062 29.063 16.02 0 29.063-13.043 29.063-29.063 0-16.031-13.043-29.062-29.063-29.062zM693.867 394c0-3.785.809-7.383 2.262-10.629l12.469 34.149c-8.719-4.243-14.731-13.184-14.731-23.52zM720 420.133c-2.566 0-5.039-.375-7.383-1.067l7.84-22.781 8.027 22.008c.059.129.118.246.188.363a26.167 26.167 0 0 1-8.672 1.477zm3.598-38.379a53.798 53.798 0 0 0 2.988-.246c1.406-.164 1.242-2.238-.164-2.156 0 0-4.231.328-6.961.328-2.566 0-6.879-.328-6.879-.328-1.406-.082-1.57 2.074-.164 2.156 0 0 1.336.164 2.742.246l4.067 11.156-5.719 17.145-9.516-28.301a53.692 53.692 0 0 0 2.988-.246c1.407-.164 1.243-2.238-.164-2.156 0 0-4.23.328-6.961.328-.492 0-1.066-.012-1.687-.035 4.676-7.09 12.703-11.778 21.832-11.778a26.078 26.078 0 0 1 17.648 6.856c-.117-.012-.222-.024-.339-.024-2.567 0-4.383 2.239-4.383 4.641 0 2.156 1.242 3.973 2.566 6.129.996 1.734 2.156 3.972 2.156 7.207 0 2.238-.855 4.828-1.992 8.449l-2.601 8.707-9.457-28.078zm9.539 34.828l7.98-23.074c1.488-3.727 1.992-6.703 1.992-9.363 0-.961-.058-1.852-.175-2.684A26.025 26.025 0 0 1 746.133 394c0 9.645-5.227 18.059-12.996 22.582z" fill="#2F5597"/></g></g></g><g clip-path="url(#z)"><g clip-path="url(#A)"><g clip-path="url(#B)"><path d="M747 453.571v5.358c0 4.72-11.87 8.571-26.5 8.571s-26.5-3.85-26.5-8.571v-5.358c0-4.72 11.87-8.571 26.5-8.571s26.5 3.85 26.5 8.571zm0 12.054v12.054c0 4.72-11.87 8.571-26.5 8.571s-26.5-3.85-26.5-8.571v-12.054c5.693 3.884 16.114 5.692 26.5 5.692s20.806-1.808 26.5-5.692zm0 18.75v12.054c0 4.72-11.87 8.571-26.5 8.571s-26.5-3.85-26.5-8.571v-12.054c5.693 3.884 16.114 5.692 26.5 5.692s20.806-1.808 26.5-5.692z" fill="#2F5597"/></g></g></g><g clip-path="url(#C)"><g clip-path="url(#D)"><g clip-path="url(#E)"><path d="M820.548 394.668c1.148-.785 2.742-1.465 2.742-1.465s-4.535.82-9.047 1.195c-5.52.457-11.449.551-14.426.153-7.043-.938 3.867-3.528 3.867-3.528s-4.23-.281-9.445 2.227c-6.152 2.977 15.234 4.336 26.309 1.418zm-10.008-3.762c-2.227-5.004-9.738-9.398 0-17.086 12.148-9.586 5.918-15.82 5.918-15.82 2.519 9.902-8.86 12.902-12.973 19.055-2.801 4.207 1.371 8.718 7.055 13.851zm13.43-20.648c.011 0-20.532 5.133-10.723 16.43 2.894 3.328-.762 6.328-.762 6.328s7.348-3.797 3.973-8.543c-3.153-4.43-5.567-6.633 7.512-14.215zm-.715 31.699a1.419 1.419 0 0 1-.235.305c15.035-3.949 9.504-13.934 2.321-11.403-.388.143-.724.4-.961.739a8.19 8.19 0 0 1 1.289-.352c3.633-.762 8.847 4.863-2.414 10.711zm5.526 7.301s1.699 1.394-1.863 2.484c-6.785 2.051-28.219 2.672-34.172.082-2.144-.926 1.875-2.226 3.141-2.496 1.312-.281 2.074-.234 2.074-.234-2.379-1.676-15.387 3.293-6.609 4.711 23.934 3.89 43.64-1.746 37.429-4.547zm-26.198-4.852c-9.223 2.578 5.613 7.899 17.355 2.871a21.82 21.82 0 0 1-3.304-1.617c-5.239.996-7.664 1.067-12.422.528-3.926-.446-1.629-1.782-1.629-1.782zm21.07 11.391c-9.223 1.734-20.601 1.535-27.34.422 0-.012 1.383 1.136 8.485 1.594 10.804.691 27.398-.387 27.785-5.497 0 0-.75 1.934-8.93 3.481zm-5.109-16.43c-6.938 1.336-10.957 1.301-16.031.774-3.926-.411-1.36-2.309-1.36-2.309-10.172 3.375 5.649 7.195 19.863 3.035a7.07 7.07 0 0 1-2.472-1.5z" fill="#2F5597"/></g></g></g><g clip-path="url(#F)"><g clip-path="url(#G)"><g clip-path="url(#H)"><path d="M541 396.571v2.233c0 1.967-4.927 3.571-11 3.571s-11-1.604-11-3.571v-2.233c0-1.967 4.927-3.571 11-3.571s11 1.604 11 3.571zm0 5.023v5.022c0 1.967-4.927 3.572-11 3.572s-11-1.605-11-3.572v-5.022c2.363 1.618 6.689 2.371 11 2.371s8.637-.753 11-2.371zm0 7.812v5.023c0 1.967-4.927 3.571-11 3.571s-11-1.604-11-3.571v-5.023c2.363 1.619 6.689 2.372 11 2.372s8.637-.753 11-2.372z" fill="#FFF"/></g></g></g><g clip-path="url(#I)"><g clip-path="url(#J)"><g clip-path="url(#K)"><path d="M557.722 470.551l-5.633-16.899a5.33 5.33 0 0 0-5.066-3.652h-15.742v21.375h26.574c-.044-.278-.044-.557-.133-.824zM527.719 450h-15.742a5.328 5.328 0 0 0-5.065 3.652l-5.634 16.899c-.089.267-.089.546-.133.824h26.574V450zM501 474.938v26.718a5.346 5.346 0 0 0 5.344 5.344h46.312a5.346 5.346 0 0 0 5.344-5.344v-26.718h-57z" fill="#2F5597"/></g></g></g><g clip-path="url(#L)"><g clip-path="url(#M)"><g clip-path="url(#N)"><path d="M541 481.714v2.322c0 2.045-4.927 3.714-11 3.714s-11-1.669-11-3.714v-2.322c0-2.045 4.927-3.714 11-3.714s11 1.669 11 3.714zm0 5.223v5.224c0 2.045-4.927 3.714-11 3.714s-11-1.669-11-3.714v-5.224c2.363 1.684 6.689 2.467 11 2.467s8.637-.783 11-2.467zm0 8.125v5.224c0 2.045-4.927 3.714-11 3.714s-11-1.669-11-3.714v-5.224c2.363 1.684 6.689 2.467 11 2.467s8.637-.783 11-2.467z" fill="#FFF"/></g></g></g><g clip-path="url(#O)"><g clip-path="url(#P)"><g clip-path="url(#Q)"><path d="M649.727 385.191l-5.535-16.604a5.235 5.235 0 0 0-4.976-3.587H623.75v21h26.108c-.044-.273-.044-.547-.131-.809zM620.25 365h-15.466a5.235 5.235 0 0 0-4.976 3.587l-5.535 16.604c-.087.262-.087.536-.131.809h26.108v-21zM594 389.5v26.25a5.252 5.252 0 0 0 5.25 5.25h45.5a5.252 5.252 0 0 0 5.25-5.25V389.5h-56z" fill="#2F5597"/></g></g></g><g clip-path="url(#R)"><g clip-path="url(#S)"><g clip-path="url(#T)"><path d="M623.5 390.438c-7.743 0-14.047 6.08-14.047 13.562 0 7.476 6.304 13.563 14.047 13.563s14.047-6.087 14.047-13.563c0-7.481-6.304-13.563-14.047-13.563zM610.87 404c0-1.766.39-3.445 1.092-4.96l6.027 15.936c-4.214-1.98-7.12-6.153-7.12-10.976zm12.63 12.195a13 13 0 0 1-3.568-.497l3.789-10.632 3.88 10.27c.028.06.056.116.09.17a13.054 13.054 0 0 1-4.191.69zm1.739-17.91c.759-.038 1.444-.115 1.444-.115.68-.076.6-1.044-.08-1.006 0 0-2.044.153-3.364.153-1.24 0-3.324-.153-3.324-.153-.68-.038-.76.968-.08 1.006 0 0 .646.077 1.326.115l1.965 5.206-2.764 8.001-4.6-13.207c.76-.038 1.445-.115 1.445-.115.68-.076.6-1.044-.08-1.006 0 0-2.044.153-3.364.153-.237 0-.515-.005-.815-.016 2.26-3.309 6.14-5.496 10.552-5.496 3.285 0 6.281 1.214 8.53 3.199-.057-.006-.108-.011-.164-.011-1.24 0-2.119 1.044-2.119 2.166 0 1.006.6 1.853 1.24 2.86.482.81 1.043 1.854 1.043 3.363 0 1.045-.414 2.253-.963 3.943l-1.257 4.063-4.571-13.103zm4.61 16.253l3.858-10.768c.719-1.739.962-3.128.962-4.37 0-.448-.028-.863-.085-1.252a11.816 11.816 0 0 1 1.547 5.852c0 4.5-2.526 8.427-6.282 10.538z" fill="#FFF"/></g></g></g><g clip-path="url(#U)"><g clip-path="url(#V)"><g clip-path="url(#W)"><path d="M649.727 468.191l-5.535-16.604a5.235 5.235 0 0 0-4.976-3.587H623.75v21h26.108c-.044-.273-.044-.547-.131-.809zM620.25 448h-15.466a5.235 5.235 0 0 0-4.976 3.587l-5.535 16.604c-.087.262-.087.536-.131.809h26.108v-21zM594 472.5v26.25a5.252 5.252 0 0 0 5.25 5.25h45.5a5.252 5.252 0 0 0 5.25-5.25V472.5h-56z" fill="#2F5597"/></g></g></g><g clip-path="url(#X)"><g clip-path="url(#Y)"><g clip-path="url(#Z)"><path d="M623.5 473.438c-7.743 0-14.047 6.08-14.047 13.562 0 7.476 6.304 13.563 14.047 13.563s14.047-6.087 14.047-13.563c0-7.481-6.304-13.563-14.047-13.563zM610.87 487c0-1.766.39-3.445 1.092-4.96l6.027 15.936c-4.214-1.98-7.12-6.153-7.12-10.976zm12.63 12.195a13 13 0 0 1-3.568-.497l3.789-10.632 3.88 10.27c.028.06.056.116.09.17a13.054 13.054 0 0 1-4.191.69zm1.739-17.91c.759-.038 1.444-.115 1.444-.115.68-.076.6-1.044-.08-1.006 0 0-2.044.153-3.364.153-1.24 0-3.324-.153-3.324-.153-.68-.038-.76.968-.08 1.006 0 0 .646.077 1.326.115l1.965 5.206-2.764 8.001-4.6-13.207c.76-.038 1.445-.115 1.445-.115.68-.076.6-1.044-.08-1.006 0 0-2.044.153-3.364.153-.237 0-.515-.005-.815-.016 2.26-3.309 6.14-5.496 10.552-5.496 3.285 0 6.281 1.214 8.53 3.199-.057-.006-.108-.011-.164-.011-1.24 0-2.119 1.044-2.119 2.166 0 1.006.6 1.853 1.24 2.86.482.81 1.043 1.854 1.043 3.363 0 1.045-.414 2.253-.963 3.943l-1.257 4.063-4.571-13.103zm4.61 16.253l3.858-10.768c.719-1.739.962-3.128.962-4.37 0-.448-.028-.863-.085-1.252a11.816 11.816 0 0 1 1.547 5.852c0 4.5-2.526 8.427-6.282 10.538z" fill="#FFF"/></g></g></g><path d="M84 209h300v202H84z" fill="#b4c7e7"/><path d="M215.5 238.04q-1.242.644-2.59.972-1.347.328-2.812.328-4.371 0-6.926-2.438-2.555-2.449-2.555-6.632 0-4.196 2.555-6.633 2.555-2.45 6.926-2.45 1.465 0 2.812.329 1.348.328 2.59.972v3.621q-1.254-.855-2.473-1.254-1.218-.398-2.566-.398-2.414 0-3.797 1.547t-1.383 4.266q0 2.707 1.383 4.253 1.383 1.547 3.797 1.547 1.348 0 2.566-.398 1.22-.399 2.473-1.254zm3.55-17.274h4.196V239h-4.195zm8.227 5.109h4.196V239h-4.196zm0-5.11h4.196v3.423h-4.196zm21.329 11.637v1.196h-9.809q.152 1.476 1.066 2.215.914.738 2.555.738 1.324 0 2.707-.387 1.395-.398 2.86-1.195v3.234q-1.489.563-2.977.844-1.488.293-2.977.293-3.562 0-5.543-1.805-1.968-1.816-1.968-5.086 0-3.21 1.933-5.05 1.946-1.84 5.344-1.84 3.094 0 4.945 1.863 1.864 1.863 1.864 4.98zm-4.313-1.394q0-1.196-.703-1.922-.691-.738-1.816-.738-1.22 0-1.98.691-.763.68-.95 1.969zm20.684 0V239h-4.22v-6.117q0-1.7-.081-2.344-.07-.644-.258-.95-.246-.41-.668-.632-.422-.234-.96-.234-1.313 0-2.063 1.02-.75 1.007-.75 2.8V239h-4.196v-13.125h4.196v1.922q.949-1.149 2.015-1.688 1.067-.55 2.356-.55 2.273 0 3.445 1.394 1.184 1.395 1.184 4.055zm8.472-8.86v3.727h4.325v3h-4.325v5.566q0 .914.364 1.243.363.316 1.441.316h2.156v3h-3.597q-2.485 0-3.528-1.031-1.031-1.043-1.031-3.528v-5.566h-2.086v-3h2.086v-3.727z" aria-label="Client" font-weight="700" font-size="24" font-family="Calibri,Calibri_MSFontService,sans-serif"/><path d="M94 250h283v34H94z" fill="#2f5597"/><path d="M137.506 261.879v10.582h2.224q2.816 0 4.12-1.276 1.312-1.277 1.312-4.03 0-2.734-1.312-4-1.304-1.276-4.12-1.276zm-1.841-1.514h3.782q3.956 0 5.806 1.65 1.85 1.64 1.85 5.14 0 3.52-1.859 5.169-1.86 1.65-5.797 1.65h-3.782zm18.256 4.576q-1.349 0-2.133 1.057-.783 1.049-.783 2.88 0 1.833.774 2.89.784 1.048 2.142 1.048 1.34 0 2.124-1.057.784-1.058.784-2.88 0-1.814-.784-2.872-.784-1.066-2.124-1.066zm0-1.422q2.188 0 3.436 1.422 1.25 1.422 1.25 3.938 0 2.506-1.25 3.937-1.248 1.422-3.436 1.422-2.196 0-3.445-1.422-1.24-1.43-1.24-3.937 0-2.516 1.24-3.938 1.249-1.422 3.445-1.422zm14.811.638v1.568q-.71-.392-1.43-.583-.711-.201-1.44-.201-1.632 0-2.534 1.04-.903 1.029-.903 2.898 0 1.868.903 2.907.902 1.03 2.533 1.03.73 0 1.44-.191.72-.2 1.431-.593v1.55q-.701.328-1.458.492-.747.164-1.595.164-2.306 0-3.664-1.45-1.358-1.449-1.358-3.91 0-2.497 1.367-3.928 1.376-1.43 3.764-1.43.775 0 1.513.163.739.155 1.431.474zm2.853-4.366h1.687v8.377l5.003-4.403h2.142l-5.414 4.776 5.642 5.433h-2.187l-5.186-4.986v4.986h-1.687zm18.94 8.66v.82h-7.71q.109 1.731 1.039 2.643.938.902 2.606.902.967 0 1.869-.237.911-.237 1.805-.71v1.585q-.903.383-1.85.583-.949.2-1.924.2-2.443 0-3.874-1.421-1.421-1.422-1.421-3.846 0-2.507 1.348-3.974 1.359-1.477 3.655-1.477 2.06 0 3.254 1.33 1.203 1.323 1.203 3.601zm-1.677-.493q-.018-1.376-.774-2.197-.748-.82-1.987-.82-1.404 0-2.252.793-.838.793-.966 2.233zm10.345-2.625q-.282-.164-.62-.237-.327-.082-.728-.082-1.422 0-2.188.93-.757.92-.757 2.652v5.378h-1.686v-10.209h1.686v1.586q.53-.93 1.377-1.376.847-.456 2.06-.456.173 0 .383.027.21.019.464.064zm9.316 7.11v5.413h-1.687v-14.09h1.687v1.549q.528-.912 1.33-1.35.812-.446 1.933-.446 1.859 0 3.017 1.477 1.166 1.476 1.166 3.883 0 2.406-1.166 3.882-1.158 1.477-3.017 1.477-1.121 0-1.933-.438-.802-.446-1.33-1.358zm5.705-3.564q0-1.85-.765-2.899-.757-1.057-2.088-1.057-1.33 0-2.096 1.057-.756 1.048-.756 2.899 0 1.85.756 2.907.766 1.048 2.096 1.048 1.331 0 2.088-1.048.765-1.057.765-2.907zm4.348 1.066v-6.18h1.677v6.116q0 1.45.565 2.179.565.72 1.696.72 1.358 0 2.141-.866.793-.866.793-2.361v-5.788h1.677v10.209h-1.677v-1.568q-.61.93-1.421 1.385-.803.447-1.869.447-1.76 0-2.67-1.094-.912-1.094-.912-3.199zm4.22-6.426zm7.784-3.728h1.677v14.183h-1.677zm5.186 0h1.677v14.183h-1.677zm10.145 3.974h1.677l2.096 7.966 2.087-7.966h1.978l2.097 7.966 2.087-7.966h1.677l-2.67 10.209h-1.979l-2.196-8.368-2.206 8.368h-1.978zm20.198 1.176q-1.35 0-2.133 1.057-.784 1.049-.784 2.88 0 1.833.775 2.89.784 1.048 2.142 1.048 1.34 0 2.123-1.057.784-1.058.784-2.88 0-1.814-.784-2.872-.784-1.066-2.123-1.066zm0-1.422q2.187 0 3.436 1.422t1.249 3.938q0 2.506-1.25 3.937-1.248 1.422-3.435 1.422-2.197 0-3.446-1.422-1.24-1.43-1.24-3.937 0-2.516 1.24-3.938 1.249-1.422 3.446-1.422zm13.38 1.814q-.283-.164-.62-.237-.328-.082-.73-.082-1.421 0-2.187.93-.756.92-.756 2.652v5.378h-1.686v-10.209h1.686v1.586q.529-.93 1.376-1.376.848-.456 2.06-.456.173 0 .383.027.21.019.465.064zm8.148-.018v-5.524h1.677v14.183h-1.677v-1.532q-.528.912-1.34 1.358-.802.438-1.932.438-1.85 0-3.017-1.477-1.157-1.476-1.157-3.882 0-2.407 1.157-3.883 1.167-1.477 3.017-1.477 1.13 0 1.932.447.812.437 1.34 1.349zm-5.715 3.564q0 1.85.757 2.907.766 1.048 2.096 1.048 1.331 0 2.097-1.048.765-1.057.765-2.907t-.765-2.899q-.766-1.057-2.097-1.057-1.33 0-2.096 1.057-.757 1.048-.757 2.899zm12.47 3.563v5.414h-1.687v-14.09h1.686v1.549q.529-.912 1.331-1.35.811-.446 1.932-.446 1.86 0 3.017 1.477 1.167 1.476 1.167 3.883 0 2.406-1.167 3.882-1.157 1.477-3.017 1.477-1.12 0-1.932-.438-.802-.446-1.33-1.358zm5.705-3.563q0-1.85-.766-2.899-.756-1.057-2.087-1.057-1.33 0-2.096 1.057-.757 1.048-.757 2.899 0 1.85.757 2.907.765 1.048 2.096 1.048 1.33 0 2.087-1.048.766-1.057.766-2.907zm10.436-3.546q-.282-.164-.62-.237-.328-.082-.729-.082-1.422 0-2.187.93-.757.92-.757 2.652v5.378h-1.686v-10.209h1.686v1.586q.529-.93 1.377-1.376.847-.456 2.06-.456.173 0 .382.028.21.018.465.063zm10.08 3.117v.82h-7.71q.11 1.732 1.04 2.644.938.902 2.606.902.966 0 1.868-.237.912-.237 1.805-.71v1.585q-.902.383-1.85.583-.948.201-1.923.201-2.443 0-3.874-1.422-1.422-1.422-1.422-3.846 0-2.507 1.349-3.974 1.358-1.477 3.655-1.477 2.06 0 3.254 1.33 1.203 1.323 1.203 3.601zm-1.676-.492q-.018-1.376-.775-2.197-.747-.82-1.987-.82-1.404 0-2.251.793-.839.793-.966 2.233zm10.937-3.892v1.586q-.71-.365-1.476-.547-.766-.182-1.586-.182-1.249 0-1.878.383-.62.382-.62 1.148 0 .583.447.92.447.329 1.796.63l.574.127q1.786.383 2.534 1.085.756.693.756 1.941 0 1.422-1.13 2.252-1.121.829-3.09.829-.82 0-1.713-.164-.884-.155-1.869-.474v-1.732q.93.483 1.832.73.903.236 1.787.236 1.185 0 1.823-.4.638-.41.638-1.15 0-.683-.465-1.047-.456-.365-2.015-.702l-.583-.137q-1.559-.328-2.251-1.002-.693-.684-.693-1.869 0-1.44 1.02-2.224 1.022-.784 2.9-.784.929 0 1.75.137.82.137 1.512.41zm9.726 0v1.586q-.711-.365-1.477-.547-.766-.182-1.586-.182-1.249 0-1.877.383-.62.382-.62 1.148 0 .583.446.92.447.329 1.796.63l.574.127q1.787.383 2.534 1.085.757.693.757 1.941 0 1.422-1.13 2.252-1.122.829-3.09.829-.82 0-1.714-.164-.884-.155-1.869-.474v-1.732q.93.483 1.832.73.903.236 1.787.236 1.185 0 1.823-.4.638-.41.638-1.15 0-.683-.465-1.047-.456-.365-2.014-.702l-.584-.137q-1.558-.328-2.25-1.002-.694-.684-.694-1.869 0-1.44 1.021-2.224 1.021-.784 2.899-.784.93 0 1.75.137t1.513.41z" aria-label="Docker pull wordpress" font-size="18.667" font-family="Calibri,Calibri_MSFontService,sans-serif" fill="#fff"/><path d="M94 289h283v34H94zM94 328h283v34H94z" fill="#2f5597"/><path d="M157.055 337.427v10.582h2.224q2.816 0 4.12-1.276 1.312-1.276 1.312-4.029 0-2.734-1.312-4.001-1.304-1.276-4.12-1.276zm-1.841-1.513h3.782q3.956 0 5.806 1.65 1.85 1.64 1.85 5.14 0 3.518-1.859 5.168-1.86 1.65-5.797 1.65h-3.782zm18.256 4.575q-1.349 0-2.132 1.058-.784 1.048-.784 2.88 0 1.832.774 2.89.784 1.047 2.142 1.047 1.34 0 2.124-1.057t.784-2.88q0-1.814-.784-2.871-.784-1.067-2.124-1.067zm0-1.421q2.188 0 3.437 1.421 1.248 1.422 1.248 3.938 0 2.506-1.248 3.937-1.25 1.422-3.437 1.422-2.196 0-3.445-1.422-1.24-1.43-1.24-3.937 0-2.516 1.24-3.938 1.249-1.421 3.445-1.421zm14.812.638v1.567q-.711-.392-1.431-.583-.711-.2-1.44-.2-1.632 0-2.534 1.038-.903 1.03-.903 2.899 0 1.868.903 2.907.902 1.03 2.533 1.03.73 0 1.44-.191.72-.2 1.432-.592v1.549q-.702.328-1.459.492-.747.164-1.595.164-2.306 0-3.664-1.449-1.358-1.45-1.358-3.91 0-2.498 1.367-3.929 1.377-1.43 3.765-1.43.774 0 1.513.164.738.155 1.43.474zm2.852-4.366h1.687v8.376l5.004-4.402h2.141l-5.414 4.776 5.642 5.432h-2.187l-5.186-4.986v4.986h-1.687zm18.94 8.658v.82h-7.71q.109 1.733 1.039 2.644.938.902 2.606.902.967 0 1.869-.237.911-.237 1.805-.71v1.585q-.903.383-1.85.584-.949.2-1.924.2-2.443 0-3.874-1.422-1.421-1.421-1.421-3.846 0-2.506 1.349-3.974 1.358-1.477 3.655-1.477 2.06 0 3.253 1.331 1.204 1.322 1.204 3.6zm-1.677-.492q-.018-1.376-.774-2.196-.748-.82-1.987-.82-1.404 0-2.252.792-.838.793-.966 2.233zm10.346-2.625q-.283-.164-.62-.237-.328-.082-.73-.082-1.421 0-2.187.93-.756.92-.756 2.652v5.378h-1.687v-10.208h1.687v1.586q.528-.93 1.376-1.377.848-.455 2.06-.455.173 0 .383.027.21.018.464.064zm13.608 0q-.283-.164-.62-.237-.328-.082-.73-.082-1.421 0-2.187.93-.756.92-.756 2.652v5.378h-1.687v-10.208h1.687v1.586q.528-.93 1.376-1.377.848-.455 2.06-.455.173 0 .383.027.21.018.465.064zm1.586 4.612v-6.18h1.677v6.116q0 1.45.565 2.179.565.72 1.695.72 1.358 0 2.142-.866.793-.866.793-2.36v-5.788h1.677v10.208h-1.677v-1.568q-.61.93-1.422 1.386-.802.446-1.868.446-1.76 0-2.671-1.093-.911-1.094-.911-3.2zm4.22-6.426zm16.27 4.293v6.162h-1.678v-6.107q0-1.45-.565-2.17t-1.695-.72q-1.358 0-2.142.867-.784.866-.784 2.36v5.77h-1.686v-10.208h1.686v1.586q.601-.921 1.413-1.377.82-.456 1.886-.456 1.76 0 2.662 1.094.902 1.085.902 3.2zm17.226-2.087q.629-1.13 1.504-1.668t2.06-.538q1.595 0 2.46 1.122.866 1.112.866 3.171v6.162h-1.686v-6.107q0-1.467-.52-2.178-.519-.711-1.585-.711-1.304 0-2.06.866-.757.866-.757 2.36v5.77h-1.686v-6.107q0-1.476-.52-2.178-.519-.711-1.604-.711-1.285 0-2.041.875-.757.866-.757 2.351v5.77h-1.686v-10.208h1.686v1.586q.574-.94 1.377-1.386.802-.447 1.905-.447 1.111 0 1.886.566.784.565 1.158 1.64zm14.483 9.197q-.711 1.823-1.386 2.379-.674.556-1.804.556h-1.34V352h.984q.693 0 1.076-.328.383-.328.847-1.55l.301-.765-4.129-10.044h1.778l3.19 7.984 3.19-7.984h1.777zm13.307-10.856v1.586q-.71-.364-1.476-.547-.766-.182-1.586-.182-1.249 0-1.878.383-.62.383-.62 1.148 0 .584.447.921.447.328 1.795.629l.575.127q1.786.383 2.534 1.085.756.693.756 1.942 0 1.421-1.13 2.25-1.121.83-3.09.83-.82 0-1.714-.164-.884-.155-1.868-.474v-1.732q.93.484 1.832.73.902.237 1.786.237 1.185 0 1.823-.401.638-.41.638-1.149 0-.683-.464-1.048-.456-.365-2.015-.702l-.583-.137q-1.559-.328-2.251-1.002-.693-.684-.693-1.869 0-1.44 1.02-2.224 1.022-.783 2.9-.783.929 0 1.75.136.82.137 1.512.41zm4.22 4.813q0 1.85.757 2.907.765 1.049 2.096 1.049 1.33 0 2.096-1.049.766-1.057.766-2.907t-.766-2.899q-.765-1.057-2.096-1.057-1.33 0-2.096 1.057-.757 1.049-.757 2.899zm5.715 3.564q-.529.911-1.34 1.358-.802.437-1.932.437-1.85 0-3.017-1.476-1.158-1.477-1.158-3.883 0-2.406 1.158-3.883 1.167-1.476 3.017-1.476 1.13 0 1.932.446.811.438 1.34 1.35v-1.55h1.677v14.09h-1.677zm5.132-12.651h1.677v14.182h-1.677z" aria-label="Docker run mysql" font-size="18.667" font-family="Calibri,Calibri_MSFontService,sans-serif" fill="#fff"/><path d="M94 367h282v34H94z" fill="#2f5597"/><path d="M139.94 379.31v10.583h2.225q2.816 0 4.12-1.276 1.312-1.276 1.312-4.029 0-2.734-1.312-4.001-1.304-1.276-4.12-1.276zm-1.84-1.512h3.782q3.956 0 5.806 1.65 1.85 1.64 1.85 5.14 0 3.518-1.859 5.168-1.86 1.65-5.797 1.65H138.1zm18.256 4.575q-1.349 0-2.133 1.058-.783 1.048-.783 2.88 0 1.832.774 2.89.784 1.047 2.142 1.047 1.34 0 2.124-1.057t.784-2.88q0-1.814-.784-2.871-.784-1.067-2.124-1.067zm0-1.422q2.188 0 3.436 1.422 1.25 1.422 1.25 3.938 0 2.506-1.25 3.937-1.248 1.422-3.436 1.422-2.196 0-3.445-1.422-1.24-1.43-1.24-3.937 0-2.516 1.24-3.938 1.249-1.422 3.445-1.422zm14.811.638v1.568q-.71-.392-1.43-.583-.711-.2-1.44-.2-1.632 0-2.535 1.038-.902 1.03-.902 2.899 0 1.868.902 2.907.903 1.03 2.534 1.03.73 0 1.44-.191.72-.2 1.431-.593v1.55q-.701.328-1.458.492-.747.164-1.595.164-2.306 0-3.664-1.45-1.358-1.448-1.358-3.91 0-2.497 1.367-3.928 1.376-1.43 3.764-1.43.775 0 1.513.163.739.155 1.431.474zm2.853-4.366h1.687v8.377l5.003-4.403h2.142l-5.414 4.776 5.642 5.433h-2.187l-5.186-4.986v4.986h-1.687zm18.94 8.66v.82h-7.71q.109 1.731 1.039 2.643.938.902 2.606.902.967 0 1.869-.237.911-.237 1.805-.71v1.585q-.903.383-1.85.584-.949.2-1.924.2-2.443 0-3.874-1.422-1.421-1.422-1.421-3.846 0-2.507 1.348-3.974 1.359-1.477 3.655-1.477 2.06 0 3.254 1.331 1.203 1.322 1.203 3.6zm-1.677-.493q-.018-1.376-.774-2.196-.748-.82-1.987-.82-1.404 0-2.252.792-.838.793-.966 2.233zm10.345-2.625q-.282-.164-.62-.237-.327-.082-.729-.082-1.421 0-2.187.93-.757.92-.757 2.652v5.378h-1.686v-10.209h1.686v1.586q.53-.93 1.377-1.376.847-.456 2.06-.456.173 0 .382.028.21.018.465.063zm13.609 0q-.283-.164-.62-.237-.328-.082-.73-.082-1.421 0-2.187.93-.756.92-.756 2.652v5.378h-1.687v-10.209h1.687v1.586q.528-.93 1.376-1.376.848-.456 2.06-.456.173 0 .383.028.21.018.464.063zm1.585 4.612v-6.18h1.678v6.116q0 1.45.565 2.179.565.72 1.695.72 1.358 0 2.142-.866.793-.866.793-2.36v-5.789h1.677v10.209h-1.677v-1.568q-.61.93-1.422 1.385-.802.447-1.868.447-1.76 0-2.671-1.094-.912-1.093-.912-3.199zm4.22-6.426zm16.27 4.293v6.162h-1.677v-6.107q0-1.45-.565-2.17t-1.695-.72q-1.358 0-2.142.867-.784.865-.784 2.36v5.77h-1.686v-10.209h1.686v1.586q.601-.92 1.413-1.376.82-.456 1.886-.456 1.76 0 2.662 1.094.902 1.085.902 3.2zm8.304-4.047h1.677l2.096 7.967 2.087-7.967h1.978l2.096 7.967 2.088-7.967h1.677l-2.67 10.209h-1.979l-2.196-8.367-2.206 8.367h-1.978zm20.197 1.176q-1.348 0-2.132 1.058-.784 1.048-.784 2.88 0 1.832.775 2.89.783 1.047 2.141 1.047 1.34 0 2.124-1.057t.784-2.88q0-1.814-.784-2.871-.784-1.067-2.124-1.067zm0-1.422q2.188 0 3.437 1.422 1.248 1.422 1.248 3.938 0 2.506-1.248 3.937-1.249 1.422-3.437 1.422-2.196 0-3.445-1.422-1.24-1.43-1.24-3.937 0-2.516 1.24-3.938 1.249-1.422 3.445-1.422zm13.38 1.814q-.282-.164-.62-.237-.327-.082-.728-.082-1.422 0-2.188.93-.756.92-.756 2.652v5.378h-1.686v-10.209h1.686v1.586q.528-.93 1.376-1.376.848-.456 2.06-.456.173 0 .383.028.21.018.465.063zm8.15-.018v-5.524h1.676v14.183h-1.677v-1.531q-.528.911-1.34 1.358-.802.437-1.932.437-1.85 0-3.017-1.476-1.157-1.477-1.157-3.883 0-2.406 1.157-3.883 1.167-1.477 3.017-1.477 1.13 0 1.932.447.811.437 1.34 1.349zm-5.716 3.564q0 1.85.757 2.907.765 1.048 2.096 1.048 1.33 0 2.097-1.048.765-1.057.765-2.907t-.765-2.899q-.766-1.057-2.097-1.057-1.33 0-2.096 1.057-.757 1.048-.757 2.899zm12.47 3.564v5.414h-1.687v-14.092h1.686v1.55q.529-.912 1.33-1.349.812-.447 1.933-.447 1.86 0 3.017 1.477 1.167 1.477 1.167 3.883 0 2.406-1.167 3.883-1.158 1.476-3.017 1.476-1.121 0-1.932-.437-.802-.447-1.33-1.358zm5.705-3.564q0-1.85-.766-2.899-.756-1.057-2.087-1.057-1.33 0-2.096 1.057-.757 1.048-.757 2.899 0 1.85.757 2.907.765 1.048 2.096 1.048 1.33 0 2.087-1.048.766-1.057.766-2.907zm10.436-3.546q-.283-.164-.62-.237-.328-.082-.729-.082-1.422 0-2.187.93-.757.92-.757 2.652v5.378h-1.686v-10.209h1.686v1.586q.529-.93 1.376-1.376.848-.456 2.06-.456.173 0 .383.028.21.018.465.064zm10.08 3.117v.82h-7.71q.11 1.732 1.039 2.644.939.902 2.607.902.966 0 1.868-.237.912-.237 1.805-.71v1.585q-.902.383-1.85.584-.948.2-1.924.2-2.442 0-3.873-1.422-1.422-1.422-1.422-3.846 0-2.507 1.349-3.974 1.358-1.477 3.655-1.477 2.06 0 3.254 1.331 1.203 1.322 1.203 3.6zm-1.676-.492q-.019-1.376-.775-2.196-.747-.82-1.987-.82-1.404 0-2.251.792-.839.793-.966 2.233zm10.937-3.892v1.586q-.71-.364-1.476-.547-.766-.182-1.586-.182-1.249 0-1.878.383-.62.383-.62 1.148 0 .584.447.92.447.329 1.795.63l.575.127q1.786.383 2.534 1.085.756.693.756 1.941 0 1.422-1.13 2.252-1.121.83-3.09.83-.82 0-1.714-.165-.884-.155-1.868-.474V389.3q.93.483 1.832.73.902.237 1.786.237 1.185 0 1.823-.402.638-.41.638-1.148 0-.684-.464-1.048-.456-.365-2.015-.702l-.583-.137q-1.559-.328-2.251-1.002-.693-.684-.693-1.869 0-1.44 1.02-2.224 1.022-.784 2.9-.784.929 0 1.75.137.82.137 1.512.41zm9.725 0v1.586q-.71-.364-1.476-.547-.766-.182-1.586-.182-1.249 0-1.878.383-.62.383-.62 1.148 0 .584.447.92.447.329 1.796.63l.574.127q1.786.383 2.534 1.085.756.693.756 1.941 0 1.422-1.13 2.252-1.12.83-3.09.83-.82 0-1.713-.165-.884-.155-1.869-.474V389.3q.93.483 1.832.73.903.237 1.787.237 1.185 0 1.823-.402.638-.41.638-1.148 0-.684-.465-1.048-.456-.365-2.014-.702l-.584-.137q-1.558-.328-2.251-1.002-.693-.684-.693-1.869 0-1.44 1.021-2.224 1.02-.784 2.898-.784.93 0 1.75.137t1.513.41z" aria-label="Docker run wordpress" font-size="18.667" font-family="Calibri,Calibri_MSFontService,sans-serif" fill="#fff"/><path d="M377.674 270.665l101.263-6.632-.348-5.322-101.263 6.632zm98.95-1.136l15.444-9.029-16.49-6.937zM850.856 280.835l30.75-6.875 15.006-3.314 14.642-3.191 13.957-2.942 13.336-2.692 12.4-2.38 11.362-2.071 10.25-1.572 8.948-1.198 3.959-.383 3.636-.255 3.187-.13 2.853.066 2.49.208 2.18.451 1.938.738 1.73 1.465.76 2.288-.4 2.263-1.22 1.888-1.59 1.739-2.357 1.94-3.21 2.228-4.026 2.492-4.865 2.843-5.554 3.093-6.341 3.327-6.955 3.634-7.529 3.827-8.14 4.008-8.569 4.191-8.952 4.382-9.391 4.445-19.634 9.254-20.388 9.506-20.759 9.504-20.63 9.44-20.009 9.067-9.631 4.315-9.309 4.186.01-.005-8.947 4.067-8.572 3.817-8 3.562.017-.008-7.445 3.379-6.884 3.066.018-.008-4.235 1.924-2.206-4.855 4.244-1.928 6.884-3.067-.017.008 7.446-3.379 8.009-3.567 8.562-3.812-.018.008 8.942-4.064 9.321-4.192 9.625-4.312-.011.005 20-9.063-.008.004 20.624-9.437 20.75-9.5-.017.008 20.375-9.5-.01.004 19.621-9.248 9.375-4.437-.031.015 8.938-4.375 8.556-4.185 8.125-4-.03.015 7.5-3.812-.027.014 6.933-3.623 6.313-3.313-.058.032 5.5-3.063-.048.028 4.812-2.813-.058.035 3.937-2.437-.116.076 3.062-2.125-.175.133 2.125-1.75-.274.26 1.313-1.438-.267.345.813-1.25-.391.99.188-1.062.096 1.306-.312-.937.807 1.192-.812-.687.773.456-1.313-.5.409.119-1.812-.375.319.047-2.25-.188.159.009-2.687-.063.17-.001-3.062.125.078-.005-3.563.25.07-.006-3.875.375.097-.011-8.875 1.188.051-.008-10.188 1.563.074-.013-11.312 2.063.024-.005-12.375 2.375.025-.005-13.312 2.688.022-.005-13.938 2.938.018-.004-14.617 3.186-14.994 3.311-30.75 6.875zm-85.48 103.333L747.5 383.5l11.26-13.9z" fill="red"/><path d="M855.482 280.046l19.63 8.354-2.089 4.907-19.63-8.353zm34.367 14.647l13.731 5.994 5.819 2.612-2.184 4.866-5.807-2.607.025.011-13.718-5.988zm34.148 15.226l9.71 4.485 9.609 4.697-2.342 4.791-9.583-4.684.053.025-9.684-4.472zm33.63 16.479l3.144 1.632 12.028 6.801 3.549 2.208-2.817 4.529-3.502-2.179.096.057-11.937-6.75.083.046-3.102-1.611zm32.281 19.51l3.271 2.408 4.227 3.33 3.794 3.409 3.43 3.368 1.69 1.947-4.03 3.49-1.62-1.865.15.159-3.313-3.25.086.08-3.687-3.313.131.111-4.125-3.25.07.053-3.236-2.382zm24.732 29.237l.17.566.43 3.584-.22 3.599-.86 3.596-1.59 3.532-2.48 3.479-3.32 3.189-3.69-3.845 3.13-3.017-.32.372 2.19-3.062-.26.457 1.37-3.062-.16.47.75-3.125-.07.462.19-3.125.01.478-.37-3.125.09.434-.1-.352zm-21.908 30.55l-1.843 1-6.795 3.175-7.45 3.22-3.666 1.449-1.96-4.96 3.627-1.434-.078.032 7.375-3.187-.071.032 6.688-3.125-.143.072 1.773-.962zm-34.85 14.458l-7.155 2.499-9.665 3.138-3.507 1.103-1.6-5.088 3.495-1.099-.023.008 9.625-3.125-.056.019 7.127-2.49zm-35.672 11.413l-11.973 3.56-8.568 2.377-1.426-5.139 8.544-2.371-.047.013 11.95-3.552zm-35.974 10.206l-19.484 5.304-1.125.296-1.357-5.158 1.114-.293-.022.006 19.473-5.301zm-36.083 9.67l-5.037 1.325-15.592 4.108-1.359-5.158 15.594-4.108 5.037-1.325zm-36.092 9.498l-9.371 2.511.01-.003-9.187 2.5.02-.005-2.032.57-1.441-5.135 2.042-.573 9.203-2.504 9.375-2.513zm-35.896 9.94l-6.768 2.047.05-.015-6.75 2.187.128-.045-2.942 1.122-1.9-4.984 3.006-1.145 6.839-2.217 6.792-2.055zm-11.855 9.301L748.5 478.5l12.03-13.239zM378.27 309.306l20.426-6.154-1.539-5.107-20.426 6.155zm35.745-10.77l20.427-6.154-1.539-5.107-20.426 6.155zm35.746-10.77l20.427-6.155-1.539-5.106-20.426 6.154zm28.412-2.99l13.012-12.276-17.628-3.044zM378.573 348.075l4.883-2.146-2.147-4.883-4.882 2.147zm9.765-4.293l4.882-2.146-2.146-4.883-4.883 2.147zm9.764-4.293l4.883-2.146-2.147-4.883-4.882 2.147zm9.765-4.293l4.882-2.146-2.146-4.883-4.882 2.147zm9.765-4.293l4.882-2.146-2.146-4.883-4.883 2.147zm9.764-4.293l4.883-2.146-2.147-4.883-4.882 2.147zm9.765-4.293l4.882-2.146-2.146-4.883-4.883 2.147zm9.765-4.293l4.882-2.146-2.147-4.882-4.882 2.146zm9.764-4.293l4.883-2.146-2.147-4.882-4.882 2.146zm9.765-4.293l4.882-2.146-2.146-4.882-4.883 2.146zm9.765-4.293l4.18-1.837-2.147-4.883-4.18 1.838zm3.885 4.118l11.427-13.763-17.867-.884zM580.844 303.574l3.853 3.688-3.688 3.852-3.853-3.688zm7.705 7.376l3.853 3.688-3.688 3.853-3.853-3.689zm7.706 7.376l3.852 3.688-3.688 3.853-3.852-3.688zm7.705 7.376l1.766 1.691 2.086 2.026-3.717 3.826-2.078-2.02.014.014-1.759-1.684zm7.677 7.433l3.825 3.717-3.716 3.825-3.825-3.716zm7.651 7.433l3.825 3.717-3.716 3.825-3.826-3.716zm7.65 7.433l2.934 2.85.906.906-3.771 3.771-.893-.892.028.027-2.92-2.837zm7.612 7.527l3.771 3.772-3.771 3.771-3.772-3.771zm7.552 7.564l3.74 3.803-3.803 3.739-3.739-3.802zm7.48 7.605l3.023 3.075.736.774-3.868 3.673-.719-.758.032.034-3.007-3.058zm7.431 7.717l3.672 3.868-3.868 3.672-3.672-3.868zm7.357 7.805l3.585 3.948-3.948 3.586-3.586-3.949zm7.17 7.897l1.578 1.737 1.997 2.296-4.024 3.501-1.978-2.275.038.043-1.559-1.717zm7.076 8.057l3.5 4.025-4.024 3.5-3.5-4.024zm6.941 8.195l3.387 4.12-4.12 3.387-3.386-4.12zm6.762 8.384l3.222 4.25-4.251 3.222-3.221-4.251zm6.487 8.633l3.005 4.406-4.406 3.006-3.005-4.406zm6.095 8.955l2.725 4.585-4.584 2.725-2.725-4.585zm5.525 9.367l2.357 4.784-4.784 2.357-2.357-4.784zm4.668 9.927l1.781 5.027-5.027 1.781-1.781-5.027zm3.151 10.555l.787 3.871.065 1.823-5.33.19-.057-1.603.052.437-.743-3.655zm.368 11.783l-.901 3.345-.892 2.07-4.898-2.113.817-1.893-.126.363.85-3.159zm-4.724 10.581l-2.026 2.721-1.527 1.635-3.898-3.639 1.425-1.527-.189.227 1.937-2.602zm-7.539 8.203l-.4.366-4.064 3.02-3.181-4.281 3.954-2.939-.209.173.3-.274zm-9.072 6.567l-4.583 2.728-2.728-4.583 4.583-2.727zm-9.463 5.334l-4.778 2.372-2.371-4.777 4.777-2.372zm-9.799 4.583l-4.908 2.089-2.089-4.907 4.908-2.089zm-10.116 3.924l-5.043 1.735-1.735-5.043 5.043-1.735zm-10.086 3.47l-4.823 1.66-.353.102-1.479-5.125.289-.083-.128.04 4.759-1.637zm-10.301 3.24l-4.37 1.261-.828.215-1.342-5.162.794-.206-.069.018 4.337-1.251zm-10.36 2.818l-3.434.893-1.761.437-1.285-5.176 1.747-.434-.028.007 3.419-.889zm-10.371 2.615l-1.916.475-3.33.755-1.178-5.202 3.303-.748-.053.012 1.889-.469zm-10.484 2.409l-5.217 1.108-1.108-5.217 5.217-1.108zm-10.417 2.232l-1.976.429-3.48.485-.735-5.283 3.38-.47-.199.035 1.877-.408zm-11.177 1.106l-1.099-.015-4.532-.647.755-5.28 4.362.623-.342-.026.927.012zm-11.41-2.539l-3.067-1.386-1.926-1.095 2.637-4.636 1.818 1.034-.221-.112 2.955 1.334zm-9.684-5.627l-4.083-3.033-.417-.399 3.684-3.856.298.285-.252-.213 3.95 2.934zm-8.356-7.117l-1.471-1.405-2.351-2.233 3.674-3.867 2.361 2.244 1.471 1.405zm-5.476 2.105l-6.278-16.751 17.168 5.028z" fill="red"/><path d="M378.004 386.448l17.614-12.036-3.009-4.404-17.613 12.036zm30.825-21.063l4.403-3.009-3.009-4.403-4.403 3.008zm17.614-12.036l17.614-12.036-3.01-4.403-17.613 12.036zm30.824-21.063l4.404-3.009-3.01-4.403-4.403 3.009zm17.614-12.035l7.355-5.027-3.009-4.403-7.355 5.026zm8.163.881l8.697-15.632-17.724 2.422zM676.905 305.929l9.946 13.637 2.601 3.654-4.346 3.093-2.591-3.642.018.025-9.937-13.625zm21.794 30.404l3.017 4.398-4.398 3.017-3.017-4.398zm11.808 17.889l2.65 4.21 3.423 5.896 3.054 5.726 1.438 3.055-4.826 2.271-1.409-2.994.06.119-3-5.625.047.084-3.375-5.812.049.081-2.625-4.17zm16.037 34.544l.289 1.425.345 4.346-.036.338-5.303-.569.01-.09-.007.495-.313-3.937.045.319-.257-1.267zm-10.31 20.005l-4.203 1.638-5.854 1.626-6.244 1.223-4.978.663-.705-5.286 4.898-.653-.161.026 6.063-1.187-.201.047 5.625-1.562-.255.084 4.079-1.589zm-37.407 6.823l-5.205.257-.141.006-.224-5.328.131-.006-.02.001 5.196-.257zm-11.327 5.844l-16-8 16-8z" fill="red"/><path d="M156.037 299.088v10.582h2.224q2.817 0 4.12-1.276 1.313-1.276 1.313-4.029 0-2.734-1.313-4.001-1.303-1.276-4.12-1.276zm-1.84-1.513h3.782q3.955 0 5.806 1.65 1.85 1.64 1.85 5.14 0 3.518-1.86 5.168-1.859 1.65-5.796 1.65h-3.783zm18.256 4.575q-1.35 0-2.133 1.057-.784 1.049-.784 2.88 0 1.833.775 2.89.784 1.048 2.142 1.048 1.34 0 2.123-1.057.784-1.057.784-2.88 0-1.814-.784-2.871-.784-1.067-2.123-1.067zm0-1.422q2.187 0 3.436 1.422t1.249 3.938q0 2.506-1.25 3.937-1.248 1.422-3.435 1.422-2.197 0-3.446-1.422-1.24-1.43-1.24-3.937 0-2.516 1.24-3.938 1.249-1.422 3.446-1.422zm14.81.638v1.568q-.71-.392-1.43-.583-.711-.2-1.44-.2-1.632 0-2.534 1.038-.902 1.03-.902 2.899 0 1.868.902 2.907.902 1.03 2.534 1.03.729 0 1.44-.191.72-.2 1.43-.593v1.55q-.701.328-1.457.492-.748.164-1.596.164-2.306 0-3.664-1.45-1.358-1.448-1.358-3.91 0-2.497 1.368-3.928 1.376-1.43 3.764-1.43.775 0 1.513.163.738.155 1.43.474zm2.854-4.366h1.686v8.377l5.004-4.403h2.142l-5.414 4.776 5.642 5.433h-2.188l-5.186-4.986v4.986h-1.686zm18.94 8.66v.82h-7.711q.11 1.731 1.039 2.643.939.902 2.607.902.966 0 1.868-.237.912-.237 1.805-.71v1.585q-.902.383-1.85.584-.948.2-1.923.2-2.443 0-3.874-1.422-1.422-1.422-1.422-3.846 0-2.507 1.349-3.974 1.358-1.477 3.655-1.477 2.06 0 3.254 1.331 1.203 1.322 1.203 3.6zm-1.677-.493q-.018-1.376-.775-2.196-.747-.82-1.987-.82-1.404 0-2.251.792-.839.793-.966 2.233zm10.345-2.625q-.283-.164-.62-.237-.328-.082-.73-.082-1.421 0-2.187.93-.756.92-.756 2.652v5.378h-1.686v-10.209h1.686v1.586q.529-.93 1.376-1.376.848-.456 2.06-.456.173 0 .383.028.21.018.465.064zm9.315 7.11v5.414h-1.686v-14.092h1.686v1.55q.529-.912 1.33-1.35.812-.446 1.933-.446 1.86 0 3.017 1.477 1.167 1.476 1.167 3.883 0 2.406-1.167 3.883-1.158 1.476-3.017 1.476-1.121 0-1.932-.437-.802-.447-1.331-1.358zm5.706-3.564q0-1.85-.766-2.899-.756-1.057-2.087-1.057-1.33 0-2.097 1.057-.756 1.048-.756 2.899 0 1.85.756 2.907.766 1.048 2.097 1.048 1.33 0 2.087-1.048.766-1.057.766-2.907zm4.347 1.066v-6.18h1.677v6.116q0 1.45.566 2.179.565.72 1.695.72 1.358 0 2.142-.866.793-.866.793-2.36v-5.789h1.677v10.209h-1.677v-1.568q-.61.93-1.422 1.385-.802.447-1.869.447-1.759 0-2.67-1.094-.912-1.093-.912-3.199zm4.22-6.426zm7.784-3.728h1.677v14.183h-1.677zm5.187 0h1.677v14.183h-1.677zm19.067 5.934q.63-1.13 1.504-1.668.875-.538 2.06-.538 1.595 0 2.461 1.121.866 1.112.866 3.172v6.162h-1.686v-6.107q0-1.467-.52-2.178-.52-.711-1.586-.711-1.303 0-2.06.866-.756.865-.756 2.36v5.77h-1.686v-6.107q0-1.477-.52-2.178-.52-.711-1.604-.711-1.285 0-2.042.875-.756.866-.756 2.351v5.77h-1.686v-10.209h1.686v1.586q.574-.938 1.376-1.385.802-.447 1.905-.447 1.112 0 1.887.565.784.566 1.157 1.641zm14.483 9.197q-.71 1.823-1.385 2.379t-1.805.556h-1.34v-1.404h.985q.692 0 1.075-.328t.848-1.55l.3-.765-4.128-10.045h1.777l3.19 7.985 3.19-7.985h1.778zm13.308-10.856v1.586q-.711-.364-1.477-.547-.766-.182-1.586-.182-1.249 0-1.877.383-.62.383-.62 1.148 0 .584.446.92.447.329 1.796.63l.574.127q1.787.383 2.534 1.085.757.693.757 1.941 0 1.422-1.13 2.252-1.122.83-3.09.83-.82 0-1.714-.165-.884-.155-1.869-.474v-1.732q.93.483 1.832.73.903.236 1.787.236 1.185 0 1.823-.4.638-.41.638-1.149 0-.684-.465-1.048-.456-.365-2.014-.702l-.584-.137q-1.558-.328-2.25-1.002-.694-.684-.694-1.869 0-1.44 1.021-2.224 1.021-.784 2.899-.784.93 0 1.75.137t1.513.41zm4.22 4.813q0 1.85.756 2.907.766 1.048 2.097 1.048 1.33 0 2.096-1.048.766-1.057.766-2.907t-.766-2.899q-.766-1.057-2.096-1.057-1.331 0-2.097 1.057-.756 1.048-.756 2.899zm5.715 3.564q-.53.911-1.34 1.358-.802.437-1.933.437-1.85 0-3.016-1.476-1.158-1.477-1.158-3.883 0-2.407 1.158-3.883 1.166-1.477 3.016-1.477 1.13 0 1.933.447.81.437 1.34 1.349v-1.55h1.677v14.092h-1.677zM316.208 297h1.677v14.183h-1.677z" aria-label="Docker pull mysql" font-size="18.667" font-family="Calibri,Calibri_MSFontService,sans-serif" fill="#fff"/><path d="M531.236 330.511v2.496q-1.195-1.113-2.555-1.664-1.347-.55-2.87-.55-3 0-4.595 1.84-1.593 1.827-1.593 5.296 0 3.457 1.593 5.297 1.594 1.828 4.594 1.828 1.524 0 2.871-.55 1.36-.551 2.555-1.665v2.473q-1.242.844-2.637 1.266-1.383.421-2.93.421-3.972 0-6.257-2.425-2.285-2.438-2.285-6.645 0-4.219 2.285-6.644 2.285-2.438 6.257-2.438 1.57 0 2.954.422 1.394.41 2.613 1.242zm8.648 4.535q-1.734 0-2.742 1.36-1.008 1.347-1.008 3.703 0 2.355.996 3.715 1.008 1.347 2.754 1.347 1.723 0 2.73-1.36 1.009-1.358 1.009-3.702 0-2.332-1.008-3.692-1.008-1.37-2.73-1.37zm0-1.828q2.813 0 4.418 1.828 1.606 1.828 1.606 5.063 0 3.222-1.606 5.062-1.605 1.828-4.418 1.828-2.824 0-4.43-1.828-1.593-1.84-1.593-5.062 0-3.235 1.594-5.063 1.605-1.828 4.43-1.828zm20.508 5.52v7.922h-2.156v-7.852q0-1.863-.727-2.79-.726-.925-2.18-.925-1.745 0-2.753 1.113-1.008 1.114-1.008 3.036v7.418H549.4v-13.125h2.168v2.039q.773-1.184 1.816-1.77 1.055-.586 2.426-.586 2.262 0 3.422 1.406 1.16 1.395 1.16 4.114zm6.434-8.93v3.727h4.441v1.675h-4.441v7.125q0 1.606.433 2.063.446.457 1.793.457h2.215v1.805h-2.215q-2.496 0-3.445-.926-.95-.938-.95-3.399v-7.125h-1.581v-1.675h1.582v-3.727zm13.242 10.254q-2.613 0-3.621.598-1.008.597-1.008 2.039 0 1.148.75 1.828.762.668 2.063.668 1.792 0 2.87-1.266 1.09-1.277 1.09-3.387v-.48zm4.3-.89v7.488h-2.156v-1.993q-.738 1.196-1.84 1.77-1.1.562-2.695.562-2.015 0-3.21-1.125-1.184-1.136-1.184-3.035 0-2.215 1.476-3.34 1.489-1.125 4.43-1.125h3.023v-.21q0-1.489-.984-2.297-.973-.82-2.742-.82-1.125 0-2.192.269-1.066.27-2.05.808v-1.992q1.183-.457 2.297-.68 1.113-.234 2.168-.234 2.847 0 4.253 1.477 1.407 1.476 1.407 4.476zm4.442-5.637h2.156v13.125h-2.156zm0-5.11h2.156v2.73h-2.156zm17.578 10.313v7.922h-2.156v-7.852q0-1.863-.727-2.79-.726-.925-2.18-.925-1.745 0-2.753 1.113-1.008 1.114-1.008 3.036v7.418h-2.168v-13.125h2.168v2.039q.773-1.184 1.816-1.77 1.055-.586 2.426-.586 2.262 0 3.422 1.406 1.16 1.395 1.16 4.114zm15.528.82v1.055h-9.914q.14 2.226 1.335 3.398 1.207 1.16 3.352 1.16 1.242 0 2.402-.304 1.172-.305 2.32-.914v2.039q-1.16.492-2.378.75-1.219.257-2.473.257-3.14 0-4.98-1.828-1.828-1.828-1.828-4.945 0-3.223 1.734-5.11 1.746-1.898 4.7-1.898 2.648 0 4.183 1.711 1.547 1.7 1.547 4.629zm-2.157-.633q-.023-1.77-.996-2.824-.96-1.055-2.554-1.055-1.805 0-2.895 1.02-1.078 1.02-1.242 2.87zm13.301-3.375q-.363-.21-.797-.305-.422-.105-.937-.105-1.828 0-2.813 1.195-.972 1.184-.972 3.41v6.915h-2.168v-13.125h2.168v2.039q.68-1.196 1.77-1.77 1.089-.586 2.648-.586.222 0 .492.035.27.024.597.082zm10.629-1.629v2.04q-.914-.47-1.898-.704-.985-.234-2.04-.234-1.605 0-2.414.492-.796.492-.796 1.477 0 .75.574 1.183.574.422 2.308.809l.739.164q2.297.492 3.257 1.394.973.891.973 2.496 0 1.829-1.453 2.895-1.441 1.066-3.973 1.066-1.054 0-2.203-.21-1.136-.2-2.402-.61v-2.226q1.195.62 2.355.937 1.16.305 2.297.305 1.524 0 2.344-.516.82-.527.82-1.476 0-.88-.597-1.348-.586-.469-2.59-.902l-.75-.176q-2.004-.422-2.895-1.29-.89-.878-.89-2.402 0-1.851 1.312-2.86 1.313-1.007 3.727-1.007 1.195 0 2.25.176 1.054.176 1.945.527z" aria-label="Containers" font-size="24" font-family="Calibri,Calibri_MSFontService,sans-serif" fill="#fff"/></g></svg>